<?xml version="1.0" encoding="UTF-8"?>
<svg xmlns="http://www.w3.org/2000/svg" xmlns:xlink="http://www.w3.org/1999/xlink" width="27pt" height="27pt" viewBox="0 0 27 27">
<path fill-rule="nonzero" fill="rgb(2.352905%, 50.979614%, 25.489807%)" fill-opacity="1" d="M 24 3.75 L 6.75 3.75 L 6.75 10.5 L 27 10.5 L 27 6.75 C 27 5.09375 25.65625 3.75 24 3.75 Z M 24 3.75 "/>
<path fill-rule="nonzero" fill="rgb(93.331909%, 93.331909%, 93.331909%)" fill-opacity="1" d="M 6.75 10.5 L 27 10.5 L 27 16.5 L 6.75 16.5 Z M 6.75 10.5 "/>
<path fill-rule="nonzero" fill="rgb(7.843018%, 7.843018%, 7.843018%)" fill-opacity="1" d="M 6.75 23.25 L 24 23.25 C 25.65625 23.25 27 21.90625 27 20.25 L 27 16.5 L 6.75 16.5 Z M 6.75 23.25 "/>
<path fill-rule="nonzero" fill="rgb(92.547607%, 12.548828%, 15.686035%)" fill-opacity="1" d="M 3 3.75 C 1.34375 3.75 0 5.09375 0 6.75 L 0 20.25 C 0 21.90625 1.34375 23.25 3 23.25 L 6.75 23.25 L 6.75 3.75 Z M 3 3.75 "/>
</svg>
