<?xml version="1.0" encoding="UTF-8"?>
<svg xmlns="http://www.w3.org/2000/svg" xmlns:xlink="http://www.w3.org/1999/xlink" width="27pt" height="27pt" viewBox="0 0 27 27">
<path fill-rule="nonzero" fill="rgb(45.881653%, 66.665649%, 85.881042%)" fill-opacity="1" d="M 27 20.25 C 27 21.90625 25.65625 23.25 24 23.25 L 3 23.25 C 1.34375 23.25 0 21.90625 0 20.25 L 0 6.75 C 0 5.09375 1.34375 3.75 3 3.75 L 24 3.75 C 25.65625 3.75 27 5.09375 27 6.75 Z M 27 20.25 "/>
<path fill-rule="nonzero" fill="rgb(93.331909%, 93.331909%, 93.331909%)" fill-opacity="1" d="M 0 9.75 L 27 9.75 L 27 17.25 L 0 17.25 Z M 0 9.75 "/>
<path fill-rule="nonzero" fill="rgb(98.822021%, 74.900818%, 28.627014%)" fill-opacity="1" d="M 13.5 9.75 L 13.867188 11.660156 L 14.933594 10.035156 L 14.542969 11.941406 L 16.152344 10.847656 L 15.058594 12.457031 L 16.964844 12.066406 L 15.339844 13.132812 L 17.25 13.5 L 15.339844 13.867188 L 16.964844 14.933594 L 15.058594 14.542969 L 16.152344 16.152344 L 14.542969 15.058594 L 14.933594 16.964844 L 13.867188 15.339844 L 13.5 17.25 L 13.132812 15.339844 L 12.066406 16.964844 L 12.457031 15.058594 L 10.847656 16.152344 L 11.941406 14.542969 L 10.035156 14.933594 L 11.660156 13.867188 L 9.75 13.5 L 11.660156 13.132812 L 10.035156 12.066406 L 11.941406 12.457031 L 10.847656 10.847656 L 12.457031 11.941406 L 12.066406 10.035156 L 13.132812 11.660156 Z M 13.5 9.75 "/>
<path fill-rule="nonzero" fill="rgb(51.763916%, 20.783997%, 6.666565%)" fill-opacity="1" d="M 13.5 10.746094 L 13.679688 11.695312 L 13.769531 12.148438 L 14.023438 11.765625 L 14.554688 10.957031 L 14.359375 11.902344 L 14.265625 12.355469 L 14.648438 12.097656 L 15.445312 11.554688 L 14.902344 12.355469 L 14.644531 12.738281 L 15.097656 12.644531 L 16.042969 12.449219 L 15.234375 12.980469 L 14.851562 13.230469 L 15.304688 13.320312 L 16.253906 13.5 L 15.304688 13.679688 L 14.851562 13.769531 L 15.234375 14.023438 L 16.042969 14.554688 L 15.097656 14.359375 L 14.644531 14.265625 L 14.902344 14.648438 L 15.445312 15.445312 L 14.644531 14.902344 L 14.261719 14.644531 L 14.355469 15.097656 L 14.554688 16.042969 L 14.023438 15.234375 L 13.769531 14.851562 L 13.679688 15.304688 L 13.5 16.253906 L 13.320312 15.304688 L 13.230469 14.851562 L 12.976562 15.234375 L 12.445312 16.042969 L 12.640625 15.097656 L 12.734375 14.644531 L 12.351562 14.902344 L 11.554688 15.445312 L 12.09375 14.648438 L 12.355469 14.265625 L 11.902344 14.359375 L 10.957031 14.554688 L 11.761719 14.023438 L 12.148438 13.769531 L 11.695312 13.679688 L 10.746094 13.5 L 11.695312 13.320312 L 12.148438 13.230469 L 11.765625 12.976562 L 10.957031 12.445312 L 11.902344 12.640625 L 12.355469 12.734375 L 12.09375 12.351562 L 11.550781 11.554688 L 12.351562 12.097656 L 12.734375 12.355469 L 12.640625 11.902344 L 12.445312 10.957031 L 12.976562 11.765625 L 13.230469 12.152344 L 13.316406 11.695312 L 13.5 10.746094 M 13.5 9.75 L 13.132812 11.660156 L 12.066406 10.035156 L 12.457031 11.941406 L 10.847656 10.847656 L 11.941406 12.460938 L 10.035156 12.066406 L 11.660156 13.132812 L 9.75 13.5 L 11.660156 13.867188 L 10.035156 14.933594 L 11.941406 14.542969 L 10.847656 16.152344 L 12.457031 15.058594 L 12.066406 16.964844 L 13.132812 15.339844 L 13.5 17.25 L 13.867188 15.339844 L 14.933594 16.964844 L 14.542969 15.058594 L 16.152344 16.152344 L 15.058594 14.542969 L 16.964844 14.933594 L 15.339844 13.867188 L 17.25 13.5 L 15.339844 13.132812 L 16.964844 12.066406 L 15.058594 12.457031 L 16.152344 10.847656 L 14.542969 11.941406 L 14.933594 10.035156 L 13.867188 11.660156 Z M 14.933594 10.035156 L 14.9375 10.035156 Z M 16.152344 10.847656 L 16.15625 10.847656 Z M 16.964844 12.066406 L 16.96875 12.066406 Z M 16.964844 12.066406 "/>
<path fill-rule="nonzero" fill="rgb(98.822021%, 74.900818%, 28.627014%)" fill-opacity="1" d="M 15 13.5 C 15 14.328125 14.328125 15 13.5 15 C 12.671875 15 12 14.328125 12 13.5 C 12 12.671875 12.671875 12 13.5 12 C 14.328125 12 15 12.671875 15 13.5 Z M 15 13.5 "/>
<path fill-rule="nonzero" fill="rgb(51.763916%, 20.783997%, 6.666565%)" fill-opacity="1" d="M 13.5 15.09375 C 12.621094 15.09375 11.90625 14.378906 11.90625 13.5 C 11.90625 12.621094 12.621094 11.90625 13.5 11.90625 C 14.378906 11.90625 15.09375 12.621094 15.09375 13.5 C 15.09375 14.378906 14.378906 15.09375 13.5 15.09375 Z M 13.5 12.09375 C 12.722656 12.09375 12.09375 12.722656 12.09375 13.5 C 12.09375 14.277344 12.722656 14.90625 13.5 14.90625 C 14.277344 14.90625 14.90625 14.277344 14.90625 13.5 C 14.90625 12.722656 14.277344 12.09375 13.5 12.09375 Z M 13.5 12.09375 "/>
<path fill-rule="nonzero" fill="rgb(75.68512%, 39.607239%, 25.097656%)" fill-opacity="1" d="M 13.351562 13.332031 C 13.351562 13.445312 13.15625 13.539062 12.914062 13.539062 C 12.671875 13.539062 12.476562 13.445312 12.476562 13.332031 C 12.476562 13.214844 12.671875 13.121094 12.914062 13.121094 C 13.15625 13.121094 13.351562 13.214844 13.351562 13.332031 Z M 14.515625 13.3125 C 14.515625 13.191406 14.316406 13.09375 14.070312 13.09375 C 13.824219 13.09375 13.625 13.191406 13.625 13.3125 C 13.625 13.433594 13.824219 13.53125 14.070312 13.53125 C 14.316406 13.53125 14.515625 13.433594 14.515625 13.3125 Z M 14.515625 13.3125 "/>
<path fill-rule="nonzero" fill="rgb(92.939758%, 52.548218%, 38.430786%)" fill-opacity="1" d="M 13.097656 14.15625 C 13.097656 14.0625 13.28125 13.984375 13.507812 13.984375 C 13.734375 13.984375 13.917969 14.058594 13.917969 14.15625 C 13.917969 14.25 13.734375 14.328125 13.507812 14.328125 C 13.28125 14.328125 13.097656 14.25 13.097656 14.15625 Z M 13.097656 14.15625 "/>
</svg>
