<?xml version="1.0" encoding="UTF-8"?>
<svg xmlns="http://www.w3.org/2000/svg" xmlns:xlink="http://www.w3.org/1999/xlink" width="27pt" height="27pt" viewBox="0 0 27 27">
<path fill-rule="nonzero" fill="rgb(0%, 14.117432%, 49.01886%)" fill-opacity="1" d="M 24 3.75 L 3 3.75 C 2.847656 3.75 2.695312 3.761719 2.546875 3.785156 L 2.542969 5.097656 L 0.496094 5.097656 C 0.183594 5.570312 0 6.140625 0 6.75 L 0 20.25 C 0 21.90625 1.34375 23.25 3 23.25 L 24 23.25 C 25.65625 23.25 27 21.90625 27 20.25 L 27 6.75 C 27 5.09375 25.65625 3.75 24 3.75 Z M 24 3.75 "/>
<path fill-rule="nonzero" fill="rgb(100%, 100%, 100%)" fill-opacity="1" d="M 6.75 19.515625 L 5.832031 20.363281 L 5.925781 19.117188 L 4.691406 18.929688 L 5.71875 18.226562 L 5.097656 17.144531 L 6.292969 17.507812 L 6.75 16.347656 L 7.210938 17.507812 L 8.402344 17.144531 L 7.78125 18.226562 L 8.808594 18.929688 L 7.578125 19.117188 L 7.667969 20.363281 Z M 20.960938 7.171875 L 20.363281 7.726562 L 20.421875 6.910156 L 19.613281 6.789062 L 20.289062 6.328125 L 19.882812 5.617188 L 20.664062 5.859375 L 20.960938 5.097656 L 21.261719 5.859375 L 22.042969 5.617188 L 21.636719 6.328125 L 22.308594 6.789062 L 21.503906 6.910156 L 21.5625 7.726562 Z M 17.960938 11.671875 L 17.363281 12.226562 L 17.421875 11.410156 L 16.613281 11.289062 L 17.289062 10.828125 L 16.882812 10.117188 L 17.664062 10.359375 L 17.960938 9.597656 L 18.261719 10.359375 L 19.042969 10.117188 L 18.636719 10.828125 L 19.308594 11.289062 L 18.503906 11.410156 L 18.5625 12.226562 Z M 24.710938 10.171875 L 24.113281 10.726562 L 24.171875 9.910156 L 23.363281 9.789062 L 24.039062 9.328125 L 23.632812 8.617188 L 24.414062 8.859375 L 24.710938 8.097656 L 25.011719 8.859375 L 25.792969 8.617188 L 25.386719 9.328125 L 26.058594 9.789062 L 25.253906 9.910156 L 25.3125 10.726562 Z M 20.960938 20.671875 L 20.363281 21.226562 L 20.421875 20.410156 L 19.613281 20.289062 L 20.289062 19.828125 L 19.882812 19.117188 L 20.664062 19.359375 L 20.960938 18.597656 L 21.261719 19.359375 L 22.042969 19.117188 L 21.636719 19.828125 L 22.308594 20.289062 L 21.503906 20.410156 L 21.5625 21.226562 Z M 23.25 12 L 23.46875 12.445312 L 23.964844 12.519531 L 23.605469 12.867188 L 23.691406 13.355469 L 23.25 13.125 L 22.808594 13.355469 L 22.894531 12.867188 L 22.535156 12.519531 L 23.03125 12.445312 Z M 23.25 12 "/>
<path fill-rule="nonzero" fill="rgb(0%, 14.117432%, 49.01886%)" fill-opacity="1" d="M 14.25 13.5 L 14.25 3.75 L 3 3.75 C 2.761719 3.75 2.546875 3.785156 2.546875 3.785156 L 2.542969 5.097656 L 0.496094 5.097656 C 0.496094 5.097656 0.464844 5.140625 0.402344 5.25 C 0.144531 5.691406 0 6.203125 0 6.75 L 0 13.5 Z M 14.25 13.5 "/>
<path fill-rule="nonzero" fill="rgb(93.331909%, 93.331909%, 93.331909%)" fill-opacity="1" d="M 14.25 3.75 L 12.5 3.75 L 9 6.203125 L 9 3.75 L 5.25 3.75 L 5.25 5.675781 L 2.546875 3.785156 C 2.085938 3.855469 1.65625 4.027344 1.292969 4.28125 L 4.820312 6.75 L 3.515625 6.75 L 0.726562 4.792969 C 0.644531 4.890625 0.566406 4.988281 0.496094 5.097656 L 2.859375 6.75 L 0 6.75 L 0 10.5 L 2.914062 10.5 L 0 12.574219 L 0 13.5 L 2.5 13.5 L 5.25 11.574219 L 5.25 13.5 L 9 13.5 L 9 11.046875 L 12.5 13.5 L 14.25 13.5 L 14.25 11.976562 L 12.140625 10.5 L 14.25 10.5 L 14.25 6.75 L 12.140625 6.75 L 14.25 5.273438 Z M 14.25 3.75 "/>
<path fill-rule="nonzero" fill="rgb(81.175232%, 10.588074%, 16.862488%)" fill-opacity="1" d="M 8.25 3.75 L 6 3.75 L 6 7.5 L 0 7.5 L 0 9.75 L 6 9.75 L 6 13.5 L 8.25 13.5 L 8.25 9.75 L 14.25 9.75 L 14.25 7.5 L 8.25 7.5 Z M 8.25 3.75 "/>
<path fill-rule="nonzero" fill="rgb(81.175232%, 10.588074%, 16.862488%)" fill-opacity="1" d="M 14.25 3.75 L 13.152344 3.75 L 9 6.660156 L 9 6.75 L 10.179688 6.75 L 14.25 3.898438 Z M 1.292969 4.28125 C 1.082031 4.429688 0.890625 4.601562 0.726562 4.792969 L 3.515625 6.75 L 4.820312 6.75 Z M 4.828125 10.5 L 0.550781 13.5 L 1.847656 13.5 L 5.25 11.117188 L 5.25 10.5 Z M 14.25 13.351562 L 14.25 12.4375 L 11.484375 10.5 L 10.175781 10.5 Z M 14.25 13.351562 "/>
</svg>
