<?xml version="1.0" encoding="UTF-8"?>
<svg xmlns="http://www.w3.org/2000/svg" xmlns:xlink="http://www.w3.org/1999/xlink" width="27pt" height="27pt" viewBox="0 0 27 27">
<path fill-rule="nonzero" fill="rgb(87.841797%, 0%, 20.391846%)" fill-opacity="1" d="M 0 9.75 L 27 9.75 L 27 17.25 L 0 17.25 Z M 0 9.75 "/>
<path fill-rule="nonzero" fill="rgb(0%, 59.606934%, 76.469421%)" fill-opacity="1" d="M 24 3.75 L 3 3.75 C 1.34375 3.75 0 5.09375 0 6.75 L 0 9.75 L 27 9.75 L 27 6.75 C 27 5.09375 25.65625 3.75 24 3.75 Z M 24 3.75 "/>
<path fill-rule="nonzero" fill="rgb(100%, 100%, 100%)" fill-opacity="1" d="M 13.382812 16 C 12.003906 16 10.882812 14.878906 10.882812 13.5 C 10.882812 12.121094 12.003906 11 13.382812 11 C 14.121094 11 14.78125 11.320312 15.238281 11.824219 C 14.699219 11.027344 13.785156 10.5 12.75 10.5 C 11.09375 10.5 9.75 11.84375 9.75 13.5 C 9.75 15.15625 11.09375 16.5 12.75 16.5 C 13.785156 16.5 14.699219 15.972656 15.238281 15.175781 C 14.78125 15.679688 14.121094 16 13.382812 16 Z M 13.382812 16 "/>
<path fill-rule="nonzero" fill="rgb(100%, 100%, 100%)" fill-opacity="1" d="M 17.75 13.5 L 16.851562 13.179688 L 17.261719 12.320312 L 16.402344 12.730469 L 16.082031 11.832031 L 15.765625 12.730469 L 15.761719 12.730469 L 14.902344 12.324219 L 15.3125 13.183594 L 14.417969 13.5 L 15.3125 13.820312 L 14.90625 14.679688 L 15.761719 14.273438 L 15.765625 14.269531 L 16.085938 15.167969 L 16.402344 14.269531 L 17.261719 14.675781 L 16.851562 13.816406 Z M 17.75 13.5 "/>
<path fill-rule="nonzero" fill="rgb(0%, 68.234253%, 39.607239%)" fill-opacity="1" d="M 3 23.25 L 24 23.25 C 25.65625 23.25 27 21.90625 27 20.25 L 27 17.25 L 0 17.25 L 0 20.25 C 0 21.90625 1.34375 23.25 3 23.25 Z M 3 23.25 "/>
</svg>
