<?xml version="1.0" encoding="UTF-8"?>
<svg xmlns="http://www.w3.org/2000/svg" xmlns:xlink="http://www.w3.org/1999/xlink" width="27pt" height="27pt" viewBox="0 0 27 27">
<path fill-rule="nonzero" fill="rgb(0%, 60.783386%, 22.744751%)" fill-opacity="1" d="M 27 20.25 C 27 21.90625 25.65625 23.25 24 23.25 L 3 23.25 C 1.34375 23.25 0 21.90625 0 20.25 L 0 6.75 C 0 5.09375 1.34375 3.75 3 3.75 L 24 3.75 C 25.65625 3.75 27 5.09375 27 6.75 Z M 27 20.25 "/>
<path fill-rule="nonzero" fill="rgb(99.606323%, 87.449646%, 0.392151%)" fill-opacity="1" d="M 24.546875 13.5 L 13.5 21.84375 L 2.453125 13.5 L 13.5 5.15625 Z M 24.546875 13.5 "/>
<path fill-rule="nonzero" fill="rgb(0%, 15.293884%, 46.273804%)" fill-opacity="1" d="M 18.324219 13.441406 C 18.324219 16.117188 16.15625 18.285156 13.480469 18.285156 C 10.808594 18.285156 8.636719 16.117188 8.636719 13.441406 C 8.636719 10.769531 10.808594 8.597656 13.480469 8.597656 C 16.15625 8.597656 18.324219 10.769531 18.324219 13.441406 Z M 18.324219 13.441406 "/>
<path fill-rule="nonzero" fill="rgb(79.606628%, 91.371155%, 83.135986%)" fill-opacity="1" d="M 9.207031 11.164062 C 8.957031 11.632812 8.789062 12.140625 8.703125 12.683594 C 11.699219 12.464844 15.765625 14.101562 17.511719 16.128906 C 17.8125 15.675781 18.035156 15.167969 18.175781 14.625 C 16.019531 12.519531 12.234375 11.152344 9.207031 11.164062 Z M 9.207031 11.164062 "/>
<path fill-rule="nonzero" fill="rgb(53.33252%, 78.822327%, 97.647095%)" fill-opacity="1" d="M 9 13.675781 L 9.75 13.675781 L 9.75 14.425781 L 9 14.425781 Z M 9.75 15.175781 L 10.5 15.175781 L 10.5 15.925781 L 9.75 15.925781 Z M 9.75 15.175781 "/>
<path fill-rule="nonzero" fill="rgb(33.332825%, 67.449951%, 93.331909%)" fill-opacity="1" d="M 11.25 13.675781 L 12 13.675781 L 12 14.425781 L 11.25 14.425781 Z M 12.75 14.425781 L 13.5 14.425781 L 13.5 15.175781 L 12.75 15.175781 Z M 15.75 15.925781 L 16.5 15.925781 L 16.5 16.675781 L 15.75 16.675781 Z M 13.5 16.675781 L 14.25 16.675781 L 14.25 17.425781 L 13.5 17.425781 Z M 15.75 12.175781 L 16.5 12.175781 L 16.5 12.925781 L 15.75 12.925781 Z M 15.75 12.175781 "/>
<path fill-rule="nonzero" fill="rgb(23.136902%, 53.33252%, 76.469421%)" fill-opacity="1" d="M 14.25 15.175781 L 15 15.175781 L 15 15.925781 L 14.25 15.925781 Z M 14.25 15.175781 "/>
</svg>
