<?xml version="1.0" encoding="UTF-8"?>
<svg xmlns="http://www.w3.org/2000/svg" xmlns:xlink="http://www.w3.org/1999/xlink" width="27pt" height="27pt" viewBox="0 0 27 27">
<path fill-rule="nonzero" fill="rgb(29.019165%, 65.097046%, 34.117126%)" fill-opacity="1" d="M 4.5 23.25 L 24 23.25 C 25.65625 23.25 27 21.90625 27 20.25 L 27 17.25 L 4.5 17.25 Z M 4.5 23.25 "/>
<path fill-rule="nonzero" fill="rgb(78.430176%, 19.215393%, 24.313354%)" fill-opacity="1" d="M 24 3.75 L 4.5 3.75 L 4.5 17.25 L 27 17.25 L 27 6.75 C 27 5.09375 25.65625 3.75 24 3.75 Z M 24 3.75 "/>
<path fill-rule="nonzero" fill="rgb(100%, 100%, 100%)" fill-opacity="1" d="M 3 3.75 C 1.34375 3.75 0 5.09375 0 6.75 L 0 20.25 C 0 21.90625 1.34375 23.25 3 23.25 L 4.5 23.25 L 4.5 3.75 Z M 3 3.75 "/>
<path fill-rule="nonzero" fill="rgb(78.430176%, 19.215393%, 24.313354%)" fill-opacity="1" d="M 0.574219 21.890625 L 1.042969 21.058594 L 1.523438 21.914062 L 1.117188 22.566406 C 1.246094 22.671875 1.378906 22.765625 1.527344 22.847656 L 2.121094 21.769531 L 1.054688 20.0625 L 0.214844 21.355469 C 0.355469 21.703125 0.554688 22.011719 0.800781 22.28125 Z M 4.484375 21.824219 L 3.363281 20.15625 L 2.238281 21.785156 L 3.199219 23.25 L 3.6875 23.25 Z M 3.394531 21.058594 L 3.875 21.914062 L 3.394531 22.6875 L 2.925781 21.890625 Z M 4.5 13.75 L 4.5 13.078125 L 4.265625 13.40625 Z M 2.117188 5.269531 L 1.449219 4.195312 C 0.863281 4.546875 0.417969 5.09375 0.183594 5.746094 L 1.148438 7.03125 Z M 0.574219 5.390625 L 1.042969 4.558594 L 1.523438 5.414062 L 1.042969 6.1875 Z M 3.460938 7.148438 L 4.484375 5.320312 L 3.425781 3.75 L 3.296875 3.75 L 2.238281 5.285156 Z M 3.875 5.414062 L 3.394531 6.1875 L 2.925781 5.390625 L 3.394531 4.558594 Z M 3.875 5.414062 "/>
<path fill-rule="nonzero" fill="rgb(78.430176%, 19.215393%, 24.313354%)" fill-opacity="1" d="M 3.714844 11.25 L 4.371094 10.160156 L 4.5 10.21875 L 4.5 9.75 L 3.445312 8.109375 L 2.179688 9.867188 L 1.054688 8.0625 L 0 9.691406 L 0 10.179688 L 0.644531 11.25 L 1.101562 10.582031 L 0.773438 10.125 L 1.019531 9.796875 L 1.734375 10.722656 L 0.679688 12.457031 L 0 11.519531 L 0 12.683594 L 0.0429688 12.628906 L 0.757812 13.554688 L 0 14.800781 L 0 15.683594 L 0.679688 14.746094 L 1.734375 16.480469 L 1.140625 17.25 L 1.019531 17.410156 L 0.902344 17.25 L 0.773438 17.078125 L 1.101562 16.621094 L 0.644531 15.953125 L 0 17.027344 L 0 17.457031 L 1.078125 19.101562 L 2.128906 17.25 L 2.167969 17.179688 L 2.210938 17.25 L 3.421875 19.207031 L 4.5 17.296875 L 4.5 17.003906 L 4.40625 17.046875 L 3.75 15.953125 L 3.292969 16.621094 L 3.621094 17.078125 L 3.492188 17.25 L 3.375 17.410156 L 3.253906 17.25 L 2.660156 16.484375 L 3.714844 14.75 L 4.5 15.828125 L 4.5 14.972656 L 3.632812 13.546875 L 4.347656 12.621094 L 4.5 12.824219 L 4.5 11.328125 L 3.679688 12.457031 L 2.625 10.722656 L 3.339844 9.796875 L 3.585938 10.125 L 3.257812 10.582031 Z M 3.214844 12.773438 L 3.214844 14.21875 L 2.167969 15.871094 L 1.183594 14.210938 L 1.183594 12.78125 L 2.167969 11.121094 Z M 3.214844 12.773438 "/>
<path fill-rule="nonzero" fill="rgb(78.430176%, 19.215393%, 24.313354%)" fill-opacity="1" d="M 1.523438 12.617188 L 1.972656 13.433594 L 1.523438 14.253906 L 1.851562 14.433594 L 2.183594 13.824219 L 2.519531 14.433594 L 2.847656 14.253906 L 2.398438 13.433594 L 2.847656 12.617188 L 2.519531 12.4375 L 2.183594 13.046875 L 1.851562 12.4375 Z M 0.0195312 19.640625 L 0.488281 20.4375 L 0.96875 19.664062 L 0.488281 18.808594 Z M 1.15625 19.640625 L 1.625 20.4375 L 2.105469 19.664062 L 1.625 18.808594 Z M 2.269531 19.640625 L 2.738281 20.4375 L 3.21875 19.664062 L 2.738281 18.808594 Z M 3.464844 19.640625 L 3.933594 20.4375 L 4.414062 19.664062 L 3.933594 18.808594 Z M 0.0195312 7.59375 L 0.488281 8.390625 L 0.96875 7.617188 L 0.488281 6.761719 Z M 1.15625 7.59375 L 1.625 8.390625 L 2.105469 7.617188 L 1.625 6.761719 Z M 2.269531 7.59375 L 2.738281 8.390625 L 3.21875 7.617188 L 2.738281 6.761719 Z M 3.464844 7.59375 L 3.933594 8.390625 L 4.414062 7.617188 L 3.933594 6.761719 Z M 3.464844 7.59375 "/>
</svg>
