<?xml version="1.0" encoding="UTF-8"?>
<svg xmlns="http://www.w3.org/2000/svg" xmlns:xlink="http://www.w3.org/1999/xlink" width="27pt" height="27pt" viewBox="0 0 27 27">
<path fill-rule="nonzero" fill="rgb(83.528137%, 16.862488%, 11.764526%)" fill-opacity="1" d="M 3 3.75 C 1.34375 3.75 0 5.09375 0 6.75 L 0 20.25 C 0 21.90625 1.34375 23.25 3 23.25 L 7.5 23.25 L 7.5 3.75 Z M 24 3.75 L 19.5 3.75 L 19.5 23.25 L 24 23.25 C 25.65625 23.25 27 21.90625 27 20.25 L 27 6.75 C 27 5.09375 25.65625 3.75 24 3.75 Z M 24 3.75 "/>
<path fill-rule="nonzero" fill="rgb(93.331909%, 93.331909%, 93.331909%)" fill-opacity="1" d="M 7.5 3.75 L 19.5 3.75 L 19.5 23.25 L 7.5 23.25 Z M 7.5 3.75 "/>
<path fill-rule="nonzero" fill="rgb(83.528137%, 16.862488%, 11.764526%)" fill-opacity="1" d="M 13.960938 16.585938 C 14.859375 16.6875 15.664062 16.78125 16.5625 16.886719 L 16.335938 16.132812 C 16.296875 16.003906 16.351562 15.859375 16.453125 15.777344 L 19.0625 13.652344 L 18.523438 13.398438 C 18.285156 13.3125 18.351562 13.179688 18.4375 12.855469 L 18.835938 11.402344 L 17.320312 11.722656 C 17.171875 11.746094 17.074219 11.652344 17.050781 11.5625 L 16.855469 10.878906 L 15.65625 12.226562 C 15.484375 12.441406 15.140625 12.441406 15.25 11.941406 L 15.761719 9.21875 L 15.074219 9.574219 C 14.878906 9.683594 14.6875 9.699219 14.578125 9.507812 L 13.632812 7.734375 L 13.632812 7.777344 L 13.632812 7.734375 L 12.683594 9.507812 C 12.574219 9.699219 12.382812 9.683594 12.1875 9.574219 L 11.503906 9.21875 L 12.015625 11.941406 C 12.121094 12.441406 11.777344 12.441406 11.605469 12.226562 L 10.40625 10.878906 L 10.210938 11.5625 C 10.191406 11.652344 10.089844 11.746094 9.945312 11.726562 L 8.429688 11.40625 L 8.824219 12.855469 C 8.910156 13.179688 8.976562 13.3125 8.738281 13.398438 L 8.199219 13.652344 L 10.808594 15.777344 C 10.910156 15.859375 10.964844 16.003906 10.925781 16.132812 L 10.699219 16.886719 L 13.300781 16.585938 C 13.378906 16.585938 13.433594 16.628906 13.433594 16.722656 L 13.269531 19.5 L 13.988281 19.5 L 13.828125 16.722656 C 13.828125 16.628906 13.882812 16.585938 13.960938 16.585938 Z M 13.960938 16.585938 "/>
</svg>
