<?xml version="1.0" encoding="UTF-8"?>
<svg xmlns="http://www.w3.org/2000/svg" xmlns:xlink="http://www.w3.org/1999/xlink" width="27pt" height="27pt" viewBox="0 0 27 27">
<path fill-rule="nonzero" fill="rgb(82.743835%, 17.64679%, 15.293884%)" fill-opacity="1" d="M 23.25 20.25 C 23.25 21.90625 21.90625 23.25 20.25 23.25 L 6.75 23.25 C 5.09375 23.25 3.75 21.90625 3.75 20.25 L 3.75 6.75 C 3.75 5.09375 5.09375 3.75 6.75 3.75 L 20.25 3.75 C 21.90625 3.75 23.25 5.09375 23.25 6.75 Z M 23.25 20.25 "/>
<path fill-rule="nonzero" fill="rgb(100%, 100%, 100%)" fill-opacity="1" d="M 18.75 12.046875 L 15 12.046875 L 15 8.296875 L 12 8.296875 L 12 12.046875 L 8.25 12.046875 L 8.25 15 L 12 15 L 12 18.796875 L 15 18.796875 L 15 15 L 18.75 15 Z M 18.75 12.046875 "/>
</svg>
