<?xml version="1.0" encoding="UTF-8"?>
<svg xmlns="http://www.w3.org/2000/svg" xmlns:xlink="http://www.w3.org/1999/xlink" width="27pt" height="27pt" viewBox="0 0 27 27">
<path fill-rule="nonzero" fill="rgb(12.156677%, 25.881958%, 60.783386%)" fill-opacity="1" d="M 9.75 3.75 L 3 3.75 C 1.34375 3.75 0 5.09375 0 6.75 L 0 13.5 L 9.75 13.5 Z M 6.253906 10.71875 L 4.839844 9.695312 L 3.429688 10.71875 L 3.96875 9.058594 L 2.558594 8.035156 L 4.300781 8.035156 L 4.839844 6.375 L 5.378906 8.035156 L 7.125 8.035156 L 5.714844 9.058594 Z M 6.253906 10.71875 "/>
<path fill-rule="nonzero" fill="rgb(93.331909%, 93.331909%, 93.331909%)" fill-opacity="1" d="M 24 3.75 L 9.75 3.75 L 9.75 13.5 L 27 13.5 L 27 6.75 C 27 5.09375 25.65625 3.75 24 3.75 Z M 24 3.75 "/>
<path fill-rule="nonzero" fill="rgb(83.135986%, 17.64679%, 15.293884%)" fill-opacity="1" d="M 0 13.5 L 0 20.25 C 0 21.90625 1.34375 23.25 3 23.25 L 24 23.25 C 25.65625 23.25 27 21.90625 27 20.25 L 27 13.5 Z M 0 13.5 "/>
<path fill-rule="nonzero" fill="rgb(100%, 100%, 100%)" fill-opacity="1" d="M 5.378906 8.035156 L 4.839844 6.375 L 4.300781 8.035156 L 2.558594 8.035156 L 3.96875 9.058594 L 3.429688 10.71875 L 4.839844 9.695312 L 6.253906 10.71875 L 5.714844 9.058594 L 7.125 8.035156 Z M 5.378906 8.035156 "/>
</svg>
