<?xml version="1.0" encoding="UTF-8"?>
<svg xmlns="http://www.w3.org/2000/svg" xmlns:xlink="http://www.w3.org/1999/xlink" width="27pt" height="27pt" viewBox="0 0 27 27">
<path fill-rule="nonzero" fill="rgb(87.057495%, 16.078186%, 6.274414%)" fill-opacity="1" d="M 27 20.25 C 27 21.90625 25.65625 23.25 24 23.25 L 3 23.25 C 1.34375 23.25 0 21.90625 0 20.25 L 0 6.75 C 0 5.09375 1.34375 3.75 3 3.75 L 24 3.75 C 25.65625 3.75 27 5.09375 27 6.75 Z M 27 20.25 "/>
<path fill-rule="nonzero" fill="rgb(100%, 87.057495%, 0.784302%)" fill-opacity="1" d="M 8.351562 6.734375 L 8.902344 7 L 9.347656 6.574219 L 9.261719 7.183594 L 9.800781 7.472656 L 9.199219 7.582031 L 9.089844 8.183594 L 8.800781 7.644531 L 8.195312 7.726562 L 8.617188 7.285156 Z M 11.851562 8.9375 L 11.582031 9.488281 L 12.007812 9.933594 L 11.402344 9.847656 L 11.113281 10.390625 L 11.003906 9.785156 L 10.398438 9.675781 L 10.941406 9.386719 L 10.855469 8.78125 L 11.300781 9.207031 Z M 11.132812 11.773438 L 11.335938 12.351562 L 11.945312 12.363281 L 11.457031 12.734375 L 11.636719 13.320312 L 11.132812 12.972656 L 10.628906 13.320312 L 10.808594 12.734375 L 10.320312 12.363281 L 10.929688 12.351562 Z M 8.351562 14.234375 L 8.902344 14.5 L 9.347656 14.074219 L 9.261719 14.683594 L 9.800781 14.972656 L 9.199219 15.082031 L 9.089844 15.683594 L 8.800781 15.144531 L 8.195312 15.226562 L 8.617188 14.785156 Z M 5.25 8.214844 L 5.945312 10.214844 L 8.066406 10.261719 L 6.375 11.539062 L 6.992188 13.570312 L 5.25 12.359375 L 3.507812 13.570312 L 4.125 11.539062 L 2.433594 10.261719 L 4.554688 10.214844 Z M 5.25 8.214844 "/>
</svg>
