<?xml version="1.0" encoding="UTF-8"?>
<svg xmlns="http://www.w3.org/2000/svg" xmlns:xlink="http://www.w3.org/1999/xlink" width="27pt" height="27pt" viewBox="0 0 27 27">
<path fill-rule="nonzero" fill="rgb(93.331909%, 93.331909%, 93.331909%)" fill-opacity="1" d="M 27 20.25 C 27 21.90625 25.65625 23.25 24 23.25 L 3 23.25 C 1.34375 23.25 0 21.90625 0 20.25 L 0 6.75 C 0 5.09375 1.34375 3.75 3 3.75 L 24 3.75 C 25.65625 3.75 27 5.09375 27 6.75 Z M 27 20.25 "/>
<path fill-rule="evenodd" fill="rgb(36.077881%, 56.861877%, 23.136902%)" fill-opacity="1" d="M 9.730469 16.609375 C 9.742188 16.65625 9.722656 16.664062 9.675781 16.652344 C 9.410156 16.574219 9.171875 16.457031 9.007812 16.226562 C 8.953125 16.148438 8.917969 16.066406 8.898438 15.972656 C 8.886719 15.929688 8.894531 15.90625 8.949219 15.921875 C 9.253906 15.996094 9.5 16.164062 9.675781 16.433594 C 9.707031 16.484375 9.730469 16.542969 9.730469 16.609375 Z M 16.082031 16.664062 C 16.066406 16.578125 16.089844 16.503906 16.128906 16.433594 C 16.304688 16.164062 16.550781 15.996094 16.863281 15.917969 C 16.917969 15.90625 16.917969 15.933594 16.910156 15.972656 C 16.871094 16.152344 16.773438 16.289062 16.636719 16.402344 C 16.472656 16.535156 16.289062 16.617188 16.082031 16.664062 Z M 16.792969 16.835938 C 16.789062 16.863281 16.773438 16.886719 16.75 16.902344 C 16.53125 17.105469 16.277344 17.21875 15.972656 17.1875 C 15.894531 17.179688 15.828125 17.148438 15.761719 17.105469 C 15.730469 17.082031 15.730469 17.0625 15.761719 17.039062 C 15.875 16.941406 16.003906 16.882812 16.140625 16.847656 C 16.332031 16.796875 16.527344 16.78125 16.722656 16.816406 C 16.75 16.816406 16.773438 16.824219 16.792969 16.835938 Z M 9.328125 16.796875 C 9.535156 16.800781 9.765625 16.84375 9.972656 16.980469 C 10.011719 17.007812 10.074219 17.035156 10.070312 17.070312 C 10.0625 17.113281 10 17.132812 9.957031 17.152344 C 9.832031 17.207031 9.703125 17.207031 9.570312 17.175781 C 9.375 17.128906 9.195312 17.046875 9.054688 16.898438 C 9.035156 16.882812 9.007812 16.859375 9.019531 16.835938 C 9.027344 16.816406 9.058594 16.820312 9.082031 16.8125 C 9.152344 16.800781 9.222656 16.796875 9.328125 16.796875 Z M 10.148438 16.511719 C 10.148438 16.582031 10.136719 16.648438 10.113281 16.714844 C 10.101562 16.753906 10.082031 16.757812 10.050781 16.734375 C 9.941406 16.652344 9.878906 16.546875 9.835938 16.421875 C 9.761719 16.222656 9.730469 16.019531 9.78125 15.808594 C 9.800781 15.734375 9.808594 15.730469 9.859375 15.785156 C 10.050781 15.988281 10.128906 16.238281 10.148438 16.511719 Z M 15.660156 16.488281 C 15.679688 16.234375 15.757812 15.988281 15.945312 15.789062 C 16.003906 15.730469 16.011719 15.730469 16.027344 15.808594 C 16.085938 16.117188 16.03125 16.402344 15.839844 16.65625 C 15.808594 16.695312 15.765625 16.753906 15.722656 16.742188 C 15.675781 16.730469 15.675781 16.65625 15.667969 16.605469 C 15.660156 16.574219 15.664062 16.539062 15.660156 16.488281 Z M 13.988281 16.953125 C 14.011719 17.367188 13.816406 17.664062 13.535156 17.929688 C 13.445312 17.605469 13.605469 17.109375 13.988281 16.953125 Z M 12.277344 17.9375 C 12.007812 17.675781 11.804688 17.394531 11.816406 17.011719 C 11.820312 16.953125 11.835938 16.953125 11.878906 16.980469 C 12.144531 17.136719 12.261719 17.375 12.289062 17.667969 C 12.300781 17.753906 12.296875 17.835938 12.277344 17.9375 Z M 14.996094 16.507812 C 15.046875 16.652344 15.042969 16.796875 15.011719 16.945312 C 14.976562 17.125 14.90625 17.285156 14.769531 17.414062 C 14.703125 17.480469 14.691406 17.476562 14.65625 17.390625 C 14.613281 17.28125 14.617188 17.167969 14.644531 17.054688 C 14.691406 16.855469 14.792969 16.683594 14.941406 16.542969 C 14.953125 16.535156 14.964844 16.527344 14.972656 16.515625 Z M 10.804688 16.5 C 11.054688 16.667969 11.230469 17.074219 11.171875 17.328125 C 11.160156 17.375 11.148438 17.445312 11.109375 17.457031 C 11.066406 17.46875 11.027344 17.410156 11 17.375 C 10.789062 17.117188 10.734375 16.828125 10.804688 16.5 Z M 15.023438 17.574219 C 15.265625 17.589844 15.476562 17.675781 15.640625 17.867188 C 15.691406 17.929688 15.6875 17.933594 15.609375 17.957031 C 15.40625 18.011719 15.21875 17.960938 15.035156 17.875 C 14.933594 17.828125 14.839844 17.769531 14.761719 17.691406 C 14.726562 17.660156 14.726562 17.640625 14.773438 17.625 C 14.851562 17.59375 14.933594 17.574219 15.023438 17.574219 Z M 10.789062 17.574219 C 10.867188 17.574219 10.945312 17.589844 11.019531 17.617188 C 11.089844 17.644531 11.089844 17.65625 11.035156 17.703125 C 10.878906 17.839844 10.699219 17.929688 10.496094 17.964844 C 10.394531 17.984375 10.296875 17.984375 10.195312 17.953125 C 10.117188 17.933594 10.117188 17.929688 10.167969 17.863281 C 10.292969 17.71875 10.453125 17.632812 10.636719 17.589844 C 10.6875 17.578125 10.738281 17.574219 10.789062 17.574219 Z M 15.128906 18.195312 C 14.839844 18.332031 14.421875 18.324219 14.214844 18.003906 C 14.183594 17.957031 14.191406 17.941406 14.242188 17.929688 C 14.585938 17.851562 14.871094 17.953125 15.128906 18.195312 Z M 10.683594 18.199219 C 10.839844 18.03125 11.027344 17.941406 11.246094 17.910156 C 11.351562 17.894531 11.453125 17.902344 11.554688 17.929688 C 11.628906 17.945312 11.628906 17.949219 11.585938 18.007812 C 11.445312 18.21875 11.242188 18.292969 11 18.277344 C 10.894531 18.273438 10.789062 18.253906 10.683594 18.199219 Z M 11.730469 17.507812 C 11.726562 17.574219 11.71875 17.625 11.699219 17.675781 C 11.683594 17.71875 11.664062 17.722656 11.628906 17.695312 C 11.503906 17.589844 11.421875 17.457031 11.359375 17.308594 C 11.300781 17.15625 11.25 17 11.277344 16.832031 C 11.28125 16.8125 11.28125 16.78125 11.300781 16.777344 C 11.324219 16.765625 11.335938 16.796875 11.351562 16.808594 C 11.519531 16.972656 11.65625 17.148438 11.714844 17.378906 C 11.722656 17.40625 11.726562 17.433594 11.726562 17.460938 Z M 14.078125 17.507812 C 14.078125 17.398438 14.109375 17.296875 14.160156 17.199219 C 14.238281 17.046875 14.34375 16.917969 14.464844 16.800781 C 14.5 16.765625 14.515625 16.765625 14.527344 16.816406 C 14.554688 16.933594 14.53125 17.046875 14.5 17.160156 C 14.445312 17.359375 14.355469 17.539062 14.195312 17.683594 C 14.136719 17.734375 14.132812 17.730469 14.105469 17.660156 C 14.085938 17.609375 14.078125 17.558594 14.078125 17.507812 Z M 14.574219 18.558594 C 14.425781 18.570312 14.273438 18.574219 14.125 18.53125 C 13.921875 18.472656 13.792969 18.328125 13.699219 18.144531 C 13.6875 18.121094 13.6875 18.101562 13.722656 18.101562 C 14.078125 18.105469 14.359375 18.25 14.570312 18.527344 C 14.574219 18.53125 14.574219 18.539062 14.578125 18.546875 C 14.578125 18.550781 14.578125 18.550781 14.574219 18.558594 Z M 11.222656 18.5625 C 11.265625 18.46875 11.328125 18.414062 11.390625 18.359375 C 11.585938 18.199219 11.804688 18.101562 12.0625 18.101562 C 12.105469 18.101562 12.125 18.105469 12.097656 18.15625 C 11.96875 18.414062 11.765625 18.558594 11.472656 18.5625 C 11.394531 18.566406 11.3125 18.5625 11.222656 18.5625 Z M 15.265625 17.113281 C 15.167969 16.96875 15.160156 16.8125 15.199219 16.652344 C 15.238281 16.484375 15.324219 16.335938 15.441406 16.203125 C 15.472656 16.164062 15.488281 16.171875 15.507812 16.210938 C 15.5625 16.308594 15.570312 16.414062 15.554688 16.523438 C 15.519531 16.75 15.421875 16.941406 15.265625 17.113281 Z M 10.328125 16.171875 C 10.5625 16.375 10.746094 16.839844 10.542969 17.105469 C 10.285156 16.90625 10.160156 16.375 10.328125 16.171875 Z M 9.953125 17.570312 C 9.847656 17.566406 9.722656 17.554688 9.613281 17.484375 C 9.546875 17.441406 9.546875 17.4375 9.605469 17.386719 C 9.742188 17.265625 9.902344 17.25 10.070312 17.277344 C 10.195312 17.296875 10.320312 17.332031 10.445312 17.363281 C 10.488281 17.375 10.488281 17.390625 10.460938 17.417969 C 10.40625 17.484375 10.332031 17.511719 10.253906 17.535156 C 10.160156 17.558594 10.066406 17.570312 9.953125 17.570312 Z M 15.835938 17.570312 C 15.699219 17.566406 15.574219 17.554688 15.457031 17.496094 L 15.421875 17.480469 C 15.382812 17.457031 15.332031 17.433594 15.332031 17.390625 C 15.335938 17.351562 15.394531 17.355469 15.429688 17.347656 C 15.59375 17.304688 15.753906 17.257812 15.925781 17.269531 C 16.03125 17.277344 16.121094 17.316406 16.199219 17.386719 C 16.261719 17.4375 16.261719 17.441406 16.191406 17.484375 C 16.082031 17.558594 15.957031 17.566406 15.835938 17.570312 Z M 15.835938 17.570312 "/>
<path fill-rule="evenodd" fill="rgb(36.077881%, 56.861877%, 23.136902%)" fill-opacity="1" d="M 13.519531 18.417969 C 13.332031 18.371094 13.144531 18.324219 12.957031 18.277344 C 12.917969 18.269531 12.886719 18.269531 12.847656 18.277344 C 12.660156 18.328125 12.472656 18.371094 12.28125 18.414062 C 12.402344 18.320312 12.535156 18.257812 12.695312 18.210938 L 12.085938 18 C 12.160156 17.988281 12.207031 18.011719 12.257812 18.023438 C 12.453125 18.074219 12.652344 18.117188 12.851562 18.15625 C 12.9375 18.171875 13.015625 18.144531 13.097656 18.128906 C 13.335938 18.082031 13.574219 18.019531 13.8125 17.957031 C 13.585938 18.050781 13.355469 18.125 13.109375 18.210938 C 13.265625 18.257812 13.402344 18.316406 13.519531 18.417969 Z M 13.519531 18.417969 "/>
<path fill-rule="evenodd" fill="rgb(95.684814%, 56.469727%, 4.705811%)" fill-opacity="1" d="M 19.332031 8.335938 L 19.21875 8.390625 C 19.019531 8.484375 18.828125 8.613281 18.589844 8.597656 C 18.566406 8.597656 18.542969 8.609375 18.535156 8.632812 C 18.519531 8.710938 18.464844 8.71875 18.40625 8.71875 C 18.289062 8.722656 18.203125 8.769531 18.136719 8.863281 C 18.0625 8.96875 17.96875 9.046875 17.839844 9.074219 C 17.796875 9.085938 17.757812 9.109375 17.722656 9.128906 C 17.613281 9.195312 17.496094 9.226562 17.371094 9.214844 C 17.332031 9.210938 17.304688 9.222656 17.277344 9.257812 C 17.222656 9.332031 17.15625 9.40625 17.09375 9.480469 C 17.0625 9.523438 17.023438 9.5625 16.976562 9.570312 C 16.808594 9.605469 16.671875 9.707031 16.527344 9.785156 C 16.257812 9.933594 15.984375 10.078125 15.679688 10.148438 C 15.554688 10.179688 15.417969 10.214844 15.296875 10.183594 C 15.195312 10.15625 15.132812 10.1875 15.066406 10.238281 C 15.023438 10.265625 14.980469 10.296875 14.945312 10.332031 C 14.804688 10.472656 14.640625 10.53125 14.441406 10.507812 C 14.40625 10.503906 14.367188 10.503906 14.335938 10.523438 C 14.167969 10.613281 13.984375 10.613281 13.804688 10.648438 C 13.722656 10.664062 13.640625 10.636719 13.5625 10.65625 C 13.378906 10.695312 13.199219 10.648438 13.019531 10.628906 C 12.886719 10.617188 12.753906 10.585938 12.621094 10.609375 C 12.539062 10.621094 12.46875 10.601562 12.410156 10.546875 C 12.351562 10.496094 12.292969 10.492188 12.226562 10.53125 C 12.167969 10.5625 12.109375 10.566406 12.054688 10.535156 C 11.988281 10.5 11.921875 10.5 11.851562 10.519531 C 11.769531 10.542969 11.679688 10.558594 11.59375 10.527344 C 11.390625 10.464844 11.179688 10.414062 10.984375 10.324219 C 10.890625 10.28125 10.890625 10.285156 10.902344 10.390625 C 10.910156 10.515625 10.953125 10.632812 10.949219 10.761719 C 10.945312 10.933594 10.9375 11.105469 10.921875 11.28125 C 10.902344 11.539062 10.769531 11.710938 10.550781 11.832031 C 10.464844 11.878906 10.390625 11.878906 10.308594 11.835938 C 10.15625 11.761719 10.003906 11.683594 9.84375 11.621094 C 9.640625 11.546875 9.4375 11.527344 9.230469 11.617188 C 9.160156 11.648438 9.101562 11.710938 9.011719 11.691406 C 9.007812 11.6875 8.996094 11.699219 8.992188 11.707031 C 8.917969 11.78125 8.84375 11.855469 8.816406 11.957031 C 8.773438 12.109375 8.710938 12.238281 8.558594 12.316406 C 8.472656 12.355469 8.40625 12.425781 8.320312 12.46875 C 8.203125 12.523438 8.054688 12.53125 7.972656 12.453125 C 7.871094 12.363281 7.722656 12.304688 7.675781 12.15625 C 7.664062 12.128906 7.632812 12.109375 7.613281 12.148438 C 7.574219 12.242188 7.535156 12.339844 7.582031 12.441406 C 7.617188 12.519531 7.65625 12.59375 7.714844 12.652344 C 7.730469 12.671875 7.742188 12.695312 7.75 12.71875 C 7.765625 12.804688 7.773438 12.894531 7.75 12.980469 C 7.738281 13.03125 7.746094 13.074219 7.773438 13.117188 C 7.792969 13.148438 7.828125 13.195312 7.808594 13.21875 C 7.742188 13.304688 7.804688 13.359375 7.847656 13.425781 C 7.847656 13.429688 7.855469 13.4375 7.855469 13.445312 C 7.851562 13.546875 7.925781 13.585938 8.003906 13.621094 C 8.050781 13.640625 8.097656 13.664062 8.113281 13.71875 C 8.15625 13.863281 8.175781 14.011719 8.226562 14.15625 C 8.246094 14.203125 8.257812 14.238281 8.304688 14.265625 C 8.410156 14.324219 8.523438 14.371094 8.585938 14.488281 C 8.617188 14.542969 8.6875 14.558594 8.753906 14.550781 C 8.78125 14.546875 8.8125 14.539062 8.824219 14.5625 C 8.855469 14.613281 8.90625 14.613281 8.953125 14.609375 C 9.058594 14.597656 9.136719 14.640625 9.195312 14.722656 C 9.226562 14.765625 9.269531 14.792969 9.316406 14.808594 C 9.425781 14.84375 9.535156 14.882812 9.640625 14.929688 C 9.703125 14.957031 9.765625 14.96875 9.824219 14.921875 C 9.839844 14.910156 9.855469 14.910156 9.875 14.910156 C 9.976562 14.929688 10.0625 14.902344 10.136719 14.832031 C 10.167969 14.804688 10.207031 14.785156 10.246094 14.804688 C 10.3125 14.835938 10.375 14.820312 10.441406 14.804688 C 10.515625 14.785156 10.589844 14.78125 10.65625 14.820312 C 10.78125 14.890625 10.859375 15.003906 10.9375 15.121094 C 10.984375 15.195312 10.984375 15.277344 10.972656 15.363281 C 10.964844 15.390625 10.976562 15.394531 11.003906 15.398438 C 11.144531 15.40625 11.289062 15.421875 11.4375 15.433594 C 11.425781 15.386719 11.390625 15.355469 11.363281 15.316406 C 11.308594 15.234375 11.269531 15.140625 11.304688 15.042969 C 11.359375 14.871094 11.484375 14.75 11.640625 14.675781 C 11.707031 14.640625 11.777344 14.613281 11.84375 14.582031 C 12.03125 14.488281 12.226562 14.5 12.417969 14.558594 C 12.519531 14.585938 12.640625 14.546875 12.707031 14.46875 C 12.71875 14.453125 12.738281 14.445312 12.753906 14.445312 C 12.804688 14.4375 12.859375 14.429688 12.910156 14.445312 C 12.964844 14.464844 13.011719 14.464844 13.050781 14.414062 C 13.070312 14.390625 13.101562 14.386719 13.132812 14.386719 C 13.152344 14.386719 13.171875 14.386719 13.191406 14.367188 C 13.238281 14.3125 13.304688 14.292969 13.371094 14.277344 C 13.386719 14.273438 13.402344 14.273438 13.414062 14.257812 C 13.515625 14.132812 13.664062 14.097656 13.8125 14.070312 C 13.867188 14.058594 13.902344 14.035156 13.933594 13.992188 C 14.042969 13.832031 14.148438 13.792969 14.335938 13.84375 C 14.382812 13.855469 14.394531 13.839844 14.40625 13.800781 C 14.425781 13.730469 14.457031 13.664062 14.523438 13.625 C 14.558594 13.605469 14.566406 13.578125 14.566406 13.542969 C 14.566406 13.433594 14.570312 13.328125 14.570312 13.222656 C 14.578125 12.976562 14.757812 12.847656 14.945312 12.820312 C 15.058594 12.800781 15.175781 12.8125 15.289062 12.816406 C 15.371094 12.816406 15.441406 12.839844 15.507812 12.882812 C 15.566406 12.921875 15.621094 12.96875 15.679688 13.007812 C 15.738281 13.046875 15.796875 13.042969 15.859375 13.011719 C 15.914062 12.980469 15.941406 12.941406 15.921875 12.878906 C 15.914062 12.839844 15.933594 12.832031 15.96875 12.832031 C 16.023438 12.835938 16.082031 12.851562 16.125 12.820312 C 16.222656 12.753906 16.320312 12.789062 16.417969 12.792969 C 16.457031 12.796875 16.496094 12.796875 16.527344 12.816406 C 16.609375 12.867188 16.714844 12.863281 16.789062 12.925781 C 16.796875 12.929688 16.808594 12.929688 16.832031 12.929688 C 16.792969 12.90625 16.796875 12.882812 16.804688 12.859375 C 16.816406 12.796875 16.804688 12.738281 16.765625 12.6875 C 16.707031 12.601562 16.601562 12.550781 16.585938 12.433594 C 16.582031 12.410156 16.542969 12.390625 16.519531 12.375 C 16.472656 12.339844 16.425781 12.304688 16.378906 12.273438 C 16.351562 12.25 16.324219 12.226562 16.316406 12.191406 C 16.289062 12.054688 16.195312 11.96875 16.101562 11.878906 C 15.921875 11.703125 15.84375 11.492188 15.886719 11.238281 C 15.898438 11.15625 15.90625 11.070312 15.964844 11.003906 C 16.011719 10.949219 16.074219 10.902344 16.066406 10.816406 C 16.066406 10.808594 16.074219 10.792969 16.082031 10.789062 C 16.179688 10.707031 16.277344 10.625 16.421875 10.652344 C 16.480469 10.664062 16.546875 10.664062 16.605469 10.65625 C 16.6875 10.640625 16.753906 10.601562 16.773438 10.511719 C 16.789062 10.464844 16.796875 10.414062 16.820312 10.375 C 16.953125 10.15625 17.148438 10 17.355469 9.863281 C 17.441406 9.804688 17.546875 9.769531 17.640625 9.722656 C 17.703125 9.695312 17.761719 9.660156 17.828125 9.652344 C 17.871094 9.644531 17.898438 9.625 17.921875 9.59375 C 18.042969 9.4375 18.167969 9.292969 18.371094 9.242188 C 18.425781 9.226562 18.453125 9.179688 18.472656 9.125 C 18.496094 9.058594 18.519531 8.984375 18.582031 8.945312 C 18.777344 8.824219 18.945312 8.648438 19.195312 8.632812 C 19.25 8.632812 19.277344 8.601562 19.292969 8.550781 L 19.34375 8.34375 C 19.347656 8.339844 19.351562 8.335938 19.351562 8.332031 C 19.34375 8.328125 19.335938 8.332031 19.332031 8.335938 Z M 19.332031 8.335938 "/>
</svg>
