<?xml version="1.0" encoding="UTF-8"?>
<svg xmlns="http://www.w3.org/2000/svg" xmlns:xlink="http://www.w3.org/1999/xlink" width="27pt" height="27pt" viewBox="0 0 27 27">
<path fill-rule="nonzero" fill="rgb(84.312439%, 7.843018%, 10.195923%)" fill-opacity="1" d="M 1.039062 22.480469 C 1.5625 22.972656 2.25 23.25 3 23.25 L 24 23.25 C 25.65625 23.25 27 21.90625 27 19.875 L 27 13.5 L 13.125 13.5 Z M 1.039062 22.480469 "/>
<path fill-rule="nonzero" fill="rgb(93.331909%, 93.331909%, 93.331909%)" fill-opacity="1" d="M 24 3.75 L 3 3.75 C 2.238281 3.75 1.546875 4.035156 1.015625 4.503906 L 13.125 13.5 L 27 13.5 L 27 6.75 C 27 5.09375 25.65625 3.75 24 3.75 Z M 24 3.75 "/>
<path fill-rule="nonzero" fill="rgb(6.666565%, 27.058411%, 49.411011%)" fill-opacity="1" d="M 1.039062 22.480469 L 13.125 13.5 L 1.015625 4.503906 C 0.394531 5.054688 0 5.855469 0 6.75 L 0 19.875 C 0 20.984375 0.402344 21.886719 1.039062 22.480469 Z M 1.039062 22.480469 "/>
</svg>
