<?xml version="1.0" encoding="UTF-8"?>
<svg xmlns="http://www.w3.org/2000/svg" xmlns:xlink="http://www.w3.org/1999/xlink" width="27pt" height="27pt" viewBox="0 0 27 27">
<path fill-rule="nonzero" fill="rgb(77.645874%, 3.921509%, 11.372375%)" fill-opacity="1" d="M 27 20.25 C 27 21.90625 25.65625 23.25 24 23.25 L 3 23.25 C 1.34375 23.25 0 21.90625 0 20.25 L 0 6.75 C 0 5.09375 1.34375 3.75 3 3.75 L 24 3.75 C 25.65625 3.75 27 5.09375 27 6.75 Z M 27 20.25 "/>
<path fill-rule="nonzero" fill="rgb(100%, 76.861572%, 0%)" fill-opacity="1" d="M 0 9 L 27 9 L 27 18 L 0 18 Z M 0 9 "/>
<path fill-rule="nonzero" fill="rgb(91.763306%, 34.901428%, 43.136597%)" fill-opacity="1" d="M 6.75 12.75 L 6.75 15 C 6.75 16.242188 7.757812 17.25 9 17.25 C 10.242188 17.25 11.25 16.242188 11.25 15 L 11.25 12.75 Z M 6.75 12.75 "/>
<path fill-rule="nonzero" fill="rgb(95.684814%, 63.528442%, 69.802856%)" fill-opacity="1" d="M 9 12 L 11.25 12 L 11.25 14.25 L 9 14.25 Z M 9 12 "/>
<path fill-rule="nonzero" fill="rgb(86.665344%, 18.03894%, 26.66626%)" fill-opacity="1" d="M 6.75 12 L 9 12 L 9 14.25 L 6.75 14.25 Z M 6.75 12 "/>
<path fill-rule="nonzero" fill="rgb(91.763306%, 34.901428%, 43.136597%)" fill-opacity="1" d="M 11.25 10.875 C 11.25 11.496094 10.242188 12 9 12 C 7.757812 12 6.75 11.496094 6.75 10.875 C 6.75 10.253906 7.757812 9.75 9 9.75 C 10.242188 9.75 11.25 10.253906 11.25 10.875 Z M 11.25 10.875 "/>
<path fill-rule="nonzero" fill="rgb(100%, 67.449951%, 19.999695%)" fill-opacity="1" d="M 11.25 10.3125 C 11.25 10.625 10.242188 10.875 9 10.875 C 7.757812 10.875 6.75 10.625 6.75 10.3125 C 6.75 10 7.757812 9.75 9 9.75 C 10.242188 9.75 11.25 10 11.25 10.3125 Z M 11.25 10.3125 "/>
<path fill-rule="nonzero" fill="rgb(59.999084%, 66.665649%, 70.979309%)" fill-opacity="1" d="M 5.25 12 L 6 12 L 6 17.25 L 5.25 17.25 Z M 12 12 L 12.75 12 L 12.75 17.25 L 12 17.25 Z M 12 12 "/>
<path fill-rule="nonzero" fill="rgb(39.99939%, 45.881653%, 49.803162%)" fill-opacity="1" d="M 4.5 16.5 L 6.75 16.5 L 6.75 17.25 L 4.5 17.25 Z M 11.25 16.5 L 13.5 16.5 L 13.5 17.25 L 11.25 17.25 Z M 5.25 11.25 L 6 11.25 L 6 12 L 5.25 12 Z M 12 11.25 L 12.75 11.25 L 12.75 12 L 12 12 Z M 12 11.25 "/>
</svg>
