<?xml version="1.0" encoding="UTF-8"?>
<svg xmlns="http://www.w3.org/2000/svg" xmlns:xlink="http://www.w3.org/1999/xlink" width="27pt" height="27pt" viewBox="0 0 27 27">
<path fill-rule="nonzero" fill="rgb(0%, 14.117432%, 49.01886%)" fill-opacity="1" d="M 0 6.792969 L 0 9.75 L 4.222656 9.75 Z M 3.496094 23.25 L 9.75 23.25 L 9.75 18.871094 Z M 17.25 18.871094 L 17.25 23.25 L 23.5 23.25 Z M 0 17.25 L 0 20.207031 L 4.222656 17.25 Z M 23.503906 3.75 L 17.25 3.75 L 17.25 8.128906 Z M 27 20.207031 L 27 17.25 L 22.777344 17.25 Z M 27 9.75 L 27 6.792969 L 22.777344 9.75 Z M 9.75 3.75 L 3.496094 3.75 L 9.75 8.128906 Z M 9.75 3.75 "/>
<path fill-rule="nonzero" fill="rgb(81.175232%, 10.588074%, 16.862488%)" fill-opacity="1" d="M 18.855469 17.25 L 26.140625 22.351562 C 26.492188 21.992188 26.746094 21.539062 26.882812 21.039062 L 21.46875 17.25 Z M 9.75 17.25 L 8.144531 17.25 L 0.859375 22.351562 C 1.25 22.746094 1.753906 23.03125 2.316406 23.164062 L 9.75 17.957031 Z M 17.25 9.75 L 18.855469 9.75 L 26.140625 4.648438 C 25.75 4.253906 25.246094 3.96875 24.6875 3.835938 L 17.25 9.042969 Z M 8.144531 9.75 L 0.859375 4.648438 C 0.507812 5.011719 0.253906 5.460938 0.117188 5.960938 L 5.527344 9.75 Z M 8.144531 9.75 "/>
<path fill-rule="nonzero" fill="rgb(93.331909%, 93.331909%, 93.331909%)" fill-opacity="1" d="M 27 15.75 L 15.75 15.75 L 15.75 23.25 L 17.25 23.25 L 17.25 18.871094 L 23.5 23.25 L 24 23.25 C 24.835938 23.25 25.59375 22.902344 26.140625 22.351562 L 18.855469 17.25 L 21.46875 17.25 L 26.882812 21.039062 C 26.953125 20.785156 27 20.523438 27 20.25 L 27 20.207031 L 22.777344 17.25 L 27 17.25 Z M 0 15.75 L 0 17.25 L 4.222656 17.25 L 0 20.207031 L 0 20.25 C 0 21.066406 0.328125 21.808594 0.859375 22.351562 L 8.144531 17.25 L 9.75 17.25 L 9.75 17.957031 L 2.316406 23.164062 C 2.535156 23.214844 2.761719 23.25 3 23.25 L 3.496094 23.25 L 9.75 18.871094 L 9.75 23.25 L 11.25 23.25 L 11.25 15.75 Z M 27 6.75 C 27 5.933594 26.671875 5.191406 26.140625 4.648438 L 18.855469 9.75 L 17.25 9.75 L 17.25 9.042969 L 24.6875 3.835938 C 24.464844 3.785156 24.238281 3.75 24 3.75 L 23.503906 3.75 L 17.25 8.128906 L 17.25 3.75 L 15.75 3.75 L 15.75 11.25 L 27 11.25 L 27 9.75 L 22.777344 9.75 L 27 6.792969 Z M 9.75 3.75 L 9.75 8.128906 L 3.496094 3.75 L 3 3.75 C 2.160156 3.75 1.40625 4.097656 0.859375 4.648438 L 8.144531 9.75 L 5.527344 9.75 L 0.117188 5.960938 C 0.046875 6.214844 0 6.476562 0 6.75 L 0 6.792969 L 4.222656 9.75 L 0 9.75 L 0 11.25 L 11.25 11.25 L 11.25 3.75 Z M 9.75 3.75 "/>
<path fill-rule="nonzero" fill="rgb(81.175232%, 10.588074%, 16.862488%)" fill-opacity="1" d="M 15.75 11.25 L 15.75 3.75 L 11.25 3.75 L 11.25 11.25 L 0 11.25 L 0 15.75 L 11.25 15.75 L 11.25 23.25 L 15.75 23.25 L 15.75 15.75 L 27 15.75 L 27 11.25 Z M 15.75 11.25 "/>
</svg>
