<?xml version="1.0" encoding="UTF-8"?>
<svg xmlns="http://www.w3.org/2000/svg" xmlns:xlink="http://www.w3.org/1999/xlink" width="27pt" height="27pt" viewBox="0 0 27 27">
<path fill-rule="nonzero" fill="rgb(93.331909%, 93.331909%, 93.331909%)" fill-opacity="1" d="M 24 3.75 L 15.375 3.75 L 15.375 11.625 L 27 11.625 L 27 6.75 C 27 5.09375 25.65625 3.75 24 3.75 Z M 24 3.75 "/>
<path fill-rule="nonzero" fill="rgb(90.979004%, 6.666565%, 17.64679%)" fill-opacity="1" d="M 15.375 3.75 L 11.625 3.75 L 11.625 11.625 L 0 11.625 L 0 15.375 L 11.625 15.375 L 11.625 23.25 L 15.375 23.25 L 15.375 15.375 L 27 15.375 L 27 11.625 L 15.375 11.625 Z M 15.375 3.75 "/>
<path fill-rule="nonzero" fill="rgb(90.979004%, 6.666565%, 17.64679%)" fill-opacity="1" d="M 21.6875 7.1875 C 21.710938 6.722656 21.765625 6.253906 21.851562 5.792969 C 21.410156 5.847656 20.964844 5.847656 20.523438 5.792969 C 20.613281 6.253906 20.667969 6.722656 20.691406 7.1875 C 20.222656 7.164062 19.757812 7.109375 19.296875 7.023438 C 19.351562 7.464844 19.351562 7.910156 19.296875 8.351562 C 19.757812 8.261719 20.222656 8.207031 20.691406 8.183594 C 20.667969 8.652344 20.613281 9.117188 20.523438 9.578125 C 20.964844 9.523438 21.410156 9.523438 21.851562 9.578125 C 21.765625 9.117188 21.710938 8.652344 21.6875 8.183594 C 22.152344 8.207031 22.621094 8.261719 23.082031 8.351562 C 23.027344 7.910156 23.027344 7.464844 23.082031 7.023438 C 22.621094 7.113281 22.152344 7.167969 21.6875 7.1875 Z M 21.6875 7.1875 "/>
<path fill-rule="nonzero" fill="rgb(93.331909%, 93.331909%, 93.331909%)" fill-opacity="1" d="M 11.625 3.75 L 3 3.75 C 1.34375 3.75 0 5.09375 0 6.75 L 0 11.625 L 11.625 11.625 Z M 11.625 3.75 "/>
<path fill-rule="nonzero" fill="rgb(90.979004%, 6.666565%, 17.64679%)" fill-opacity="1" d="M 6.3125 7.1875 C 6.335938 6.722656 6.390625 6.253906 6.476562 5.792969 C 6.035156 5.847656 5.589844 5.847656 5.148438 5.792969 C 5.238281 6.253906 5.292969 6.722656 5.316406 7.1875 C 4.847656 7.164062 4.382812 7.109375 3.921875 7.023438 C 3.976562 7.464844 3.976562 7.910156 3.921875 8.351562 C 4.382812 8.261719 4.847656 8.207031 5.316406 8.183594 C 5.292969 8.652344 5.238281 9.117188 5.148438 9.578125 C 5.589844 9.523438 6.035156 9.523438 6.476562 9.578125 C 6.390625 9.117188 6.335938 8.652344 6.3125 8.183594 C 6.777344 8.207031 7.246094 8.261719 7.707031 8.351562 C 7.652344 7.910156 7.652344 7.464844 7.707031 7.023438 C 7.246094 7.113281 6.777344 7.167969 6.3125 7.1875 Z M 6.3125 7.1875 "/>
<path fill-rule="nonzero" fill="rgb(93.331909%, 93.331909%, 93.331909%)" fill-opacity="1" d="M 27 20.25 L 27 15.375 L 15.375 15.375 L 15.375 23.25 L 24 23.25 C 25.65625 23.25 27 21.90625 27 20.25 Z M 27 20.25 "/>
<path fill-rule="nonzero" fill="rgb(90.979004%, 6.666565%, 17.64679%)" fill-opacity="1" d="M 21.6875 19.8125 C 21.710938 20.277344 21.765625 20.746094 21.851562 21.207031 C 21.410156 21.152344 20.964844 21.152344 20.523438 21.207031 C 20.613281 20.746094 20.667969 20.277344 20.691406 19.8125 C 20.222656 19.835938 19.757812 19.890625 19.296875 19.976562 C 19.351562 19.535156 19.351562 19.089844 19.296875 18.648438 C 19.757812 18.738281 20.222656 18.792969 20.691406 18.816406 C 20.667969 18.347656 20.613281 17.882812 20.523438 17.421875 C 20.964844 17.476562 21.410156 17.476562 21.851562 17.421875 C 21.765625 17.882812 21.710938 18.347656 21.6875 18.816406 C 22.152344 18.792969 22.621094 18.738281 23.082031 18.648438 C 23.027344 19.089844 23.027344 19.535156 23.082031 19.976562 C 22.621094 19.886719 22.152344 19.832031 21.6875 19.8125 Z M 21.6875 19.8125 "/>
<path fill-rule="nonzero" fill="rgb(93.331909%, 93.331909%, 93.331909%)" fill-opacity="1" d="M 11.625 15.375 L 0 15.375 L 0 20.25 C 0 21.90625 1.34375 23.25 3 23.25 L 11.625 23.25 Z M 11.625 15.375 "/>
<path fill-rule="nonzero" fill="rgb(90.979004%, 6.666565%, 17.64679%)" fill-opacity="1" d="M 6.3125 19.8125 C 6.335938 20.277344 6.390625 20.746094 6.476562 21.207031 C 6.035156 21.152344 5.589844 21.152344 5.148438 21.207031 C 5.238281 20.746094 5.292969 20.277344 5.316406 19.8125 C 4.847656 19.835938 4.382812 19.890625 3.921875 19.976562 C 3.976562 19.535156 3.976562 19.089844 3.921875 18.648438 C 4.382812 18.738281 4.847656 18.792969 5.316406 18.816406 C 5.292969 18.347656 5.238281 17.882812 5.148438 17.421875 C 5.589844 17.476562 6.035156 17.476562 6.476562 17.421875 C 6.390625 17.882812 6.335938 18.347656 6.3125 18.816406 C 6.777344 18.792969 7.246094 18.738281 7.707031 18.648438 C 7.652344 19.089844 7.652344 19.535156 7.707031 19.976562 C 7.246094 19.886719 6.777344 19.832031 6.3125 19.8125 Z M 6.3125 19.8125 "/>
</svg>
