<?xml version="1.0" encoding="UTF-8"?>
<svg xmlns="http://www.w3.org/2000/svg" xmlns:xlink="http://www.w3.org/1999/xlink" width="27pt" height="27pt" viewBox="0 0 27 27">
<path fill-rule="nonzero" fill="rgb(5.097961%, 36.862183%, 69.018555%)" fill-opacity="1" d="M 3 23.25 L 24 23.25 C 24.527344 23.25 25.019531 23.113281 25.453125 22.875 L 1.546875 22.875 C 1.980469 23.113281 2.472656 23.25 3 23.25 Z M 3 23.25 "/>
<path fill-rule="nonzero" fill="rgb(93.331909%, 93.331909%, 93.331909%)" fill-opacity="1" d="M 6.375 14.625 L 0 14.625 L 0 16.5 L 27 16.5 L 27 14.625 Z M 0 20.25 C 0 20.378906 0.0117188 20.503906 0.0273438 20.625 L 26.972656 20.625 C 26.988281 20.503906 27 20.378906 27 20.25 L 27 18.75 L 0 18.75 Z M 10.5 10.5 L 27 10.5 L 27 12.375 L 10.5 12.375 Z M 10.5 6.375 L 10.5 8.25 L 27 8.25 L 27 6.75 C 27 6.621094 26.988281 6.496094 26.972656 6.375 Z M 10.5 6.375 "/>
<path fill-rule="nonzero" fill="rgb(5.097961%, 36.862183%, 69.018555%)" fill-opacity="1" d="M 10.5 8.25 L 27 8.25 L 27 10.5 L 10.5 10.5 Z M 0 16.5 L 27 16.5 L 27 18.75 L 0 18.75 Z M 1.546875 22.875 L 25.453125 22.875 C 26.269531 22.421875 26.851562 21.59375 26.972656 20.625 L 0.0273438 20.625 C 0.148438 21.59375 0.730469 22.421875 1.546875 22.875 Z M 0 10.5 L 4.125 10.5 L 4.125 14.625 L 0 14.625 Z M 10.5 12.375 L 10.5 10.5 L 6.375 10.5 L 6.375 14.625 L 27 14.625 L 27 12.375 Z M 25.453125 4.125 C 25.019531 3.886719 24.527344 3.75 24 3.75 L 3 3.75 C 2.472656 3.75 1.980469 3.886719 1.546875 4.125 C 0.730469 4.578125 0.148438 5.40625 0.0273438 6.375 C 0.0117188 6.496094 0 6.621094 0 6.75 L 0 8.25 L 4.125 8.25 L 4.125 4.125 L 6.375 4.125 L 6.375 8.25 L 10.5 8.25 L 10.5 6.375 L 26.972656 6.375 C 26.851562 5.40625 26.269531 4.578125 25.453125 4.125 Z M 25.453125 4.125 "/>
<path fill-rule="nonzero" fill="rgb(93.331909%, 93.331909%, 93.331909%)" fill-opacity="1" d="M 6.375 8.25 L 6.375 3.75 L 4.125 3.75 L 4.125 8.25 L 0 8.25 L 0 10.5 L 4.125 10.5 L 4.125 14.625 L 6.375 14.625 L 6.375 10.5 L 10.5 10.5 L 10.5 8.25 Z M 6.375 8.25 "/>
</svg>
