<?xml version="1.0" encoding="UTF-8"?>
<svg xmlns="http://www.w3.org/2000/svg" xmlns:xlink="http://www.w3.org/1999/xlink" width="27pt" height="27pt" viewBox="0 0 27 27">
<path fill-rule="nonzero" fill="rgb(87.057495%, 16.078186%, 6.274414%)" fill-opacity="1" d="M 27 20.25 C 27 21.90625 25.65625 23.25 24 23.25 L 3 23.25 C 1.34375 23.25 0 21.90625 0 20.25 L 0 6.75 C 0 5.09375 1.34375 3.75 3 3.75 L 24 3.75 C 25.65625 3.75 27 5.09375 27 6.75 Z M 27 20.25 "/>
<path fill-rule="nonzero" fill="rgb(100%, 100%, 100%)" fill-opacity="1" d="M 14.71875 6.902344 C 14.265625 6.664062 13.753906 6.539062 13.191406 6.667969 C 12.515625 6.824219 11.683594 7.527344 11.460938 8.347656 C 11.351562 8.734375 11.261719 9.074219 11.269531 9.390625 C 11.273438 9.609375 11.273438 9.972656 11.296875 10.332031 C 11.316406 10.585938 11.441406 11.132812 11.644531 11.617188 L 11.65625 11.613281 C 11.765625 11.980469 12.132812 12.554688 12.488281 13.023438 C 12.898438 13.558594 13.21875 13.800781 13.28125 13.800781 C 13.242188 13.777344 13.203125 13.753906 13.160156 13.699219 C 12.925781 13.40625 12.691406 12.871094 12.644531 12.507812 C 12.550781 11.800781 12.671875 11.289062 12.867188 10.675781 C 12.917969 10.523438 13.019531 10.476562 13.085938 10.515625 C 13.089844 10.519531 13.09375 10.527344 13.097656 10.53125 C 13.140625 10.570312 13.164062 10.640625 13.128906 10.765625 C 13.035156 11.09375 12.804688 11.921875 12.925781 12.507812 C 13.039062 13.050781 13.199219 13.371094 13.390625 13.601562 C 13.3125 13.449219 13.226562 13.15625 13.222656 12.855469 C 13.21875 12.6875 13.207031 12.519531 13.289062 12.367188 C 13.429688 12.117188 13.636719 11.980469 13.875 11.851562 C 14.039062 11.765625 14.191406 11.644531 14.335938 11.550781 C 14.980469 11.140625 15.195312 10.328125 15.179688 10 L 15.160156 9.753906 C 15.175781 9.664062 15.136719 9.421875 15.027344 9.175781 C 14.949219 8.988281 14.820312 8.808594 14.71875 8.667969 C 14.667969 8.597656 14.636719 8.515625 14.609375 8.464844 C 14.5 8.273438 14.5 8.058594 14.5 7.921875 C 14.5 7.757812 14.523438 7.738281 14.570312 7.664062 C 14.605469 7.601562 14.644531 7.519531 14.769531 7.453125 C 14.859375 7.402344 15.066406 7.417969 15.1875 7.480469 C 15.292969 7.53125 15.3125 7.527344 15.367188 7.554688 C 15.414062 7.582031 15.539062 7.648438 15.53125 7.621094 C 15.5 7.523438 15.140625 7.117188 14.71875 6.902344 Z M 11.914062 14.300781 C 11.210938 14.203125 10.746094 13.953125 10.207031 13.601562 C 10.070312 13.515625 10.054688 13.40625 10.109375 13.351562 L 10.113281 13.351562 C 10.15625 13.3125 10.238281 13.300781 10.363281 13.375 C 10.65625 13.554688 11.390625 13.992188 11.988281 14.03125 C 12.476562 14.058594 12.804688 14.007812 13.0625 13.910156 C 12.886719 13.925781 12.640625 13.921875 12.394531 13.859375 C 12.230469 13.816406 12.066406 13.785156 11.945312 13.664062 C 11.738281 13.460938 11.664062 13.226562 11.605469 12.960938 C 11.5625 12.777344 11.488281 12.597656 11.4375 12.4375 C 11.21875 11.703125 10.492188 11.277344 10.171875 11.203125 L 9.929688 11.15625 C 9.847656 11.117188 9.601562 11.089844 9.335938 11.128906 C 9.136719 11.152344 8.929688 11.226562 8.765625 11.289062 C 8.683594 11.320312 8.597656 11.324219 8.542969 11.339844 C 8.328125 11.394531 8.117188 11.335938 7.988281 11.296875 C 7.832031 11.253906 7.820312 11.226562 7.757812 11.160156 C 7.707031 11.109375 7.636719 11.050781 7.605469 10.910156 C 7.585938 10.8125 7.65625 10.617188 7.746094 10.515625 C 7.824219 10.433594 7.828125 10.410156 7.867188 10.367188 C 7.90625 10.328125 8.003906 10.226562 7.976562 10.226562 C 7.875 10.226562 7.386719 10.464844 7.066406 10.808594 C 6.714844 11.183594 6.457031 11.644531 6.429688 12.21875 C 6.398438 12.914062 6.851562 13.902344 7.578125 14.339844 C 7.921875 14.546875 8.226562 14.726562 8.53125 14.804688 C 8.742188 14.859375 9.09375 14.960938 9.445312 15.03125 C 9.695312 15.082031 10.257812 15.109375 10.777344 15.046875 L 10.777344 15.03125 C 11.164062 15.027344 11.808594 14.828125 12.355469 14.613281 C 13.046875 14.335938 13.386719 14.058594 13.335938 14.035156 L 13.324219 14.042969 C 13.320312 14.050781 13.304688 14.050781 13.292969 14.054688 C 13.261719 14.074219 13.242188 14.097656 13.199219 14.117188 C 12.855469 14.265625 12.277344 14.351562 11.914062 14.300781 Z M 13.804688 15.179688 C 13.757812 14.53125 13.632812 14.160156 13.574219 14.101562 C 13.578125 14.121094 13.585938 14.128906 13.589844 14.152344 C 13.636719 14.523438 13.554688 15.101562 13.40625 15.433594 C 13.113281 16.085938 12.742188 16.457031 12.253906 16.878906 C 12.171875 16.949219 12.09375 16.96875 12.039062 16.953125 C 12 16.945312 11.972656 16.921875 11.96875 16.882812 C 11.957031 16.828125 11.984375 16.753906 12.078125 16.664062 C 12.332031 16.433594 12.960938 15.851562 13.164062 15.289062 C 13.320312 14.851562 13.367188 14.53125 13.351562 14.261719 C 13.320312 14.433594 13.238281 14.691406 13.09375 14.917969 C 13.003906 15.058594 12.925781 15.207031 12.773438 15.285156 C 12.515625 15.421875 12.269531 15.421875 12 15.398438 C 11.816406 15.382812 11.621094 15.398438 11.453125 15.394531 C 10.6875 15.386719 10.058594 15.945312 9.894531 16.230469 L 9.773438 16.445312 C 9.714844 16.511719 9.613281 16.738281 9.570312 17.003906 C 9.535156 17.203125 9.539062 17.425781 9.550781 17.597656 C 9.554688 17.683594 9.535156 17.765625 9.53125 17.824219 C 9.515625 18.046875 9.398438 18.226562 9.320312 18.34375 C 9.230469 18.476562 9.203125 18.480469 9.121094 18.519531 C 9.058594 18.550781 8.980469 18.597656 8.839844 18.585938 C 8.738281 18.578125 8.570312 18.453125 8.503906 18.332031 C 8.445312 18.234375 8.429688 18.226562 8.398438 18.171875 C 8.371094 18.125 8.304688 18 8.296875 18.027344 C 8.265625 18.125 8.347656 18.664062 8.578125 19.074219 C 8.828125 19.519531 9.1875 19.90625 9.726562 20.105469 C 10.378906 20.347656 11.460938 20.210938 12.097656 19.652344 C 12.398438 19.386719 12.664062 19.148438 12.832031 18.882812 C 12.945312 18.699219 13.148438 18.398438 13.320312 18.082031 C 13.445312 17.859375 13.640625 17.332031 13.738281 16.816406 L 13.726562 16.8125 C 13.835938 16.445312 13.84375 15.765625 13.804688 15.179688 Z M 13.804688 15.179688 "/>
<path fill-rule="nonzero" fill="rgb(100%, 100%, 100%)" fill-opacity="1" d="M 18.367188 17.300781 C 18.234375 16.921875 18.109375 16.59375 17.921875 16.339844 C 17.792969 16.164062 17.585938 15.867188 17.355469 15.589844 C 17.195312 15.390625 16.773438 15.015625 16.332031 14.734375 L 16.324219 14.746094 C 16.019531 14.511719 15.394531 14.253906 14.832031 14.078125 C 14.246094 13.890625 13.847656 13.863281 13.742188 13.886719 C 13.789062 13.882812 13.839844 13.882812 13.90625 13.902344 C 14.265625 14.007812 14.765625 14.316406 15.011719 14.585938 C 15.492188 15.113281 15.683594 15.601562 15.875 16.214844 C 15.925781 16.371094 15.867188 16.46875 15.785156 16.46875 C 15.785156 16.46875 15.785156 16.472656 15.78125 16.472656 C 15.777344 16.472656 15.777344 16.46875 15.777344 16.46875 C 15.71875 16.460938 15.65625 16.417969 15.613281 16.289062 C 15.5 15.964844 15.214844 15.160156 14.78125 14.746094 C 14.378906 14.367188 14.0625 14.195312 13.777344 14.113281 C 13.722656 14.101562 13.695312 14.078125 13.667969 14.054688 C 13.664062 14.058594 13.660156 14.058594 13.65625 14.0625 L 13.761719 14.125 C 13.910156 14.207031 14.152344 14.394531 14.328125 14.636719 C 14.429688 14.773438 14.535156 14.902344 14.554688 15.074219 C 14.585938 15.359375 14.496094 15.589844 14.375 15.835938 C 14.292969 16 14.238281 16.1875 14.171875 16.34375 C 13.882812 17.050781 14.175781 17.839844 14.378906 18.097656 L 14.535156 18.289062 C 14.574219 18.371094 14.75 18.546875 14.980469 18.6875 C 15.152344 18.792969 15.359375 18.867188 15.523438 18.921875 C 15.609375 18.949219 15.675781 19 15.730469 19.023438 C 15.929688 19.117188 16.054688 19.292969 16.132812 19.40625 C 16.226562 19.539062 16.21875 19.566406 16.226562 19.65625 C 16.230469 19.726562 16.246094 19.820312 16.183594 19.945312 C 16.136719 20.035156 15.960938 20.144531 15.828125 20.164062 C 15.714844 20.179688 15.699219 20.195312 15.640625 20.203125 C 15.585938 20.210938 15.441406 20.226562 15.464844 20.246094 C 15.546875 20.3125 16.074219 20.433594 16.542969 20.367188 C 17.050781 20.296875 17.539062 20.105469 17.921875 19.675781 C 18.386719 19.152344 18.65625 18.101562 18.367188 17.300781 Z M 18.367188 17.300781 "/>
<path fill-rule="nonzero" fill="rgb(100%, 100%, 100%)" fill-opacity="1" d="M 20.257812 11.300781 C 19.886719 10.710938 18.945312 10.164062 18.097656 10.21875 C 17.703125 10.246094 17.347656 10.273438 17.054688 10.382812 C 16.847656 10.457031 16.503906 10.578125 16.175781 10.71875 C 15.941406 10.820312 15.464844 11.121094 15.074219 11.472656 L 15.082031 11.480469 C 14.769531 11.707031 14.351562 12.238281 14.027344 12.730469 C 13.683594 13.246094 13.554688 13.609375 13.550781 13.714844 C 13.5625 13.671875 13.570312 13.628906 13.605469 13.574219 C 13.804688 13.257812 14.234375 12.859375 14.558594 12.695312 C 15.199219 12.378906 15.71875 12.324219 16.363281 12.304688 C 16.527344 12.300781 16.601562 12.382812 16.585938 12.457031 C 16.582031 12.46875 16.574219 12.480469 16.566406 12.492188 C 16.535156 12.535156 16.480469 12.574219 16.363281 12.578125 C 16.023438 12.597656 15.167969 12.652344 14.652344 12.960938 C 14.179688 13.246094 13.925781 13.503906 13.773438 13.757812 C 13.742188 13.804688 13.714844 13.828125 13.683594 13.847656 C 13.6875 13.851562 13.683594 13.855469 13.6875 13.859375 L 13.777344 13.773438 C 13.898438 13.652344 14.144531 13.472656 14.425781 13.367188 C 14.585938 13.308594 14.738281 13.242188 14.910156 13.269531 C 15.191406 13.320312 15.390625 13.46875 15.589844 13.652344 C 15.726562 13.777344 15.890625 13.882812 16.023438 13.988281 C 16.625 14.460938 17.464844 14.398438 17.769531 14.273438 L 17.996094 14.175781 C 18.082031 14.160156 18.300781 14.039062 18.496094 13.859375 C 18.644531 13.722656 18.773438 13.542969 18.871094 13.398438 C 18.921875 13.324219 18.988281 13.273438 19.027344 13.230469 C 19.171875 13.0625 19.378906 12.992188 19.507812 12.945312 C 19.660156 12.894531 19.683594 12.910156 19.773438 12.925781 C 19.84375 12.941406 19.933594 12.949219 20.039062 13.046875 C 20.113281 13.117188 20.167969 13.316406 20.148438 13.453125 C 20.132812 13.566406 20.148438 13.582031 20.136719 13.640625 C 20.128906 13.695312 20.105469 13.835938 20.128906 13.820312 C 20.210938 13.761719 20.476562 13.285156 20.542969 12.820312 C 20.613281 12.3125 20.5625 11.785156 20.257812 11.300781 Z M 20.257812 11.300781 "/>
<path fill-rule="nonzero" fill="rgb(87.057495%, 16.078186%, 6.274414%)" fill-opacity="1" d="M 13.34375 9.464844 L 13.066406 9.878906 L 12.597656 9.765625 L 12.585938 9.765625 L 12.894531 10.152344 L 12.644531 10.566406 L 12.636719 10.578125 L 13.101562 10.40625 L 13.425781 10.78125 L 13.40625 10.285156 L 13.851562 10.097656 L 13.863281 10.089844 L 13.382812 9.957031 Z M 9.910156 12.507812 L 9.90625 12.496094 L 9.648438 12.921875 L 9.160156 12.828125 L 9.484375 13.203125 L 9.253906 13.625 L 9.246094 13.636719 L 9.703125 13.445312 L 10.035156 13.796875 L 10.042969 13.808594 L 10.003906 13.3125 L 10.441406 13.105469 L 10.453125 13.101562 L 9.96875 12.988281 Z M 17.667969 12.363281 L 17.1875 12.242188 L 17.132812 11.746094 L 16.871094 12.167969 L 16.398438 12.066406 L 16.382812 12.066406 L 16.699219 12.449219 L 16.457031 12.867188 L 16.453125 12.878906 L 16.914062 12.695312 L 17.238281 13.054688 L 17.246094 13.0625 L 17.214844 12.566406 L 17.65625 12.371094 Z M 11.789062 16.550781 L 11.789062 16.539062 L 11.53125 16.964844 L 11.058594 16.878906 L 11.046875 16.875 L 11.371094 17.25 L 11.140625 17.675781 L 11.136719 17.6875 L 11.59375 17.492188 L 11.925781 17.839844 L 11.933594 17.851562 L 11.890625 17.355469 L 12.324219 17.148438 L 12.335938 17.140625 L 11.851562 17.03125 Z M 16.121094 16.171875 L 16.121094 16.160156 L 15.839844 16.570312 L 15.371094 16.453125 L 15.359375 16.449219 L 15.664062 16.84375 L 15.40625 17.253906 L 15.402344 17.265625 L 15.867188 17.097656 L 16.175781 17.464844 L 16.1875 17.476562 L 16.171875 16.980469 L 16.621094 16.800781 L 16.632812 16.792969 L 16.15625 16.65625 Z M 16.121094 16.171875 "/>
</svg>
