<?xml version="1.0" encoding="UTF-8"?>
<svg xmlns="http://www.w3.org/2000/svg" xmlns:xlink="http://www.w3.org/1999/xlink" width="27pt" height="27pt" viewBox="0 0 27 27">
<path fill-rule="nonzero" fill="rgb(93.331909%, 93.331909%, 93.331909%)" fill-opacity="1" d="M 0 9.675781 L 27 9.675781 L 27 17.324219 L 0 17.324219 Z M 0 9.675781 "/>
<path fill-rule="nonzero" fill="rgb(9.01947%, 9.01947%, 58.822632%)" fill-opacity="1" d="M 27 20.25 C 27 21.90625 25.65625 23.25 24 23.25 L 3 23.25 C 1.34375 23.25 0 21.90625 0 20.25 L 0 17.25 L 27 17.25 Z M 27 20.25 "/>
<path fill-rule="nonzero" fill="rgb(83.528137%, 16.862488%, 11.764526%)" fill-opacity="1" d="M 24 3.75 L 3 3.75 C 1.34375 3.75 0 5.09375 0 6.75 L 0 9.75 L 27 9.75 L 27 6.75 C 27 5.09375 25.65625 3.75 24 3.75 Z M 24 3.75 "/>
<path fill-rule="nonzero" fill="rgb(83.528137%, 16.862488%, 11.764526%)" fill-opacity="1" d="M 8.558594 5.578125 L 8.558594 14.226562 C 8.558594 16.957031 10.769531 19.171875 13.5 19.171875 C 16.230469 19.171875 18.441406 16.957031 18.441406 14.226562 L 18.441406 5.578125 Z M 8.558594 5.578125 "/>
<path fill-rule="nonzero" fill="rgb(100%, 100%, 100%)" fill-opacity="1" d="M 10.6875 13.5 L 12.5625 13.5 L 12.5625 15.375 L 10.6875 15.375 Z M 12.5625 15.375 L 14.4375 15.375 L 14.4375 17.25 L 12.5625 17.25 Z M 12.5625 11.625 L 14.4375 11.625 L 14.4375 13.5 L 12.5625 13.5 Z M 14.4375 13.5 L 16.3125 13.5 L 16.3125 15.375 L 14.4375 15.375 Z M 14.4375 9.75 L 16.3125 9.75 L 16.3125 11.625 L 14.4375 11.625 Z M 16.3125 11.625 L 18.066406 11.625 L 18.066406 13.5 L 16.3125 13.5 Z M 10.6875 9.75 L 12.5625 9.75 L 12.5625 11.625 L 10.6875 11.625 Z M 16.3125 17.25 L 16.917969 17.25 C 17.386719 16.71875 17.734375 16.082031 17.917969 15.375 L 16.3125 15.375 Z M 14.4375 17.25 L 14.4375 18.699219 C 15.132812 18.550781 15.769531 18.246094 16.3125 17.820312 L 16.3125 17.25 Z M 10.6875 17.25 L 10.6875 15.375 L 9.082031 15.375 C 9.265625 16.082031 9.613281 16.71875 10.082031 17.25 Z M 8.933594 11.625 L 10.6875 11.625 L 10.6875 13.5 L 8.933594 13.5 Z M 10.6875 17.25 L 10.6875 17.820312 C 11.230469 18.246094 11.867188 18.550781 12.5625 18.699219 L 12.5625 17.25 Z M 10.6875 17.25 "/>
<path fill-rule="nonzero" fill="rgb(9.01947%, 9.01947%, 58.822632%)" fill-opacity="1" d="M 18.566406 6.105469 L 17.070312 6.699219 L 16.074219 5.4375 L 14.703125 6.28125 L 13.5 5.210938 L 12.296875 6.28125 L 10.929688 5.4375 L 9.929688 6.699219 L 8.433594 6.105469 L 7.59375 7.664062 L 8.589844 9.8125 L 8.722656 9.75 C 9.308594 9.476562 9.925781 9.253906 10.554688 9.085938 L 10.585938 9.074219 C 11.226562 8.90625 11.859375 8.792969 12.476562 8.738281 L 12.523438 8.734375 C 13.054688 8.6875 13.945312 8.6875 14.476562 8.734375 L 14.519531 8.738281 C 15.136719 8.792969 15.777344 8.90625 16.421875 9.078125 L 16.445312 9.082031 C 17.074219 9.253906 17.691406 9.476562 18.277344 9.75 L 18.40625 9.8125 L 19.40625 7.664062 Z M 18.566406 6.105469 "/>
<path fill-rule="nonzero" fill="rgb(0.392151%, 57.646179%, 86.665344%)" fill-opacity="1" d="M 12.476562 6.511719 L 12.644531 8.433594 C 12.890625 8.414062 13.191406 8.394531 13.5 8.394531 C 13.808594 8.394531 14.109375 8.414062 14.355469 8.433594 L 14.523438 6.511719 L 13.5 5.601562 Z M 18.433594 6.472656 L 17.160156 6.976562 L 16.660156 8.84375 C 17.207031 8.996094 17.746094 9.195312 18.269531 9.425781 L 19.082031 7.675781 Z M 8.566406 6.46875 L 7.917969 7.675781 L 8.730469 9.425781 C 9.25 9.195312 9.789062 8.996094 10.339844 8.839844 L 9.835938 6.972656 Z M 8.566406 6.46875 "/>
</svg>
