<?xml version="1.0" encoding="UTF-8"?>
<svg xmlns="http://www.w3.org/2000/svg" xmlns:xlink="http://www.w3.org/1999/xlink" width="27pt" height="27pt" viewBox="0 0 27 27">
<path fill-rule="nonzero" fill="rgb(92.939758%, 92.547607%, 92.547607%)" fill-opacity="1" d="M 15.5 14.25 L 15.148438 14.855469 L 15.851562 14.855469 Z M 13.5 16.214844 L 13.851562 15.605469 L 13.148438 15.605469 Z M 13.5 16.214844 "/>
<path fill-rule="nonzero" fill="rgb(93.331909%, 93.331909%, 93.331909%)" fill-opacity="1" d="M 0 18.75 L 27 18.75 L 27 8.25 L 0 8.25 Z M 0.21875 5.625 L 26.78125 5.625 C 26.335938 4.527344 25.257812 3.75 24 3.75 L 3 3.75 C 1.742188 3.75 0.664062 4.527344 0.21875 5.625 Z M 0.21875 5.625 "/>
<path fill-rule="nonzero" fill="rgb(92.939758%, 92.547607%, 92.547607%)" fill-opacity="1" d="M 15.851562 12.144531 L 15.148438 12.144531 L 15.5 12.75 Z M 11.851562 12.144531 L 11.148438 12.144531 L 11.5 12.75 Z M 14.28125 14.855469 L 15.066406 13.5 L 14.28125 12.144531 L 12.71875 12.144531 L 11.933594 13.5 L 12.71875 14.855469 Z M 11.5 14.25 L 11.148438 14.855469 L 11.851562 14.855469 Z M 13.5 10.785156 L 13.148438 11.394531 L 13.851562 11.394531 Z M 13.5 10.785156 "/>
<path fill-rule="nonzero" fill="rgb(0%, 21.960449%, 72.155762%)" fill-opacity="1" d="M 0.21875 5.625 C 0.078125 5.972656 0 6.351562 0 6.75 L 0 8.25 L 27 8.25 L 27 6.75 C 27 6.351562 26.921875 5.972656 26.78125 5.625 Z M 0.21875 5.625 "/>
<path fill-rule="nonzero" fill="rgb(93.331909%, 93.331909%, 93.331909%)" fill-opacity="1" d="M 0.21875 21.375 L 26.78125 21.375 C 26.335938 22.472656 25.257812 23.25 24 23.25 L 3 23.25 C 1.742188 23.25 0.664062 22.472656 0.21875 21.375 Z M 0.21875 21.375 "/>
<path fill-rule="nonzero" fill="rgb(0%, 21.960449%, 72.155762%)" fill-opacity="1" d="M 0.21875 21.375 C 0.078125 21.027344 0 20.648438 0 20.25 L 0 18.75 L 27 18.75 L 27 20.25 C 27 20.648438 26.921875 21.027344 26.78125 21.375 Z M 12.285156 15.605469 L 13.5 17.714844 L 14.714844 15.605469 L 17.148438 15.605469 L 15.933594 13.5 L 17.148438 11.394531 L 14.71875 11.394531 L 13.5 9.285156 L 12.285156 11.394531 L 9.851562 11.394531 L 11.066406 13.5 L 9.851562 15.605469 Z M 13.5 16.214844 L 13.148438 15.605469 L 13.851562 15.605469 Z M 15.851562 12.144531 L 15.5 12.75 L 15.148438 12.144531 Z M 15.5 14.25 L 15.851562 14.855469 L 15.148438 14.855469 Z M 13.5 10.785156 L 13.851562 11.394531 L 13.148438 11.394531 Z M 12.71875 12.144531 L 14.285156 12.144531 L 15.066406 13.5 L 14.285156 14.855469 L 12.71875 14.855469 L 11.933594 13.5 Z M 11.851562 12.144531 L 11.5 12.75 L 11.148438 12.144531 Z M 11.5 14.25 L 11.851562 14.855469 L 11.148438 14.855469 Z M 11.5 14.25 "/>
</svg>
