<?xml version="1.0" encoding="UTF-8"?>
<svg xmlns="http://www.w3.org/2000/svg" xmlns:xlink="http://www.w3.org/1999/xlink" width="27pt" height="27pt" viewBox="0 0 27 27">
<path fill-rule="nonzero" fill="rgb(7.450867%, 53.33252%, 3.137207%)" fill-opacity="1" d="M 0 20.25 C 0 21.90625 1.34375 23.25 3 23.25 L 24 23.25 C 25.65625 23.25 27 21.90625 27 20.25 L 27 16.5 L 0 16.5 Z M 0 20.25 "/>
<path fill-rule="nonzero" fill="rgb(100%, 59.999084%, 19.999695%)" fill-opacity="1" d="M 27 10.5 L 27 6.75 C 27 5.09375 25.65625 3.75 24 3.75 L 3 3.75 C 1.34375 3.75 0 5.09375 0 6.75 L 0 10.5 Z M 27 10.5 "/>
<path fill-rule="nonzero" fill="rgb(96.861267%, 96.861267%, 96.861267%)" fill-opacity="1" d="M 0 10.25 L 27 10.25 L 27 16.75 L 0 16.75 Z M 0 10.25 "/>
<path fill-rule="nonzero" fill="rgb(0%, 0%, 50.195312%)" fill-opacity="1" d="M 16.5 13.5 C 16.5 15.15625 15.15625 16.5 13.5 16.5 C 11.84375 16.5 10.5 15.15625 10.5 13.5 C 10.5 11.84375 11.84375 10.5 13.5 10.5 C 15.15625 10.5 16.5 11.84375 16.5 13.5 Z M 16.5 13.5 "/>
<path fill-rule="nonzero" fill="rgb(96.861267%, 96.861267%, 96.861267%)" fill-opacity="1" d="M 16.03125 13.5 C 16.03125 14.898438 14.898438 16.03125 13.5 16.03125 C 12.101562 16.03125 10.96875 14.898438 10.96875 13.5 C 10.96875 12.101562 12.101562 10.96875 13.5 10.96875 C 14.898438 10.96875 16.03125 12.101562 16.03125 13.5 Z M 16.03125 13.5 "/>
<path fill-rule="nonzero" fill="rgb(39.99939%, 39.99939%, 70.195007%)" fill-opacity="1" d="M 13.574219 12.5625 L 13.5 13.050781 L 13.425781 12.5625 L 13.5 11.101562 Z M 12.878906 11.183594 L 13.183594 12.613281 L 13.382812 13.066406 L 13.328125 12.574219 Z M 12.300781 11.421875 L 12.964844 12.726562 L 13.273438 13.109375 L 13.097656 12.648438 Z M 11.804688 11.804688 L 12.785156 12.890625 L 13.183594 13.183594 L 12.890625 12.785156 Z M 11.421875 12.300781 L 12.648438 13.097656 L 13.109375 13.273438 L 12.726562 12.964844 Z M 11.183594 12.878906 L 12.574219 13.328125 L 13.066406 13.382812 L 12.613281 13.183594 Z M 11.101562 13.5 L 12.5625 13.574219 L 13.050781 13.5 L 12.5625 13.425781 Z M 11.183594 14.121094 L 12.613281 13.816406 L 13.066406 13.617188 L 12.574219 13.671875 Z M 11.421875 14.699219 L 12.726562 14.035156 L 13.109375 13.726562 L 12.648438 13.902344 Z M 11.804688 15.195312 L 12.890625 14.214844 L 13.183594 13.816406 L 12.785156 14.109375 Z M 12.300781 15.578125 L 13.097656 14.351562 L 13.273438 13.890625 L 12.964844 14.273438 Z M 12.878906 15.816406 L 13.328125 14.425781 L 13.382812 13.933594 L 13.183594 14.386719 Z M 13.5 15.898438 L 13.574219 14.4375 L 13.5 13.949219 L 13.425781 14.4375 Z M 14.121094 15.816406 L 13.816406 14.386719 L 13.617188 13.933594 L 13.671875 14.425781 Z M 14.699219 15.578125 L 14.035156 14.273438 L 13.726562 13.890625 L 13.902344 14.351562 Z M 15.195312 15.195312 L 14.214844 14.109375 L 13.816406 13.816406 L 14.109375 14.214844 Z M 15.578125 14.699219 L 14.351562 13.902344 L 13.890625 13.726562 L 14.273438 14.035156 Z M 15.816406 14.121094 L 14.425781 13.671875 L 13.933594 13.617188 L 14.386719 13.816406 Z M 15.898438 13.5 L 14.4375 13.425781 L 13.949219 13.5 L 14.4375 13.574219 Z M 15.816406 12.878906 L 14.386719 13.183594 L 13.933594 13.382812 L 14.425781 13.328125 Z M 15.578125 12.300781 L 14.273438 12.964844 L 13.890625 13.273438 L 14.351562 13.097656 Z M 15.195312 11.804688 L 14.109375 12.785156 L 13.816406 13.183594 L 14.214844 12.890625 Z M 14.699219 11.421875 L 13.902344 12.648438 L 13.726562 13.109375 L 14.035156 12.726562 Z M 14.121094 11.183594 L 13.671875 12.574219 L 13.617188 13.066406 L 13.816406 12.613281 Z M 14.121094 11.183594 "/>
<path fill-rule="nonzero" fill="rgb(0%, 0%, 50.195312%)" fill-opacity="1" d="M 13.320312 10.996094 C 13.320312 11.078125 13.253906 11.144531 13.171875 11.144531 C 13.085938 11.144531 13.019531 11.078125 13.019531 10.996094 C 13.019531 10.910156 13.085938 10.84375 13.171875 10.84375 C 13.253906 10.84375 13.320312 10.910156 13.320312 10.996094 Z M 13.320312 10.996094 "/>
<path fill-rule="nonzero" fill="rgb(0%, 0%, 50.195312%)" fill-opacity="1" d="M 12.683594 11.164062 C 12.683594 11.25 12.617188 11.316406 12.53125 11.316406 C 12.449219 11.316406 12.382812 11.25 12.382812 11.164062 C 12.382812 11.082031 12.449219 11.015625 12.53125 11.015625 C 12.617188 11.015625 12.683594 11.082031 12.683594 11.164062 Z M 12.683594 11.164062 "/>
<path fill-rule="nonzero" fill="rgb(0%, 0%, 50.195312%)" fill-opacity="1" d="M 12.109375 11.496094 C 12.109375 11.578125 12.042969 11.644531 11.960938 11.644531 C 11.878906 11.644531 11.8125 11.578125 11.8125 11.496094 C 11.8125 11.410156 11.878906 11.34375 11.960938 11.34375 C 12.042969 11.34375 12.109375 11.410156 12.109375 11.496094 Z M 12.109375 11.496094 "/>
<path fill-rule="nonzero" fill="rgb(0%, 0%, 50.195312%)" fill-opacity="1" d="M 11.644531 11.960938 C 11.644531 12.042969 11.578125 12.109375 11.496094 12.109375 C 11.410156 12.109375 11.34375 12.042969 11.34375 11.960938 C 11.34375 11.878906 11.410156 11.8125 11.496094 11.8125 C 11.578125 11.8125 11.644531 11.878906 11.644531 11.960938 Z M 11.644531 11.960938 "/>
<path fill-rule="nonzero" fill="rgb(0%, 0%, 50.195312%)" fill-opacity="1" d="M 11.316406 12.53125 C 11.316406 12.617188 11.25 12.683594 11.164062 12.683594 C 11.082031 12.683594 11.015625 12.617188 11.015625 12.53125 C 11.015625 12.449219 11.082031 12.382812 11.164062 12.382812 C 11.25 12.382812 11.316406 12.449219 11.316406 12.53125 Z M 11.316406 12.53125 "/>
<path fill-rule="nonzero" fill="rgb(0%, 0%, 50.195312%)" fill-opacity="1" d="M 11.144531 13.171875 C 11.144531 13.253906 11.078125 13.320312 10.996094 13.320312 C 10.910156 13.320312 10.84375 13.253906 10.84375 13.171875 C 10.84375 13.085938 10.910156 13.019531 10.996094 13.019531 C 11.078125 13.019531 11.144531 13.085938 11.144531 13.171875 Z M 11.144531 13.171875 "/>
<path fill-rule="nonzero" fill="rgb(0%, 0%, 50.195312%)" fill-opacity="1" d="M 11.144531 13.828125 C 11.144531 13.914062 11.078125 13.980469 10.996094 13.980469 C 10.910156 13.980469 10.84375 13.914062 10.84375 13.828125 C 10.84375 13.746094 10.910156 13.679688 10.996094 13.679688 C 11.078125 13.679688 11.144531 13.746094 11.144531 13.828125 Z M 11.144531 13.828125 "/>
<path fill-rule="nonzero" fill="rgb(0%, 0%, 50.195312%)" fill-opacity="1" d="M 11.316406 14.46875 C 11.316406 14.550781 11.25 14.617188 11.164062 14.617188 C 11.082031 14.617188 11.015625 14.550781 11.015625 14.46875 C 11.015625 14.382812 11.082031 14.316406 11.164062 14.316406 C 11.25 14.316406 11.316406 14.382812 11.316406 14.46875 Z M 11.316406 14.46875 "/>
<path fill-rule="nonzero" fill="rgb(0%, 0%, 50.195312%)" fill-opacity="1" d="M 11.644531 15.039062 C 11.644531 15.121094 11.578125 15.1875 11.496094 15.1875 C 11.410156 15.1875 11.34375 15.121094 11.34375 15.039062 C 11.34375 14.957031 11.410156 14.890625 11.496094 14.890625 C 11.578125 14.890625 11.644531 14.957031 11.644531 15.039062 Z M 11.644531 15.039062 "/>
<path fill-rule="nonzero" fill="rgb(0%, 0%, 50.195312%)" fill-opacity="1" d="M 12.109375 15.503906 C 12.109375 15.589844 12.042969 15.65625 11.960938 15.65625 C 11.878906 15.65625 11.8125 15.589844 11.8125 15.503906 C 11.8125 15.421875 11.878906 15.355469 11.960938 15.355469 C 12.042969 15.355469 12.109375 15.421875 12.109375 15.503906 Z M 12.109375 15.503906 "/>
<path fill-rule="nonzero" fill="rgb(0%, 0%, 50.195312%)" fill-opacity="1" d="M 12.683594 15.835938 C 12.683594 15.917969 12.617188 15.984375 12.53125 15.984375 C 12.449219 15.984375 12.382812 15.917969 12.382812 15.835938 C 12.382812 15.75 12.449219 15.683594 12.53125 15.683594 C 12.617188 15.683594 12.683594 15.75 12.683594 15.835938 Z M 12.683594 15.835938 "/>
<path fill-rule="nonzero" fill="rgb(0%, 0%, 50.195312%)" fill-opacity="1" d="M 13.320312 16.003906 C 13.320312 16.089844 13.253906 16.15625 13.171875 16.15625 C 13.085938 16.15625 13.019531 16.089844 13.019531 16.003906 C 13.019531 15.921875 13.085938 15.855469 13.171875 15.855469 C 13.253906 15.855469 13.320312 15.921875 13.320312 16.003906 Z M 13.320312 16.003906 "/>
<path fill-rule="nonzero" fill="rgb(0%, 0%, 50.195312%)" fill-opacity="1" d="M 13.980469 16.003906 C 13.980469 16.089844 13.914062 16.15625 13.828125 16.15625 C 13.746094 16.15625 13.679688 16.089844 13.679688 16.003906 C 13.679688 15.921875 13.746094 15.855469 13.828125 15.855469 C 13.914062 15.855469 13.980469 15.921875 13.980469 16.003906 Z M 13.980469 16.003906 "/>
<path fill-rule="nonzero" fill="rgb(0%, 0%, 50.195312%)" fill-opacity="1" d="M 14.617188 15.835938 C 14.617188 15.917969 14.550781 15.984375 14.46875 15.984375 C 14.382812 15.984375 14.316406 15.917969 14.316406 15.835938 C 14.316406 15.75 14.382812 15.683594 14.46875 15.683594 C 14.550781 15.683594 14.617188 15.75 14.617188 15.835938 Z M 14.617188 15.835938 "/>
<path fill-rule="nonzero" fill="rgb(0%, 0%, 50.195312%)" fill-opacity="1" d="M 15.1875 15.503906 C 15.1875 15.589844 15.121094 15.65625 15.039062 15.65625 C 14.957031 15.65625 14.890625 15.589844 14.890625 15.503906 C 14.890625 15.421875 14.957031 15.355469 15.039062 15.355469 C 15.121094 15.355469 15.1875 15.421875 15.1875 15.503906 Z M 15.1875 15.503906 "/>
<path fill-rule="nonzero" fill="rgb(0%, 0%, 50.195312%)" fill-opacity="1" d="M 15.65625 15.039062 C 15.65625 15.121094 15.589844 15.1875 15.503906 15.1875 C 15.421875 15.1875 15.355469 15.121094 15.355469 15.039062 C 15.355469 14.957031 15.421875 14.890625 15.503906 14.890625 C 15.589844 14.890625 15.65625 14.957031 15.65625 15.039062 Z M 15.65625 15.039062 "/>
<path fill-rule="nonzero" fill="rgb(0%, 0%, 50.195312%)" fill-opacity="1" d="M 15.984375 14.46875 C 15.984375 14.550781 15.917969 14.617188 15.835938 14.617188 C 15.75 14.617188 15.683594 14.550781 15.683594 14.46875 C 15.683594 14.382812 15.75 14.316406 15.835938 14.316406 C 15.917969 14.316406 15.984375 14.382812 15.984375 14.46875 Z M 15.984375 14.46875 "/>
<path fill-rule="nonzero" fill="rgb(0%, 0%, 50.195312%)" fill-opacity="1" d="M 16.15625 13.828125 C 16.15625 13.914062 16.089844 13.980469 16.003906 13.980469 C 15.921875 13.980469 15.855469 13.914062 15.855469 13.828125 C 15.855469 13.746094 15.921875 13.679688 16.003906 13.679688 C 16.089844 13.679688 16.15625 13.746094 16.15625 13.828125 Z M 16.15625 13.828125 "/>
<path fill-rule="nonzero" fill="rgb(0%, 0%, 50.195312%)" fill-opacity="1" d="M 16.15625 13.171875 C 16.15625 13.253906 16.089844 13.320312 16.003906 13.320312 C 15.921875 13.320312 15.855469 13.253906 15.855469 13.171875 C 15.855469 13.085938 15.921875 13.019531 16.003906 13.019531 C 16.089844 13.019531 16.15625 13.085938 16.15625 13.171875 Z M 16.15625 13.171875 "/>
<path fill-rule="nonzero" fill="rgb(0%, 0%, 50.195312%)" fill-opacity="1" d="M 15.984375 12.53125 C 15.984375 12.617188 15.917969 12.683594 15.835938 12.683594 C 15.75 12.683594 15.683594 12.617188 15.683594 12.53125 C 15.683594 12.449219 15.75 12.382812 15.835938 12.382812 C 15.917969 12.382812 15.984375 12.449219 15.984375 12.53125 Z M 15.984375 12.53125 "/>
<path fill-rule="nonzero" fill="rgb(0%, 0%, 50.195312%)" fill-opacity="1" d="M 15.65625 11.960938 C 15.65625 12.042969 15.589844 12.109375 15.503906 12.109375 C 15.421875 12.109375 15.355469 12.042969 15.355469 11.960938 C 15.355469 11.878906 15.421875 11.8125 15.503906 11.8125 C 15.589844 11.8125 15.65625 11.878906 15.65625 11.960938 Z M 15.65625 11.960938 "/>
<path fill-rule="nonzero" fill="rgb(0%, 0%, 50.195312%)" fill-opacity="1" d="M 15.1875 11.496094 C 15.1875 11.578125 15.121094 11.644531 15.039062 11.644531 C 14.957031 11.644531 14.890625 11.578125 14.890625 11.496094 C 14.890625 11.410156 14.957031 11.34375 15.039062 11.34375 C 15.121094 11.34375 15.1875 11.410156 15.1875 11.496094 Z M 15.1875 11.496094 "/>
<path fill-rule="nonzero" fill="rgb(0%, 0%, 50.195312%)" fill-opacity="1" d="M 14.617188 11.164062 C 14.617188 11.25 14.550781 11.316406 14.46875 11.316406 C 14.382812 11.316406 14.316406 11.25 14.316406 11.164062 C 14.316406 11.082031 14.382812 11.015625 14.46875 11.015625 C 14.550781 11.015625 14.617188 11.082031 14.617188 11.164062 Z M 14.617188 11.164062 "/>
<path fill-rule="nonzero" fill="rgb(0%, 0%, 50.195312%)" fill-opacity="1" d="M 13.980469 10.996094 C 13.980469 11.078125 13.914062 11.144531 13.828125 11.144531 C 13.746094 11.144531 13.679688 11.078125 13.679688 10.996094 C 13.679688 10.910156 13.746094 10.84375 13.828125 10.84375 C 13.914062 10.84375 13.980469 10.910156 13.980469 10.996094 Z M 13.980469 10.996094 "/>
<path fill-rule="nonzero" fill="rgb(0%, 0%, 50.195312%)" fill-opacity="1" d="M 14.175781 13.5 C 14.175781 13.871094 13.871094 14.175781 13.5 14.175781 C 13.128906 14.175781 12.824219 13.871094 12.824219 13.5 C 12.824219 13.128906 13.128906 12.824219 13.5 12.824219 C 13.871094 12.824219 14.175781 13.128906 14.175781 13.5 Z M 14.175781 13.5 "/>
</svg>
