<?xml version="1.0" encoding="UTF-8"?>
<svg xmlns="http://www.w3.org/2000/svg" xmlns:xlink="http://www.w3.org/1999/xlink" width="27pt" height="27pt" viewBox="0 0 27 27">
<path fill-rule="nonzero" fill="rgb(0%, 21.960449%, 59.214783%)" fill-opacity="1" d="M 7.5 3.75 L 3 3.75 C 1.34375 3.75 0 5.09375 0 6.75 L 0 11.25 L 7.5 11.25 Z M 24 3.75 L 12 3.75 L 12 11.25 L 27 11.25 L 27 6.75 C 27 5.09375 25.65625 3.75 24 3.75 Z M 7.5 23.25 L 3 23.25 C 1.34375 23.25 0 21.90625 0 20.25 L 0 15.75 L 7.5 15.75 Z M 24 23.25 L 12 23.25 L 12 15.75 L 27 15.75 L 27 20.25 C 27 21.90625 25.65625 23.25 24 23.25 Z M 24 23.25 "/>
<path fill-rule="nonzero" fill="rgb(84.312439%, 15.686035%, 15.686035%)" fill-opacity="1" d="M 10.875 3.75 L 8.667969 3.75 L 8.648438 12.375 L 0 12.375 L 0 14.625 L 8.644531 14.625 L 8.625 23.25 L 10.875 23.25 L 10.875 14.625 L 27 14.625 L 27 12.375 L 10.875 12.375 Z M 10.875 3.75 "/>
<path fill-rule="nonzero" fill="rgb(93.331909%, 93.331909%, 93.331909%)" fill-opacity="1" d="M 10.875 23.25 L 12 23.25 L 12 15.75 L 27 15.75 L 27 14.625 L 10.875 14.625 Z M 12 3.75 L 10.875 3.75 L 10.875 12.375 L 27 12.375 L 27 11.25 L 12 11.25 Z M 8.625 3.75 L 7.5 3.75 L 7.5 11.25 L 0 11.25 L 0 12.375 L 8.625 12.375 Z M 0 14.625 L 0 15.75 L 7.5 15.75 L 7.5 23.25 L 8.625 23.25 L 8.625 14.625 Z M 0 14.625 "/>
</svg>
