<?xml version="1.0" encoding="UTF-8"?>
<svg xmlns="http://www.w3.org/2000/svg" xmlns:xlink="http://www.w3.org/1999/xlink" width="27pt" height="27pt" viewBox="0 0 27 27">
<path fill-rule="nonzero" fill="rgb(93.331909%, 93.331909%, 93.331909%)" fill-opacity="1" d="M 27 20.25 C 27 21.90625 25.65625 23.25 24 23.25 L 3 23.25 C 1.34375 23.25 0 21.90625 0 20.25 L 0 6.75 C 0 5.09375 1.34375 3.75 3 3.75 L 24 3.75 C 25.65625 3.75 27 5.09375 27 6.75 Z M 27 20.25 "/>
<path fill-rule="nonzero" fill="rgb(92.939758%, 10.588074%, 18.431091%)" fill-opacity="1" d="M 18.75 13.5 C 18.75 16.398438 16.398438 18.75 13.5 18.75 C 10.601562 18.75 8.25 16.398438 8.25 13.5 C 8.25 10.601562 10.601562 8.25 13.5 8.25 C 16.398438 8.25 18.75 10.601562 18.75 13.5 Z M 18.75 13.5 "/>
</svg>
