<?xml version="1.0" encoding="UTF-8"?>
<svg xmlns="http://www.w3.org/2000/svg" xmlns:xlink="http://www.w3.org/1999/xlink" width="27pt" height="27pt" viewBox="0 0 27 27">
<path fill-rule="nonzero" fill="rgb(93.331909%, 93.331909%, 93.331909%)" fill-opacity="1" d="M 27 20.25 C 27 21.90625 25.65625 23.25 24 23.25 L 3 23.25 C 1.34375 23.25 0 21.90625 0 20.25 L 0 6.75 C 0 5.09375 1.34375 3.75 3 3.75 L 24 3.75 C 25.65625 3.75 27 5.09375 27 6.75 Z M 27 20.25 "/>
<path fill-rule="nonzero" fill="rgb(77.645874%, 4.705811%, 18.823242%)" fill-opacity="1" d="M 16.082031 9.8125 C 14.046875 8.390625 11.238281 8.882812 9.8125 10.917969 C 9.101562 11.9375 9.347656 13.339844 10.367188 14.054688 C 11.382812 14.765625 12.789062 14.515625 13.5 13.5 C 14.210938 12.484375 15.617188 12.234375 16.632812 12.949219 C 17.652344 13.660156 17.898438 15.0625 17.1875 16.082031 C 18.613281 14.046875 18.117188 11.242188 16.082031 9.8125 Z M 16.082031 9.8125 "/>
<path fill-rule="nonzero" fill="rgb(0%, 20.391846%, 47.058105%)" fill-opacity="1" d="M 16.632812 12.949219 C 15.617188 12.234375 14.210938 12.484375 13.5 13.5 C 12.789062 14.515625 11.382812 14.765625 10.367188 14.054688 C 9.347656 13.339844 9.101562 11.9375 9.8125 10.917969 C 8.386719 12.957031 8.882812 15.761719 10.917969 17.183594 C 12.953125 18.609375 15.757812 18.117188 17.183594 16.078125 C 17.898438 15.0625 17.652344 13.660156 16.632812 12.949219 Z M 16.632812 12.949219 "/>
<path fill-rule="nonzero" fill="rgb(16.078186%, 18.431091%, 19.999695%)" fill-opacity="1" d="M 18.25 19.179688 L 19.695312 17.457031 L 20.269531 17.9375 L 18.824219 19.660156 Z M 20.179688 16.882812 L 21.625 15.160156 L 22.199219 15.640625 L 20.753906 17.363281 Z M 19.398438 20.144531 L 20.84375 18.421875 L 21.421875 18.90625 L 19.972656 20.628906 Z M 21.328125 17.84375 L 22.777344 16.121094 L 23.351562 16.605469 L 21.902344 18.328125 Z M 20.546875 21.109375 L 21.996094 19.386719 L 22.570312 19.867188 L 21.121094 21.589844 Z M 22.476562 18.8125 L 23.921875 17.085938 L 24.496094 17.566406 L 23.050781 19.292969 Z M 22.480469 8.1875 L 23.054688 7.707031 L 24.5 9.429688 L 23.925781 9.914062 Z M 20.550781 5.890625 L 21.125 5.40625 L 22.570312 7.132812 L 21.996094 7.613281 Z M 19.398438 6.855469 L 19.976562 6.375 L 23.351562 10.394531 L 22.773438 10.878906 Z M 18.25 7.820312 L 18.828125 7.335938 L 20.273438 9.058594 L 19.695312 9.542969 Z M 20.179688 10.117188 L 20.753906 9.636719 L 22.199219 11.359375 L 21.628906 11.839844 Z M 4.800781 15.640625 L 5.375 15.160156 L 8.75 19.179688 L 8.171875 19.664062 Z M 3.652344 16.605469 L 4.226562 16.125 L 5.671875 17.847656 L 5.097656 18.328125 Z M 5.578125 18.90625 L 6.152344 18.421875 L 7.601562 20.144531 L 7.023438 20.628906 Z M 2.503906 17.570312 L 3.078125 17.085938 L 6.453125 21.109375 L 5.875 21.589844 Z M 2.5 9.429688 L 5.875 5.410156 L 6.449219 5.890625 L 3.074219 9.910156 Z M 3.648438 10.394531 L 7.023438 6.371094 L 7.601562 6.855469 L 4.226562 10.875 Z M 4.800781 11.359375 L 8.175781 7.335938 L 8.75 7.820312 L 5.375 11.839844 Z M 4.800781 11.359375 "/>
</svg>
