<?xml version="1.0" encoding="UTF-8"?>
<svg xmlns="http://www.w3.org/2000/svg" xmlns:xlink="http://www.w3.org/1999/xlink" width="27pt" height="27pt" viewBox="0 0 27 27">
<path fill-rule="nonzero" fill="rgb(0%, 68.626404%, 79.214478%)" fill-opacity="1" d="M 27 20.25 C 27 21.90625 25.65625 23.25 24 23.25 L 3 23.25 C 1.34375 23.25 0 21.90625 0 20.25 L 0 6.75 C 0 5.09375 1.34375 3.75 3 3.75 L 24 3.75 C 25.65625 3.75 27 5.09375 27 6.75 Z M 27 20.25 "/>
<path fill-rule="nonzero" fill="rgb(100%, 79.998779%, 30.195618%)" fill-opacity="1" d="M 16.425781 12.382812 C 16.425781 13.570312 15.464844 14.535156 14.277344 14.535156 C 13.089844 14.535156 12.128906 13.570312 12.128906 12.382812 C 12.128906 11.199219 13.089844 10.234375 14.277344 10.234375 C 15.464844 10.234375 16.425781 11.199219 16.425781 12.382812 Z M 16.425781 12.382812 "/>
<path fill-rule="nonzero" fill="rgb(100%, 79.998779%, 30.195618%)" fill-opacity="1" d="M 14.277344 10.074219 C 14.40625 10.074219 14.453125 9.992188 14.453125 9.898438 C 14.453125 9.769531 14.277344 8.773438 14.277344 8.773438 C 14.277344 8.773438 14.101562 9.769531 14.101562 9.898438 C 14.101562 9.992188 14.148438 10.074219 14.277344 10.074219 Z M 14.277344 14.707031 C 14.148438 14.707031 14.101562 14.789062 14.101562 14.882812 C 14.101562 15.011719 14.277344 15.992188 14.277344 15.992188 C 14.277344 15.992188 14.453125 15.011719 14.453125 14.882812 C 14.453125 14.789062 14.40625 14.707031 14.277344 14.707031 Z M 13.675781 14.617188 C 13.554688 14.585938 13.488281 14.652344 13.464844 14.742188 C 13.429688 14.867188 13.339844 15.871094 13.339844 15.871094 C 13.339844 15.871094 13.769531 14.957031 13.800781 14.832031 C 13.828125 14.742188 13.800781 14.648438 13.675781 14.617188 Z M 14.878906 10.140625 C 15 10.171875 15.070312 10.109375 15.09375 10.015625 C 15.125 9.890625 15.210938 8.898438 15.210938 8.898438 C 15.210938 8.898438 14.789062 9.800781 14.753906 9.925781 C 14.730469 10.015625 14.753906 10.109375 14.878906 10.140625 Z M 13.121094 14.382812 C 13.007812 14.320312 12.929688 14.367188 12.878906 14.449219 C 12.816406 14.5625 12.46875 15.511719 12.46875 15.511719 C 12.46875 15.511719 13.121094 14.738281 13.183594 14.625 C 13.230469 14.542969 13.230469 14.449219 13.121094 14.382812 Z M 15.4375 10.371094 C 15.546875 10.433594 15.628906 10.390625 15.679688 10.304688 C 15.742188 10.195312 16.078125 9.257812 16.078125 9.257812 C 16.078125 9.257812 15.4375 10.019531 15.371094 10.132812 C 15.328125 10.214844 15.328125 10.308594 15.4375 10.371094 Z M 12.640625 14.015625 C 12.550781 13.929688 12.460938 13.953125 12.394531 14.019531 C 12.304688 14.109375 11.722656 14.9375 11.722656 14.9375 C 11.722656 14.9375 12.550781 14.355469 12.640625 14.269531 C 12.707031 14.199219 12.734375 14.109375 12.640625 14.015625 Z M 15.917969 10.738281 C 16.007812 10.832031 16.101562 10.808594 16.167969 10.738281 C 16.257812 10.648438 16.828125 9.832031 16.828125 9.832031 C 16.828125 9.832031 16.011719 10.402344 15.921875 10.492188 C 15.851562 10.558594 15.828125 10.648438 15.917969 10.738281 Z M 12.273438 13.539062 C 12.210938 13.429688 12.117188 13.429688 12.035156 13.476562 C 11.921875 13.539062 11.148438 14.1875 11.148438 14.1875 C 11.148438 14.1875 12.101562 13.84375 12.210938 13.78125 C 12.292969 13.734375 12.339844 13.648438 12.273438 13.539062 Z M 16.289062 11.222656 C 16.351562 11.332031 16.449219 11.335938 16.527344 11.285156 C 16.640625 11.222656 17.402344 10.578125 17.402344 10.578125 C 17.402344 10.578125 16.464844 10.917969 16.355469 10.980469 C 16.269531 11.03125 16.226562 11.109375 16.289062 11.222656 Z M 12.046875 12.980469 C 12.011719 12.859375 11.921875 12.835938 11.828125 12.859375 C 11.707031 12.890625 10.789062 13.316406 10.789062 13.316406 C 10.789062 13.316406 11.796875 13.230469 11.917969 13.199219 C 12.011719 13.171875 12.078125 13.105469 12.046875 12.980469 Z M 16.519531 11.78125 C 16.554688 11.90625 16.644531 11.929688 16.734375 11.90625 C 16.859375 11.875 17.761719 11.449219 17.761719 11.449219 C 17.761719 11.449219 16.769531 11.535156 16.644531 11.566406 C 16.554688 11.589844 16.488281 11.65625 16.519531 11.78125 Z M 11.964844 12.382812 C 11.964844 12.253906 11.882812 12.210938 11.789062 12.210938 C 11.660156 12.210938 10.667969 12.382812 10.667969 12.382812 C 10.667969 12.382812 11.660156 12.558594 11.789062 12.558594 C 11.882812 12.558594 11.964844 12.511719 11.964844 12.382812 Z M 16.601562 12.382812 C 16.601562 12.511719 16.679688 12.558594 16.777344 12.558594 C 16.902344 12.558594 17.886719 12.382812 17.886719 12.382812 C 17.886719 12.382812 16.902344 12.210938 16.777344 12.210938 C 16.679688 12.207031 16.601562 12.253906 16.601562 12.382812 Z M 12.046875 11.785156 C 12.078125 11.660156 12.011719 11.597656 11.917969 11.570312 C 11.796875 11.539062 10.789062 11.449219 10.789062 11.449219 C 10.789062 11.449219 11.707031 11.878906 11.828125 11.910156 C 11.921875 11.933594 12.011719 11.910156 12.046875 11.785156 Z M 16.519531 12.984375 C 16.488281 13.109375 16.554688 13.175781 16.644531 13.203125 C 16.769531 13.234375 17.761719 13.316406 17.761719 13.316406 C 17.761719 13.316406 16.859375 12.894531 16.734375 12.863281 C 16.644531 12.835938 16.554688 12.859375 16.519531 12.984375 Z M 12.277344 11.226562 C 12.339844 11.117188 12.292969 11.035156 12.210938 10.988281 C 12.097656 10.925781 11.148438 10.578125 11.148438 10.578125 C 11.148438 10.578125 11.921875 11.230469 12.035156 11.292969 C 12.117188 11.339844 12.210938 11.339844 12.277344 11.226562 Z M 16.289062 13.546875 C 16.226562 13.65625 16.269531 13.738281 16.355469 13.785156 C 16.464844 13.851562 17.402344 14.1875 17.402344 14.1875 C 17.402344 14.1875 16.640625 13.546875 16.527344 13.480469 C 16.445312 13.433594 16.351562 13.433594 16.289062 13.546875 Z M 12.644531 10.75 C 12.730469 10.660156 12.707031 10.570312 12.640625 10.5 C 12.550781 10.410156 11.722656 9.832031 11.722656 9.832031 C 11.722656 9.832031 12.304688 10.660156 12.390625 10.75 C 12.460938 10.816406 12.550781 10.839844 12.644531 10.75 Z M 15.921875 14.027344 C 15.828125 14.117188 15.851562 14.210938 15.921875 14.277344 C 16.011719 14.367188 16.828125 14.933594 16.828125 14.933594 C 16.828125 14.933594 16.257812 14.117188 16.167969 14.027344 C 16.101562 13.960938 16.011719 13.9375 15.921875 14.027344 Z M 13.121094 10.382812 C 13.230469 10.316406 13.230469 10.226562 13.183594 10.140625 C 13.121094 10.03125 12.472656 9.257812 12.472656 9.257812 C 12.472656 9.257812 12.816406 10.207031 12.878906 10.316406 C 12.929688 10.402344 13.011719 10.449219 13.121094 10.382812 Z M 15.441406 14.394531 C 15.328125 14.460938 15.328125 14.554688 15.375 14.636719 C 15.4375 14.746094 16.082031 15.507812 16.082031 15.507812 C 16.082031 15.507812 15.742188 14.570312 15.679688 14.460938 C 15.628906 14.378906 15.550781 14.332031 15.441406 14.394531 Z M 13.679688 10.152344 C 13.800781 10.117188 13.828125 10.027344 13.800781 9.9375 C 13.769531 9.8125 13.34375 8.898438 13.34375 8.898438 C 13.34375 8.898438 13.429688 9.902344 13.460938 10.027344 C 13.488281 10.117188 13.554688 10.1875 13.679688 10.152344 Z M 14.878906 14.628906 C 14.753906 14.664062 14.730469 14.753906 14.753906 14.84375 C 14.785156 14.96875 15.210938 15.871094 15.210938 15.871094 C 15.210938 15.871094 15.125 14.878906 15.09375 14.753906 C 15.070312 14.660156 15.003906 14.59375 14.878906 14.628906 Z M 14.878906 14.628906 "/>
<path fill-rule="nonzero" fill="rgb(100%, 79.998779%, 30.195618%)" fill-opacity="1" d="M 16.382812 17.734375 L 16.355469 17.746094 L 16.324219 17.75 L 16.304688 17.753906 L 16.261719 17.746094 L 16.222656 17.730469 L 16.203125 17.71875 L 16.171875 17.691406 L 16.140625 17.667969 L 16.121094 17.65625 L 16.101562 17.648438 L 16.085938 17.644531 L 16.0625 17.644531 L 15.980469 17.820312 L 15.960938 17.84375 L 15.945312 17.863281 L 15.929688 17.878906 L 15.914062 17.890625 L 15.890625 17.898438 L 15.871094 17.898438 L 15.851562 17.890625 L 15.824219 17.878906 L 15.816406 17.863281 L 15.808594 17.851562 L 15.800781 17.835938 L 15.792969 17.816406 L 15.777344 17.753906 L 15.753906 17.773438 L 15.730469 17.804688 L 15.683594 17.875 L 15.65625 17.910156 L 15.628906 17.9375 L 15.613281 17.957031 L 15.589844 17.96875 L 15.570312 17.976562 L 15.546875 17.984375 L 15.535156 17.984375 L 15.511719 17.992188 L 15.492188 17.984375 L 15.476562 17.976562 L 15.429688 17.921875 L 15.375 17.863281 L 15.339844 17.921875 L 15.296875 17.96875 L 15.273438 17.988281 L 15.257812 18.007812 L 15.234375 18.027344 L 15.199219 18.046875 L 15.179688 18.050781 L 15.15625 18.050781 L 15.140625 18.046875 L 15.125 18.039062 L 15.113281 18.027344 L 15.097656 18.007812 C 15.085938 17.976562 15.074219 17.945312 15.0625 17.914062 L 15.058594 17.894531 L 15.050781 17.878906 L 15.042969 17.871094 L 15.03125 17.871094 L 14.921875 18.050781 L 14.90625 18.066406 L 14.875 18.082031 L 14.8125 18.097656 L 14.773438 18.097656 L 14.746094 18.085938 L 14.734375 18.082031 L 14.722656 18.070312 L 14.71875 18.0625 L 14.71875 18.046875 L 14.734375 17.863281 L 14.722656 17.871094 L 14.691406 17.886719 C 14.660156 17.914062 14.632812 17.949219 14.605469 17.980469 L 14.566406 18.027344 L 14.480469 18.097656 L 14.457031 18.109375 L 14.40625 18.117188 L 14.386719 18.113281 L 14.375 18.109375 L 14.367188 18.101562 L 14.363281 18.085938 L 14.363281 18.074219 L 14.367188 18.023438 L 14.382812 17.9375 L 14.371094 17.890625 L 14.355469 17.863281 L 14.332031 17.898438 L 14.289062 17.953125 C 14.257812 17.988281 14.222656 18.023438 14.1875 18.058594 C 14.167969 18.074219 14.148438 18.085938 14.128906 18.101562 L 14.085938 18.117188 L 14.074219 18.113281 L 14.0625 18.113281 L 14.050781 18.101562 L 14.042969 18.085938 L 14.039062 18.074219 L 14.039062 18.058594 L 14.035156 18.039062 L 14.039062 17.882812 C 13.964844 17.933594 13.886719 17.984375 13.8125 18.03125 L 13.78125 18.042969 L 13.75 18.058594 C 13.71875 18.066406 13.691406 18.074219 13.660156 18.082031 L 13.628906 18.082031 L 13.601562 18.078125 L 13.578125 18.070312 L 13.589844 18.039062 L 13.613281 17.980469 L 13.628906 17.957031 L 13.648438 17.929688 L 13.664062 17.90625 L 13.707031 17.863281 L 13.75 17.832031 L 13.804688 17.800781 L 13.859375 17.773438 L 13.921875 17.753906 L 13.980469 17.738281 L 14.191406 17.703125 C 14.398438 17.691406 14.605469 17.691406 14.8125 17.691406 L 15.039062 17.679688 L 15.109375 17.671875 L 15.242188 17.648438 L 15.304688 17.628906 L 15.363281 17.605469 L 15.417969 17.582031 C 15.445312 17.558594 15.476562 17.535156 15.503906 17.515625 L 15.542969 17.46875 L 15.5 17.386719 L 15.535156 17.382812 L 15.566406 17.375 L 15.601562 17.359375 L 15.628906 17.335938 L 15.640625 17.328125 L 15.65625 17.316406 L 15.664062 17.300781 L 15.671875 17.289062 L 15.675781 17.273438 L 15.675781 17.242188 L 15.667969 17.226562 L 15.738281 17.214844 L 15.8125 17.207031 L 15.890625 17.203125 L 15.972656 17.203125 C 16.085938 17.207031 16.203125 17.210938 16.316406 17.222656 C 16.488281 17.242188 16.660156 17.257812 16.835938 17.277344 L 16.988281 17.285156 L 16.988281 17.367188 L 16.976562 17.390625 L 16.96875 17.414062 L 16.960938 17.433594 L 16.949219 17.453125 C 16.933594 17.46875 16.917969 17.484375 16.902344 17.5 L 16.867188 17.523438 L 16.828125 17.539062 L 16.789062 17.550781 L 16.742188 17.558594 L 16.652344 17.550781 L 16.609375 17.539062 L 16.566406 17.515625 L 16.527344 17.496094 L 16.492188 17.464844 L 16.460938 17.433594 L 16.460938 17.503906 C 16.453125 17.550781 16.449219 17.597656 16.441406 17.640625 L 16.425781 17.683594 L 16.414062 17.703125 L 16.402344 17.714844 L 16.394531 17.726562 L 16.382812 17.734375 M 13.070312 17.347656 L 13.164062 17.386719 C 13.183594 17.371094 13.203125 17.355469 13.222656 17.34375 L 13.257812 17.324219 L 13.292969 17.300781 L 13.414062 17.253906 L 13.523438 17.203125 L 13.578125 17.183594 L 13.667969 17.132812 L 13.703125 17.109375 C 13.796875 17.046875 13.890625 16.988281 13.984375 16.929688 L 14.066406 16.871094 L 14.128906 16.820312 C 14.191406 16.765625 14.25 16.710938 14.3125 16.652344 L 14.335938 16.636719 L 14.363281 16.621094 C 14.398438 16.601562 14.433594 16.585938 14.46875 16.570312 L 14.539062 16.546875 C 14.675781 16.507812 14.820312 16.476562 14.960938 16.453125 C 15.105469 16.4375 15.253906 16.417969 15.398438 16.402344 L 15.589844 16.367188 C 15.640625 16.355469 15.6875 16.34375 15.734375 16.332031 L 15.785156 16.269531 L 15.863281 16.183594 L 15.917969 16.128906 L 15.980469 16.078125 L 16.050781 16.027344 L 16.132812 15.972656 L 16.253906 15.898438 C 16.34375 15.855469 16.433594 15.808594 16.523438 15.761719 C 16.679688 15.6875 16.835938 15.609375 16.988281 15.53125 L 17.0625 15.480469 L 17.082031 15.421875 L 17.113281 15.359375 L 17.148438 15.296875 L 17.242188 15.167969 C 17.289062 15.121094 17.328125 15.078125 17.371094 15.027344 C 17.421875 14.980469 17.476562 14.929688 17.527344 14.882812 L 17.609375 14.820312 L 17.648438 14.789062 L 17.691406 14.761719 C 17.71875 14.746094 17.75 14.726562 17.78125 14.710938 L 17.828125 14.691406 L 17.871094 14.675781 L 17.96875 14.648438 L 18.015625 14.648438 L 18.0625 14.640625 L 18.109375 14.648438 L 18.15625 14.652344 L 18.152344 14.703125 L 18.140625 14.753906 L 18.101562 14.855469 L 18.074219 14.910156 L 18.035156 14.964844 L 17.992188 15.019531 L 17.9375 15.078125 L 17.980469 15.074219 L 18.015625 15.066406 L 18.046875 15.054688 L 18.074219 15.042969 L 18.128906 15.027344 L 18.203125 15.019531 L 18.210938 15.046875 L 18.210938 15.078125 L 18.203125 15.105469 L 18.195312 15.128906 L 18.183594 15.15625 L 18.167969 15.179688 L 18.152344 15.199219 L 18.132812 15.21875 C 18.074219 15.273438 18.019531 15.328125 17.957031 15.382812 L 18.007812 15.386719 C 18.042969 15.398438 18.078125 15.40625 18.117188 15.417969 L 18.15625 15.425781 L 18.109375 15.464844 C 18.070312 15.488281 18.03125 15.515625 17.992188 15.539062 L 17.859375 15.613281 L 17.792969 15.652344 L 17.726562 15.699219 L 17.667969 15.75 L 17.695312 15.753906 L 17.734375 15.769531 L 17.75 15.773438 L 17.765625 15.78125 L 17.777344 15.785156 L 17.789062 15.78125 L 17.710938 15.828125 C 17.65625 15.851562 17.605469 15.875 17.558594 15.902344 L 17.492188 15.941406 L 17.480469 15.953125 L 17.464844 15.976562 L 17.46875 15.992188 L 17.476562 16.007812 L 17.507812 16.03125 L 17.503906 16.046875 L 17.492188 16.0625 L 17.460938 16.085938 L 17.421875 16.105469 L 17.375 16.125 L 17.28125 16.160156 L 17.222656 16.1875 L 17.304688 16.269531 L 17.273438 16.300781 L 17.246094 16.320312 L 17.222656 16.332031 L 17.191406 16.34375 L 17.136719 16.351562 L 17.054688 16.351562 L 17.0625 16.390625 L 17.074219 16.425781 L 17.09375 16.511719 C 17.042969 16.550781 16.988281 16.589844 16.9375 16.625 L 16.839844 16.6875 L 16.734375 16.75 L 16.609375 16.804688 C 16.542969 16.832031 16.472656 16.859375 16.398438 16.878906 L 16.242188 16.914062 L 16.152344 16.925781 C 16.246094 16.929688 16.34375 16.929688 16.4375 16.929688 L 16.671875 16.90625 L 16.773438 16.886719 L 16.867188 16.859375 C 16.925781 16.839844 16.984375 16.816406 17.042969 16.792969 L 17.15625 16.742188 L 17.269531 16.679688 L 17.375 16.613281 L 17.488281 16.546875 L 17.421875 16.515625 L 17.355469 16.496094 L 17.324219 16.480469 C 17.300781 16.46875 17.277344 16.457031 17.253906 16.449219 L 17.214844 16.425781 L 17.25 16.402344 L 17.289062 16.386719 L 17.332031 16.371094 C 17.378906 16.359375 17.429688 16.347656 17.480469 16.335938 C 17.542969 16.332031 17.609375 16.320312 17.671875 16.3125 L 17.753906 16.304688 L 17.820312 16.289062 L 17.835938 16.28125 L 17.847656 16.265625 L 17.835938 16.253906 L 17.824219 16.25 L 17.808594 16.242188 L 17.761719 16.234375 L 17.703125 16.226562 L 17.644531 16.222656 L 17.589844 16.210938 L 17.539062 16.199219 L 17.507812 16.1875 L 17.910156 16.097656 L 17.980469 16.078125 C 18.011719 16.066406 18.042969 16.050781 18.070312 16.039062 L 18.109375 16.015625 L 18.128906 16 L 18.125 15.996094 L 18.117188 15.984375 L 18.078125 15.976562 L 18.027344 15.972656 L 17.960938 15.972656 C 17.917969 15.96875 17.878906 15.964844 17.835938 15.964844 L 17.78125 15.957031 L 17.75 15.949219 L 17.808594 15.925781 C 17.894531 15.898438 17.984375 15.871094 18.070312 15.847656 C 18.121094 15.832031 18.171875 15.816406 18.222656 15.800781 L 18.300781 15.765625 L 18.339844 15.746094 L 18.371094 15.726562 L 18.382812 15.714844 L 18.398438 15.695312 L 18.410156 15.683594 L 18.414062 15.671875 L 18.410156 15.660156 L 18.398438 15.648438 L 18.121094 15.648438 L 18.105469 15.636719 L 18.089844 15.628906 C 18.238281 15.53125 18.390625 15.433594 18.542969 15.335938 L 18.660156 15.253906 C 18.691406 15.226562 18.722656 15.199219 18.753906 15.171875 L 18.792969 15.132812 L 18.824219 15.089844 L 18.851562 15.046875 L 18.871094 15 L 18.882812 14.949219 L 18.882812 14.898438 L 18.855469 14.898438 L 18.824219 14.902344 L 18.761719 14.925781 C 18.703125 14.960938 18.644531 14.996094 18.585938 15.027344 L 18.554688 15.050781 L 18.515625 15.066406 L 18.480469 15.078125 L 18.445312 15.085938 L 18.414062 15.089844 L 18.375 15.089844 L 18.34375 15.078125 L 18.441406 15.003906 C 18.523438 14.933594 18.601562 14.867188 18.679688 14.796875 C 18.769531 14.714844 18.851562 14.628906 18.9375 14.542969 L 19.054688 14.410156 C 19.089844 14.363281 19.125 14.316406 19.164062 14.273438 C 19.191406 14.230469 19.222656 14.1875 19.25 14.144531 L 19.257812 14.128906 L 19.261719 14.117188 L 19.257812 14.101562 L 19.253906 14.089844 L 19.25 14.074219 L 19.238281 14.066406 L 19.222656 14.054688 L 19.210938 14.050781 L 19.179688 14.035156 L 19.144531 14.035156 L 19.128906 14.042969 L 19.109375 14.042969 L 19.097656 14.058594 L 19.078125 14.070312 C 18.996094 14.15625 18.910156 14.242188 18.832031 14.328125 L 18.730469 14.421875 C 18.664062 14.476562 18.597656 14.535156 18.53125 14.589844 C 18.5 14.613281 18.46875 14.632812 18.4375 14.652344 L 18.347656 14.699219 L 18.375 14.671875 C 18.402344 14.644531 18.433594 14.617188 18.460938 14.585938 C 18.566406 14.464844 18.667969 14.339844 18.765625 14.210938 L 18.957031 13.945312 L 19.007812 13.855469 L 19.058594 13.773438 L 19.101562 13.695312 L 19.132812 13.625 L 19.152344 13.570312 L 19.15625 13.546875 L 19.15625 13.515625 L 19.152344 13.503906 L 19.136719 13.476562 L 19.128906 13.46875 L 19.117188 13.464844 L 19.09375 13.453125 L 19.0625 13.445312 L 19.003906 13.445312 L 18.988281 13.449219 L 18.976562 13.453125 L 18.960938 13.460938 L 18.949219 13.472656 L 18.914062 13.503906 C 18.878906 13.546875 18.839844 13.59375 18.808594 13.640625 C 18.722656 13.769531 18.636719 13.894531 18.546875 14.019531 L 18.441406 14.140625 L 18.390625 14.195312 L 18.332031 14.246094 L 18.40625 14.109375 L 18.523438 13.867188 L 18.597656 13.6875 L 18.628906 13.597656 L 18.6875 13.414062 C 18.703125 13.351562 18.714844 13.292969 18.726562 13.230469 C 18.730469 13.175781 18.734375 13.117188 18.738281 13.0625 L 18.734375 13.019531 L 18.730469 12.984375 L 18.726562 12.945312 L 18.714844 12.898438 L 18.703125 12.882812 L 18.683594 12.863281 L 18.65625 12.851562 L 18.625 12.84375 L 18.597656 12.84375 L 18.570312 12.847656 L 18.5625 12.851562 L 18.550781 12.855469 L 18.546875 12.863281 C 18.472656 13.097656 18.417969 13.335938 18.351562 13.574219 C 18.328125 13.640625 18.304688 13.703125 18.277344 13.769531 L 18.21875 13.890625 L 18.179688 13.941406 L 18.203125 13.824219 C 18.214844 13.753906 18.226562 13.6875 18.234375 13.617188 L 18.253906 13.449219 L 18.257812 13.378906 C 18.253906 13.34375 18.253906 13.308594 18.25 13.269531 L 18.242188 13.230469 L 18.230469 13.195312 L 18.210938 13.171875 L 18.203125 13.164062 L 18.167969 13.152344 L 18.152344 13.152344 L 18.140625 13.15625 L 18.105469 13.164062 L 18.074219 13.179688 C 18.050781 13.308594 18.019531 13.433594 17.984375 13.558594 C 17.933594 13.71875 17.878906 13.875 17.8125 14.023438 C 17.765625 14.117188 17.71875 14.210938 17.671875 14.300781 L 17.578125 14.457031 L 17.480469 14.605469 C 17.414062 14.699219 17.347656 14.789062 17.277344 14.878906 C 17.207031 14.953125 17.136719 15.03125 17.066406 15.109375 C 16.992188 15.179688 16.917969 15.253906 16.839844 15.324219 C 16.757812 15.390625 16.679688 15.453125 16.597656 15.515625 C 16.496094 15.589844 16.394531 15.65625 16.292969 15.722656 L 16.109375 15.828125 L 15.820312 15.960938 L 15.523438 16.066406 L 15.277344 16.144531 L 15.023438 16.199219 L 14.894531 16.222656 L 14.632812 16.253906 L 14.503906 16.261719 L 14.488281 16.265625 L 14.476562 16.269531 L 14.453125 16.285156 L 14.425781 16.304688 C 14.390625 16.332031 14.359375 16.359375 14.328125 16.390625 L 14.261719 16.457031 L 14.023438 16.722656 L 13.933594 16.8125 L 13.828125 16.894531 L 13.785156 16.925781 L 13.742188 16.949219 L 13.652344 16.992188 C 13.515625 17.046875 13.371094 17.101562 13.230469 17.15625 L 13.195312 17.175781 L 13.164062 17.195312 L 13.136719 17.210938 L 13.09375 17.253906 L 13.078125 17.277344 L 13.070312 17.296875 L 13.066406 17.324219 L 13.066406 17.347656 "/>
<path fill-rule="nonzero" fill="rgb(100%, 79.998779%, 30.195618%)" fill-opacity="1" d="M 14.582031 17.53125 L 14.648438 17.539062 L 14.683594 17.554688 L 14.691406 17.558594 L 14.691406 17.5625 L 14.683594 17.5625 L 14.675781 17.566406 L 14.609375 17.578125 L 14.554688 17.578125 L 14.382812 17.566406 L 13.945312 17.558594 C 13.832031 17.558594 13.714844 17.5625 13.601562 17.566406 C 13.496094 17.574219 13.398438 17.582031 13.292969 17.589844 L 13.214844 17.601562 L 13.144531 17.617188 C 13.128906 17.625 13.113281 17.628906 13.097656 17.632812 L 13.058594 17.65625 L 13.066406 17.613281 L 13.085938 17.574219 L 13.027344 17.589844 L 12.976562 17.613281 L 12.957031 17.625 L 12.941406 17.644531 L 12.929688 17.664062 L 12.925781 17.683594 L 12.914062 17.65625 L 12.90625 17.628906 C 12.902344 17.613281 12.898438 17.59375 12.894531 17.578125 C 12.898438 17.554688 12.90625 17.53125 12.90625 17.511719 L 12.921875 17.488281 L 12.929688 17.472656 L 12.945312 17.453125 L 12.980469 17.421875 L 13.023438 17.390625 L 13.074219 17.363281 C 13.101562 17.378906 13.128906 17.390625 13.160156 17.398438 C 13.1875 17.402344 13.21875 17.398438 13.246094 17.390625 C 13.292969 17.433594 13.414062 17.425781 13.429688 17.351562 C 13.433594 17.328125 13.433594 17.296875 13.429688 17.269531 L 13.476562 17.265625 L 13.535156 17.253906 L 13.664062 17.222656 L 13.730469 17.210938 L 13.792969 17.195312 L 13.847656 17.183594 L 13.898438 17.179688 L 13.878906 17.199219 L 13.769531 17.28125 L 13.730469 17.308594 L 13.78125 17.320312 L 13.828125 17.332031 L 13.730469 17.441406 L 13.707031 17.472656 L 13.738281 17.488281 L 13.769531 17.496094 L 13.808594 17.503906 L 13.882812 17.503906 L 13.957031 17.488281 L 13.984375 17.46875 L 14.019531 17.488281 L 14.050781 17.5 C 14.074219 17.507812 14.09375 17.511719 14.117188 17.515625 C 14.167969 17.523438 14.21875 17.527344 14.269531 17.53125 L 14.582031 17.53125 M 14.203125 16.277344 L 14.167969 16.351562 L 14.125 16.449219 C 14.105469 16.488281 14.085938 16.527344 14.066406 16.566406 L 14.042969 16.585938 L 13.996094 16.546875 L 13.941406 16.507812 L 13.882812 16.480469 L 13.824219 16.457031 L 13.691406 16.421875 L 13.625 16.410156 C 13.554688 16.402344 13.484375 16.394531 13.410156 16.390625 C 13.316406 16.386719 13.222656 16.382812 13.125 16.375 L 12.996094 16.359375 L 12.921875 16.347656 L 12.851562 16.332031 L 12.777344 16.304688 L 12.714844 16.273438 L 12.667969 16.246094 L 12.574219 16.175781 C 12.4375 16.042969 12.300781 15.914062 12.160156 15.785156 L 12.078125 15.730469 L 12.039062 15.714844 L 12 15.703125 L 11.929688 15.683594 C 11.890625 15.671875 11.847656 15.65625 11.808594 15.644531 C 11.769531 15.625 11.730469 15.609375 11.691406 15.589844 C 11.621094 15.550781 11.558594 15.503906 11.492188 15.453125 L 11.453125 15.417969 L 11.371094 15.335938 L 11.292969 15.25 C 11.164062 15.089844 11.039062 14.925781 10.914062 14.765625 C 10.851562 14.703125 10.789062 14.636719 10.726562 14.578125 L 10.675781 14.527344 L 10.621094 14.484375 L 10.503906 14.394531 L 10.492188 14.398438 L 10.476562 14.414062 L 10.464844 14.429688 C 10.457031 14.449219 10.449219 14.46875 10.445312 14.488281 L 10.441406 14.503906 L 10.386719 14.476562 L 10.355469 14.464844 L 10.332031 14.457031 L 10.277344 14.457031 L 10.246094 14.464844 L 10.21875 14.476562 C 10.242188 14.503906 10.265625 14.535156 10.285156 14.5625 L 10.320312 14.621094 L 10.386719 14.75 L 10.414062 14.8125 L 10.421875 14.84375 L 10.429688 14.867188 L 10.433594 14.898438 L 10.433594 14.921875 L 10.210938 14.921875 L 10.246094 14.972656 C 10.269531 15.003906 10.296875 15.039062 10.320312 15.070312 L 10.457031 15.207031 L 10.503906 15.242188 L 10.546875 15.273438 C 10.507812 15.277344 10.472656 15.277344 10.4375 15.28125 L 10.332031 15.292969 L 10.367188 15.328125 C 10.398438 15.347656 10.429688 15.371094 10.460938 15.398438 L 10.515625 15.433594 L 10.570312 15.464844 L 10.621094 15.496094 L 10.671875 15.511719 L 10.71875 15.523438 L 10.753906 15.53125 L 10.765625 15.535156 L 10.777344 15.546875 L 10.777344 15.566406 L 10.765625 15.597656 L 10.765625 15.625 L 10.757812 15.640625 L 10.757812 15.652344 L 10.765625 15.671875 L 10.765625 15.6875 L 10.777344 15.695312 L 10.789062 15.707031 L 10.804688 15.714844 L 10.824219 15.71875 L 10.867188 15.734375 L 10.886719 15.742188 L 10.902344 15.753906 L 10.90625 15.757812 L 10.90625 15.769531 L 10.902344 15.773438 L 10.871094 15.796875 L 10.835938 15.832031 L 10.835938 15.851562 L 10.832031 15.867188 L 10.84375 15.910156 L 10.984375 15.960938 L 11.019531 15.96875 L 11.050781 15.980469 L 11.078125 15.996094 L 11.097656 16.007812 L 10.960938 16.113281 L 10.996094 16.148438 L 11.042969 16.171875 L 11.101562 16.199219 C 11.144531 16.214844 11.183594 16.230469 11.226562 16.242188 L 11.289062 16.253906 L 11.339844 16.265625 L 11.390625 16.265625 L 11.34375 16.300781 L 11.226562 16.371094 L 11.179688 16.402344 L 11.222656 16.433594 C 11.347656 16.496094 11.472656 16.558594 11.605469 16.609375 C 11.832031 16.703125 12.066406 16.785156 12.300781 16.855469 C 12.351562 16.871094 12.40625 16.882812 12.457031 16.898438 L 12.523438 16.910156 L 12.390625 16.898438 C 12.308594 16.886719 12.226562 16.875 12.144531 16.859375 L 12.027344 16.835938 L 11.800781 16.769531 L 11.695312 16.734375 C 11.410156 16.621094 11.128906 16.496094 10.84375 16.386719 L 10.867188 16.375 L 10.921875 16.355469 L 10.960938 16.34375 C 11.011719 16.332031 11.058594 16.3125 11.109375 16.296875 C 11.011719 16.28125 10.914062 16.265625 10.816406 16.242188 C 10.765625 16.226562 10.714844 16.210938 10.664062 16.199219 L 10.609375 16.171875 L 10.589844 16.160156 L 10.574219 16.148438 L 10.574219 16.144531 L 10.582031 16.136719 L 10.59375 16.132812 L 10.605469 16.125 L 10.636719 16.113281 L 10.78125 16.070312 L 10.867188 16.042969 C 10.746094 16.019531 10.625 16 10.507812 15.980469 L 10.449219 15.96875 L 10.402344 15.953125 L 10.371094 15.929688 L 10.355469 15.921875 L 10.347656 15.910156 L 10.359375 15.902344 L 10.398438 15.890625 C 10.4375 15.886719 10.476562 15.878906 10.511719 15.871094 L 10.578125 15.863281 C 10.617188 15.851562 10.652344 15.84375 10.691406 15.832031 L 10.707031 15.816406 L 10.722656 15.804688 L 10.660156 15.78125 L 10.617188 15.773438 L 10.574219 15.761719 L 10.386719 15.738281 L 10.335938 15.726562 L 10.292969 15.71875 L 10.199219 15.683594 L 10.160156 15.664062 L 10.125 15.640625 L 10.09375 15.609375 L 10.066406 15.574219 L 10.078125 15.570312 L 10.09375 15.566406 L 10.113281 15.566406 L 10.144531 15.570312 L 10.304688 15.578125 L 10.394531 15.585938 L 10.507812 15.585938 L 10.542969 15.582031 L 10.566406 15.574219 L 10.582031 15.566406 C 10.507812 15.535156 10.429688 15.5 10.351562 15.464844 C 10.300781 15.441406 10.25 15.417969 10.199219 15.390625 L 10.042969 15.308594 L 9.96875 15.265625 C 9.921875 15.234375 9.878906 15.199219 9.832031 15.164062 L 9.777344 15.117188 L 9.75 15.085938 L 9.722656 15.0625 L 9.707031 15.039062 L 9.691406 15.007812 L 9.675781 14.984375 L 9.664062 14.957031 L 9.660156 14.902344 L 9.6875 14.902344 L 9.71875 14.90625 L 9.753906 14.921875 L 9.785156 14.933594 L 9.851562 14.972656 L 9.925781 15.015625 L 9.957031 15.035156 L 9.996094 15.054688 L 10.066406 15.085938 L 10.101562 15.09375 L 10.132812 15.097656 L 10.171875 15.097656 L 10.203125 15.085938 L 10.105469 15.007812 C 10.027344 14.941406 9.945312 14.875 9.867188 14.804688 C 9.738281 14.679688 9.613281 14.550781 9.492188 14.417969 L 9.441406 14.347656 L 9.386719 14.28125 C 9.355469 14.238281 9.328125 14.195312 9.296875 14.152344 L 9.289062 14.136719 L 9.289062 14.109375 L 9.292969 14.09375 L 9.296875 14.082031 L 9.3125 14.074219 L 9.324219 14.0625 L 9.335938 14.054688 L 9.351562 14.046875 L 9.421875 14.046875 L 9.441406 14.054688 L 9.457031 14.066406 C 9.546875 14.152344 9.632812 14.242188 9.71875 14.335938 C 9.816406 14.425781 9.914062 14.515625 10.015625 14.597656 L 10.109375 14.660156 L 10.160156 14.683594 L 10.207031 14.699219 L 10.171875 14.679688 L 10.085938 14.59375 C 9.980469 14.472656 9.878906 14.347656 9.78125 14.21875 C 9.738281 14.160156 9.695312 14.097656 9.652344 14.035156 C 9.617188 13.976562 9.578125 13.917969 9.539062 13.859375 C 9.507812 13.808594 9.476562 13.757812 9.445312 13.703125 C 9.429688 13.660156 9.414062 13.617188 9.394531 13.574219 L 9.390625 13.554688 L 9.390625 13.523438 L 9.394531 13.507812 L 9.410156 13.484375 L 9.417969 13.476562 L 9.433594 13.46875 L 9.484375 13.453125 L 9.558594 13.453125 L 9.570312 13.460938 L 9.589844 13.46875 L 9.632812 13.507812 L 9.742188 13.644531 C 9.824219 13.773438 9.914062 13.902344 10.003906 14.023438 L 10.101562 14.148438 L 10.15625 14.203125 L 10.214844 14.25 C 10.148438 14.128906 10.085938 14 10.023438 13.875 C 10 13.816406 9.976562 13.753906 9.949219 13.695312 L 9.917969 13.605469 C 9.902344 13.542969 9.882812 13.480469 9.859375 13.417969 L 9.839844 13.328125 L 9.824219 13.238281 L 9.816406 13.152344 L 9.8125 13.070312 L 9.816406 13.027344 L 9.820312 12.988281 L 9.824219 12.953125 L 9.832031 12.914062 L 9.847656 12.890625 L 9.859375 12.875 L 9.867188 12.871094 L 9.894531 12.855469 L 9.925781 12.847656 L 9.953125 12.847656 L 9.976562 12.851562 L 10 12.859375 L 10.007812 12.882812 C 10.078125 13.113281 10.136719 13.347656 10.195312 13.578125 C 10.21875 13.644531 10.246094 13.710938 10.269531 13.773438 L 10.300781 13.835938 L 10.332031 13.890625 L 10.371094 13.949219 L 10.34375 13.828125 C 10.335938 13.761719 10.324219 13.691406 10.3125 13.625 C 10.304688 13.546875 10.296875 13.464844 10.292969 13.386719 L 10.300781 13.277344 L 10.308594 13.238281 L 10.320312 13.203125 L 10.339844 13.179688 L 10.347656 13.171875 L 10.359375 13.164062 L 10.371094 13.160156 L 10.40625 13.160156 L 10.441406 13.171875 L 10.472656 13.1875 L 10.53125 13.445312 C 10.550781 13.527344 10.574219 13.605469 10.601562 13.679688 C 10.644531 13.800781 10.6875 13.917969 10.738281 14.03125 L 10.796875 14.152344 L 10.878906 14.308594 L 10.96875 14.464844 L 11.066406 14.613281 L 11.175781 14.761719 L 11.273438 14.882812 C 11.34375 14.960938 11.414062 15.039062 11.484375 15.117188 C 11.558594 15.1875 11.632812 15.257812 11.710938 15.328125 L 11.832031 15.429688 C 11.941406 15.515625 12.050781 15.59375 12.167969 15.671875 C 12.257812 15.726562 12.351562 15.777344 12.445312 15.828125 L 12.726562 15.964844 C 12.871094 16.023438 13.019531 16.074219 13.164062 16.121094 C 13.308594 16.160156 13.453125 16.191406 13.601562 16.21875 C 13.800781 16.25 14 16.269531 14.203125 16.277344 "/>
<path fill-rule="nonzero" fill="rgb(100%, 79.998779%, 30.195618%)" fill-opacity="1" d="M 2.59375 21.390625 C 2.59375 21.390625 2.414062 21.539062 2.355469 21.464844 C 2.257812 21.34375 2.652344 20.746094 2.652344 20.535156 C 2.652344 20.1875 2.421875 20.09375 2.136719 20.042969 C 1.945312 20.011719 1.632812 20.058594 1.632812 20.058594 C 1.691406 20.136719 1.730469 20.160156 1.828125 20.164062 C 1.71875 20.222656 1.605469 20.347656 1.605469 20.542969 C 1.605469 20.839844 1.730469 20.960938 1.730469 21.296875 C 1.730469 21.484375 1.578125 21.722656 1.578125 21.722656 C 1.847656 21.695312 1.980469 21.445312 1.90625 21.246094 C 1.949219 21.238281 1.988281 21.246094 2.019531 21.28125 C 2.039062 21.226562 2.007812 21.160156 1.96875 21.105469 C 2 21.085938 2.027344 21.097656 2.078125 21.109375 C 2.074219 21.050781 2.039062 20.992188 1.957031 20.933594 C 2.199219 20.996094 2.347656 20.828125 2.347656 20.652344 C 2.347656 20.515625 2.253906 20.421875 2.164062 20.421875 C 2.132812 20.421875 2.089844 20.433594 2.0625 20.449219 C 2.046875 20.414062 2.054688 20.367188 2.074219 20.328125 C 2.007812 20.347656 1.964844 20.386719 1.996094 20.46875 C 1.941406 20.472656 1.902344 20.492188 1.875 20.523438 C 1.902344 20.558594 1.945312 20.582031 1.996094 20.578125 C 1.957031 20.65625 2 20.703125 2.058594 20.734375 C 2.058594 20.734375 2.019531 20.578125 2.121094 20.578125 C 2.164062 20.578125 2.207031 20.59375 2.207031 20.660156 C 2.207031 20.714844 2.15625 20.796875 2.039062 20.792969 C 1.921875 20.785156 1.828125 20.710938 1.828125 20.527344 C 1.828125 20.355469 1.96875 20.269531 2.148438 20.265625 C 2.3125 20.261719 2.433594 20.347656 2.433594 20.519531 C 2.433594 20.742188 2.109375 21.253906 2.109375 21.453125 C 2.109375 21.601562 2.246094 21.683594 2.375 21.683594 C 2.546875 21.683594 2.691406 21.515625 2.691406 21.515625 Z M 2.554688 17.339844 C 2.554688 16.964844 2.890625 16.773438 3.15625 16.773438 C 3.511719 16.773438 3.699219 16.988281 3.699219 17.265625 C 3.699219 17.421875 3.671875 17.523438 3.597656 17.671875 L 2.785156 19.367188 C 2.753906 19.425781 2.746094 19.492188 2.746094 19.589844 C 2.746094 19.742188 2.894531 19.867188 3.046875 19.871094 C 3.1875 19.875 3.339844 19.738281 3.339844 19.585938 C 3.339844 19.398438 3.246094 19.316406 3.144531 19.316406 C 3.023438 19.316406 2.972656 19.367188 2.972656 19.453125 C 2.972656 19.511719 3.003906 19.539062 3.046875 19.539062 C 3.148438 19.539062 3.121094 19.398438 3.121094 19.398438 C 3.171875 19.410156 3.214844 19.460938 3.191406 19.527344 C 3.230469 19.539062 3.265625 19.558594 3.292969 19.589844 C 3.265625 19.617188 3.230469 19.636719 3.191406 19.644531 C 3.214844 19.726562 3.183594 19.765625 3.113281 19.78125 C 3.125 19.75 3.125 19.722656 3.121094 19.695312 C 3.011719 19.726562 2.839844 19.675781 2.839844 19.484375 C 2.839844 19.292969 2.972656 19.128906 3.222656 19.171875 C 3.160156 19.144531 3.132812 19.085938 3.125 19.019531 C 3.171875 19.039062 3.222656 19.039062 3.222656 19.039062 C 3.191406 18.988281 3.152344 18.945312 3.152344 18.84375 C 3.199219 18.863281 3.242188 18.902344 3.300781 18.878906 C 3.210938 18.695312 3.324219 18.445312 3.613281 18.382812 C 3.507812 18.507812 3.457031 18.644531 3.457031 18.777344 C 3.457031 19.210938 3.578125 19.285156 3.578125 19.585938 C 3.578125 19.710938 3.511719 19.847656 3.382812 19.941406 L 3.382812 19.9375 C 3.46875 19.960938 3.523438 20 3.554688 20.058594 C 3.359375 20.113281 3.078125 20.113281 2.925781 20.054688 C 2.75 20.035156 2.628906 19.898438 2.59375 19.832031 C 2.558594 19.761719 2.488281 19.519531 2.59375 19.296875 C 2.710938 19.054688 3.253906 17.902344 3.421875 17.539062 C 3.460938 17.460938 3.480469 17.378906 3.480469 17.289062 C 3.480469 17.070312 3.277344 16.992188 3.164062 16.992188 C 3.023438 16.992188 2.882812 17.097656 2.882812 17.226562 C 2.882812 17.3125 2.929688 17.359375 2.992188 17.359375 C 3.148438 17.359375 3.140625 17.226562 3.109375 17.144531 C 3.207031 17.1875 3.261719 17.265625 3.246094 17.347656 C 3.300781 17.355469 3.355469 17.382812 3.402344 17.4375 C 3.363281 17.484375 3.316406 17.523438 3.246094 17.523438 C 3.277344 17.648438 3.191406 17.703125 3.109375 17.734375 C 3.136719 17.640625 3.152344 17.53125 2.992188 17.53125 C 2.878906 17.53125 2.785156 17.511719 2.730469 17.433594 C 2.726562 17.535156 2.71875 17.933594 2.71875 17.933594 C 2.710938 18.085938 2.917969 18.078125 3.050781 18.035156 C 3 18.207031 2.898438 18.300781 2.664062 18.277344 C 2.71875 18.300781 2.78125 18.355469 2.78125 18.457031 C 2.78125 18.597656 2.667969 18.753906 2.59375 18.800781 Z M 2.554688 17.339844 "/>
<path fill-rule="nonzero" fill="rgb(100%, 79.998779%, 30.195618%)" fill-opacity="1" d="M 2.628906 17.339844 C 2.628906 16.964844 2.292969 16.773438 2.03125 16.773438 C 1.675781 16.773438 1.484375 16.988281 1.484375 17.265625 C 1.484375 17.421875 1.511719 17.523438 1.585938 17.671875 L 2.402344 19.367188 C 2.429688 19.425781 2.4375 19.492188 2.4375 19.589844 C 2.4375 19.742188 2.292969 19.867188 2.136719 19.871094 C 1.996094 19.875 1.84375 19.738281 1.84375 19.585938 C 1.84375 19.398438 1.941406 19.316406 2.039062 19.316406 C 2.160156 19.316406 2.210938 19.367188 2.210938 19.453125 C 2.210938 19.511719 2.179688 19.539062 2.140625 19.539062 C 2.035156 19.539062 2.0625 19.398438 2.0625 19.398438 C 2.011719 19.410156 1.96875 19.460938 1.992188 19.527344 C 1.957031 19.539062 1.921875 19.558594 1.890625 19.589844 C 1.921875 19.617188 1.953125 19.636719 1.992188 19.644531 C 1.96875 19.726562 2.003906 19.765625 2.074219 19.78125 C 2.058594 19.75 2.058594 19.722656 2.0625 19.695312 C 2.175781 19.726562 2.347656 19.675781 2.347656 19.484375 C 2.347656 19.289062 2.214844 19.128906 1.964844 19.167969 C 2.023438 19.140625 2.054688 19.085938 2.058594 19.019531 C 2.015625 19.039062 1.964844 19.039062 1.964844 19.039062 C 1.992188 18.988281 2.035156 18.945312 2.03125 18.84375 C 1.984375 18.863281 1.941406 18.902344 1.882812 18.878906 C 1.976562 18.695312 1.863281 18.445312 1.570312 18.382812 C 1.679688 18.507812 1.730469 18.644531 1.730469 18.777344 C 1.730469 19.210938 1.609375 19.285156 1.609375 19.585938 C 1.609375 19.710938 1.675781 19.847656 1.800781 19.941406 L 1.800781 19.9375 C 1.71875 19.957031 1.664062 20 1.632812 20.058594 C 1.828125 20.113281 2.109375 20.109375 2.257812 20.050781 C 2.433594 20.03125 2.554688 19.898438 2.59375 19.832031 C 2.628906 19.761719 2.699219 19.515625 2.59375 19.296875 C 2.476562 19.054688 1.933594 17.898438 1.761719 17.535156 C 1.726562 17.460938 1.703125 17.378906 1.703125 17.289062 C 1.703125 17.066406 1.90625 16.988281 2.023438 16.988281 C 2.164062 16.988281 2.304688 17.097656 2.304688 17.226562 C 2.304688 17.3125 2.257812 17.359375 2.191406 17.359375 C 2.035156 17.359375 2.046875 17.226562 2.078125 17.144531 C 1.980469 17.1875 1.921875 17.265625 1.9375 17.347656 C 1.882812 17.355469 1.832031 17.382812 1.78125 17.433594 C 1.820312 17.484375 1.867188 17.519531 1.9375 17.523438 C 1.90625 17.648438 1.992188 17.703125 2.078125 17.730469 C 2.050781 17.640625 2.035156 17.53125 2.191406 17.53125 C 2.308594 17.53125 2.402344 17.511719 2.453125 17.433594 L 2.46875 17.933594 C 2.472656 18.082031 2.265625 18.078125 2.136719 18.035156 C 2.183594 18.207031 2.285156 18.300781 2.523438 18.277344 C 2.464844 18.300781 2.402344 18.355469 2.402344 18.457031 C 2.402344 18.597656 2.515625 18.753906 2.59375 18.800781 Z M 2.59375 21.390625 C 2.59375 21.390625 2.769531 21.539062 2.832031 21.464844 C 2.925781 21.34375 2.53125 20.746094 2.53125 20.535156 C 2.53125 20.1875 2.765625 20.09375 3.050781 20.042969 C 3.242188 20.011719 3.554688 20.058594 3.554688 20.058594 C 3.496094 20.136719 3.457031 20.160156 3.359375 20.164062 C 3.46875 20.222656 3.578125 20.347656 3.578125 20.542969 C 3.578125 20.839844 3.457031 20.960938 3.457031 21.296875 C 3.457031 21.484375 3.609375 21.722656 3.609375 21.722656 C 3.339844 21.695312 3.203125 21.445312 3.28125 21.246094 C 3.238281 21.238281 3.199219 21.246094 3.164062 21.28125 C 3.144531 21.226562 3.179688 21.160156 3.21875 21.105469 C 3.183594 21.085938 3.160156 21.097656 3.105469 21.109375 C 3.113281 21.050781 3.144531 20.992188 3.230469 20.933594 C 2.988281 20.996094 2.839844 20.828125 2.839844 20.652344 C 2.839844 20.515625 2.933594 20.421875 3.023438 20.421875 C 3.054688 20.421875 3.097656 20.433594 3.121094 20.449219 C 3.140625 20.414062 3.128906 20.367188 3.113281 20.328125 C 3.179688 20.347656 3.222656 20.386719 3.191406 20.46875 C 3.242188 20.472656 3.285156 20.492188 3.3125 20.523438 C 3.285156 20.558594 3.242188 20.582031 3.191406 20.578125 C 3.230469 20.65625 3.1875 20.703125 3.125 20.734375 C 3.125 20.734375 3.164062 20.578125 3.066406 20.578125 C 3.019531 20.578125 2.980469 20.59375 2.980469 20.660156 C 2.980469 20.714844 3.03125 20.796875 3.144531 20.792969 C 3.261719 20.785156 3.355469 20.710938 3.355469 20.527344 C 3.355469 20.355469 3.21875 20.269531 3.039062 20.265625 C 2.875 20.261719 2.75 20.347656 2.75 20.519531 C 2.75 20.742188 3.074219 21.253906 3.074219 21.453125 C 3.074219 21.601562 2.941406 21.683594 2.808594 21.683594 C 2.636719 21.683594 2.492188 21.515625 2.492188 21.515625 Z M 2.554688 10.78125 C 2.554688 10.40625 2.890625 10.214844 3.15625 10.214844 C 3.511719 10.214844 3.699219 10.429688 3.699219 10.707031 C 3.699219 10.867188 3.671875 10.964844 3.597656 11.113281 L 2.785156 12.808594 C 2.753906 12.867188 2.746094 12.933594 2.746094 13.03125 C 2.746094 13.183594 2.894531 13.308594 3.046875 13.3125 C 3.1875 13.316406 3.339844 13.179688 3.339844 13.027344 C 3.339844 12.84375 3.246094 12.757812 3.144531 12.757812 C 3.023438 12.757812 2.972656 12.808594 2.972656 12.894531 C 2.972656 12.953125 3.003906 12.980469 3.046875 12.980469 C 3.148438 12.980469 3.121094 12.839844 3.121094 12.839844 C 3.171875 12.851562 3.214844 12.90625 3.191406 12.96875 C 3.230469 12.980469 3.265625 13 3.292969 13.03125 C 3.265625 13.058594 3.230469 13.078125 3.191406 13.085938 C 3.214844 13.167969 3.183594 13.207031 3.113281 13.222656 C 3.125 13.191406 3.125 13.164062 3.121094 13.136719 C 3.011719 13.167969 2.839844 13.117188 2.839844 12.925781 C 2.839844 12.734375 2.972656 12.574219 3.222656 12.613281 C 3.160156 12.585938 3.132812 12.527344 3.125 12.460938 C 3.171875 12.480469 3.222656 12.480469 3.222656 12.480469 C 3.191406 12.429688 3.152344 12.386719 3.152344 12.285156 C 3.199219 12.304688 3.242188 12.34375 3.300781 12.320312 C 3.210938 12.136719 3.324219 11.886719 3.613281 11.828125 C 3.507812 11.953125 3.457031 12.085938 3.457031 12.21875 C 3.457031 12.652344 3.578125 12.726562 3.578125 13.027344 C 3.578125 13.15625 3.511719 13.292969 3.382812 13.382812 L 3.382812 13.378906 C 3.464844 13.402344 3.519531 13.441406 3.554688 13.5 C 3.359375 13.554688 3.074219 13.554688 2.925781 13.496094 C 2.75 13.472656 2.628906 13.339844 2.59375 13.273438 C 2.558594 13.207031 2.488281 12.960938 2.59375 12.738281 C 2.707031 12.496094 3.253906 11.34375 3.421875 10.980469 C 3.457031 10.902344 3.480469 10.820312 3.480469 10.734375 C 3.480469 10.511719 3.277344 10.433594 3.160156 10.433594 C 3.023438 10.433594 2.882812 10.539062 2.882812 10.667969 C 2.882812 10.753906 2.925781 10.804688 2.992188 10.804688 C 3.148438 10.804688 3.140625 10.667969 3.105469 10.585938 C 3.203125 10.628906 3.261719 10.707031 3.246094 10.789062 C 3.300781 10.796875 3.351562 10.824219 3.402344 10.878906 C 3.363281 10.925781 3.316406 10.960938 3.246094 10.964844 C 3.277344 11.09375 3.191406 11.148438 3.105469 11.175781 C 3.132812 11.082031 3.152344 10.976562 2.992188 10.976562 C 2.875 10.976562 2.785156 10.953125 2.730469 10.878906 C 2.726562 10.980469 2.71875 11.378906 2.71875 11.378906 C 2.710938 11.527344 2.917969 11.523438 3.046875 11.480469 C 3 11.652344 2.898438 11.746094 2.664062 11.71875 C 2.71875 11.746094 2.78125 11.796875 2.78125 11.902344 C 2.78125 12.042969 2.667969 12.199219 2.59375 12.242188 Z M 2.554688 10.78125 "/>
<path fill-rule="nonzero" fill="rgb(100%, 79.998779%, 30.195618%)" fill-opacity="1" d="M 2.628906 10.78125 C 2.628906 10.40625 2.292969 10.214844 2.03125 10.214844 C 1.675781 10.214844 1.484375 10.429688 1.484375 10.707031 C 1.484375 10.867188 1.511719 10.964844 1.585938 11.113281 L 2.402344 12.808594 C 2.429688 12.867188 2.4375 12.933594 2.4375 13.03125 C 2.4375 13.183594 2.292969 13.308594 2.136719 13.3125 C 1.996094 13.316406 1.84375 13.179688 1.84375 13.027344 C 1.84375 12.84375 1.941406 12.757812 2.039062 12.757812 C 2.160156 12.757812 2.210938 12.808594 2.210938 12.894531 C 2.210938 12.953125 2.179688 12.980469 2.140625 12.980469 C 2.035156 12.980469 2.0625 12.839844 2.0625 12.839844 C 2.011719 12.851562 1.96875 12.90625 1.992188 12.96875 C 1.957031 12.980469 1.921875 13 1.890625 13.03125 C 1.921875 13.058594 1.953125 13.078125 1.992188 13.085938 C 1.96875 13.167969 2 13.207031 2.070312 13.222656 C 2.058594 13.191406 2.058594 13.164062 2.0625 13.136719 C 2.175781 13.167969 2.34375 13.117188 2.34375 12.925781 C 2.34375 12.734375 2.210938 12.574219 1.964844 12.613281 C 2.023438 12.585938 2.054688 12.527344 2.058594 12.460938 C 2.011719 12.480469 1.964844 12.480469 1.964844 12.480469 C 1.992188 12.429688 2.03125 12.386719 2.03125 12.285156 C 1.984375 12.304688 1.941406 12.34375 1.882812 12.320312 C 1.976562 12.136719 1.863281 11.886719 1.570312 11.828125 C 1.675781 11.953125 1.730469 12.085938 1.730469 12.21875 C 1.730469 12.652344 1.609375 12.726562 1.609375 13.027344 C 1.609375 13.15625 1.671875 13.292969 1.800781 13.382812 L 1.800781 13.378906 C 1.71875 13.402344 1.664062 13.441406 1.632812 13.5 C 1.828125 13.554688 2.109375 13.554688 2.261719 13.496094 C 2.433594 13.472656 2.558594 13.339844 2.59375 13.273438 C 2.628906 13.207031 2.699219 12.960938 2.59375 12.738281 C 2.476562 12.496094 1.933594 11.34375 1.761719 10.980469 C 1.726562 10.902344 1.707031 10.820312 1.707031 10.734375 C 1.707031 10.511719 1.910156 10.433594 2.023438 10.433594 C 2.164062 10.433594 2.304688 10.539062 2.304688 10.667969 C 2.304688 10.753906 2.257812 10.804688 2.195312 10.804688 C 2.035156 10.804688 2.046875 10.671875 2.078125 10.585938 C 1.980469 10.628906 1.921875 10.707031 1.941406 10.789062 C 1.882812 10.796875 1.832031 10.824219 1.785156 10.878906 C 1.820312 10.925781 1.867188 10.964844 1.941406 10.964844 C 1.90625 11.09375 1.992188 11.148438 2.078125 11.175781 C 2.050781 11.082031 2.035156 10.976562 2.195312 10.976562 C 2.308594 10.976562 2.402344 10.957031 2.453125 10.878906 L 2.46875 11.378906 C 2.472656 11.527344 2.265625 11.523438 2.136719 11.476562 C 2.183594 11.652344 2.285156 11.742188 2.523438 11.71875 C 2.464844 11.746094 2.402344 11.796875 2.402344 11.902344 C 2.402344 12.042969 2.515625 12.199219 2.59375 12.242188 Z M 2.628906 10.78125 "/>
<path fill-rule="nonzero" fill="rgb(100%, 79.998779%, 30.195618%)" fill-opacity="1" d="M 2.628906 9.660156 C 2.628906 10.035156 2.292969 10.226562 2.03125 10.226562 C 1.675781 10.226562 1.484375 10.011719 1.484375 9.734375 C 1.484375 9.578125 1.511719 9.476562 1.585938 9.328125 L 2.402344 7.632812 C 2.429688 7.574219 2.4375 7.507812 2.4375 7.410156 C 2.4375 7.257812 2.292969 7.132812 2.136719 7.128906 C 1.996094 7.125 1.84375 7.261719 1.84375 7.414062 C 1.84375 7.601562 1.941406 7.683594 2.039062 7.683594 C 2.160156 7.683594 2.210938 7.632812 2.210938 7.546875 C 2.210938 7.488281 2.179688 7.460938 2.140625 7.460938 C 2.035156 7.460938 2.0625 7.601562 2.0625 7.601562 C 2.011719 7.589844 1.96875 7.539062 1.992188 7.472656 C 1.957031 7.464844 1.921875 7.445312 1.890625 7.410156 C 1.921875 7.382812 1.953125 7.363281 1.992188 7.355469 C 1.96875 7.273438 2.003906 7.234375 2.074219 7.21875 C 2.058594 7.25 2.058594 7.277344 2.0625 7.304688 C 2.175781 7.273438 2.347656 7.324219 2.347656 7.515625 C 2.347656 7.707031 2.214844 7.871094 1.964844 7.828125 C 2.023438 7.859375 2.054688 7.917969 2.058594 7.980469 C 2.015625 7.964844 1.964844 7.960938 1.964844 7.960938 C 1.992188 8.011719 2.035156 8.054688 2.03125 8.15625 C 1.984375 8.136719 1.941406 8.097656 1.882812 8.121094 C 1.976562 8.304688 1.863281 8.558594 1.570312 8.617188 C 1.679688 8.492188 1.730469 8.355469 1.730469 8.222656 C 1.730469 7.789062 1.609375 7.714844 1.609375 7.414062 C 1.609375 7.289062 1.675781 7.152344 1.800781 7.058594 L 1.800781 7.0625 C 1.71875 7.039062 1.664062 7 1.632812 6.941406 C 1.828125 6.886719 2.109375 6.886719 2.261719 6.949219 C 2.433594 6.96875 2.558594 7.101562 2.59375 7.171875 C 2.628906 7.238281 2.699219 7.484375 2.59375 7.703125 C 2.476562 7.945312 1.933594 9.101562 1.761719 9.460938 C 1.726562 9.539062 1.707031 9.621094 1.707031 9.710938 C 1.707031 9.933594 1.910156 10.007812 2.023438 10.007812 C 2.164062 10.007812 2.304688 9.902344 2.304688 9.773438 C 2.304688 9.6875 2.257812 9.636719 2.195312 9.636719 C 2.035156 9.636719 2.046875 9.769531 2.078125 9.855469 C 1.980469 9.8125 1.921875 9.734375 1.941406 9.652344 C 1.882812 9.644531 1.832031 9.617188 1.785156 9.5625 C 1.820312 9.515625 1.867188 9.476562 1.941406 9.476562 C 1.90625 9.347656 1.992188 9.292969 2.078125 9.265625 C 2.050781 9.359375 2.035156 9.46875 2.195312 9.46875 C 2.308594 9.46875 2.402344 9.488281 2.453125 9.5625 L 2.46875 9.0625 C 2.472656 8.914062 2.265625 8.917969 2.136719 8.960938 C 2.183594 8.789062 2.289062 8.695312 2.523438 8.71875 C 2.464844 8.695312 2.40625 8.640625 2.40625 8.539062 C 2.40625 8.398438 2.519531 8.242188 2.59375 8.195312 Z M 2.628906 16.21875 C 2.628906 16.589844 2.292969 16.785156 2.03125 16.785156 C 1.675781 16.785156 1.484375 16.570312 1.484375 16.292969 C 1.484375 16.132812 1.511719 16.035156 1.585938 15.886719 L 2.402344 14.191406 C 2.429688 14.132812 2.4375 14.066406 2.4375 13.96875 C 2.4375 13.816406 2.292969 13.691406 2.136719 13.6875 C 1.996094 13.683594 1.84375 13.820312 1.84375 13.972656 C 1.84375 14.15625 1.941406 14.242188 2.039062 14.242188 C 2.160156 14.242188 2.210938 14.191406 2.210938 14.105469 C 2.210938 14.046875 2.179688 14.019531 2.140625 14.019531 C 2.035156 14.019531 2.0625 14.160156 2.0625 14.160156 C 2.011719 14.148438 1.96875 14.097656 1.992188 14.03125 C 1.957031 14.023438 1.921875 14 1.890625 13.96875 C 1.921875 13.941406 1.953125 13.921875 1.992188 13.914062 C 1.96875 13.832031 2 13.792969 2.070312 13.777344 C 2.058594 13.808594 2.058594 13.835938 2.0625 13.863281 C 2.175781 13.832031 2.34375 13.882812 2.34375 14.074219 C 2.34375 14.265625 2.210938 14.425781 1.964844 14.386719 C 2.023438 14.417969 2.054688 14.472656 2.058594 14.539062 C 2.011719 14.523438 1.964844 14.519531 1.964844 14.519531 C 1.992188 14.570312 2.03125 14.613281 2.03125 14.714844 C 1.984375 14.695312 1.941406 14.65625 1.882812 14.679688 C 1.976562 14.863281 1.863281 15.113281 1.570312 15.171875 C 1.675781 15.050781 1.730469 14.914062 1.730469 14.78125 C 1.730469 14.347656 1.609375 14.273438 1.609375 13.972656 C 1.609375 13.84375 1.671875 13.707031 1.800781 13.617188 L 1.800781 13.621094 C 1.71875 13.597656 1.664062 13.558594 1.632812 13.5 C 1.828125 13.445312 2.109375 13.445312 2.261719 13.507812 C 2.433594 13.527344 2.558594 13.660156 2.59375 13.726562 C 2.628906 13.796875 2.699219 14.039062 2.59375 14.261719 C 2.476562 14.503906 1.933594 15.65625 1.761719 16.019531 C 1.726562 16.097656 1.707031 16.179688 1.707031 16.265625 C 1.707031 16.488281 1.910156 16.566406 2.023438 16.566406 C 2.164062 16.566406 2.304688 16.460938 2.304688 16.328125 C 2.304688 16.246094 2.257812 16.195312 2.195312 16.195312 C 2.035156 16.195312 2.046875 16.328125 2.078125 16.414062 C 1.980469 16.371094 1.921875 16.289062 1.941406 16.210938 C 1.882812 16.203125 1.832031 16.175781 1.785156 16.121094 C 1.820312 16.074219 1.867188 16.039062 1.941406 16.035156 C 1.90625 15.90625 1.992188 15.855469 2.078125 15.824219 C 2.050781 15.917969 2.035156 16.027344 2.195312 16.027344 C 2.308594 16.027344 2.402344 16.046875 2.453125 16.121094 L 2.46875 15.621094 C 2.472656 15.472656 2.265625 15.476562 2.136719 15.523438 C 2.183594 15.351562 2.289062 15.257812 2.523438 15.28125 C 2.464844 15.257812 2.40625 15.203125 2.40625 15.097656 C 2.40625 14.957031 2.519531 14.804688 2.59375 14.757812 Z M 2.628906 16.21875 "/>
<path fill-rule="nonzero" fill="rgb(100%, 79.998779%, 30.195618%)" fill-opacity="1" d="M 2.554688 16.21875 C 2.554688 16.589844 2.890625 16.785156 3.15625 16.785156 C 3.511719 16.785156 3.699219 16.570312 3.699219 16.292969 C 3.699219 16.132812 3.671875 16.035156 3.597656 15.886719 L 2.785156 14.191406 C 2.753906 14.132812 2.746094 14.066406 2.746094 13.96875 C 2.746094 13.816406 2.894531 13.691406 3.046875 13.6875 C 3.1875 13.683594 3.339844 13.820312 3.339844 13.972656 C 3.339844 14.15625 3.246094 14.242188 3.144531 14.242188 C 3.023438 14.242188 2.972656 14.191406 2.972656 14.105469 C 2.972656 14.046875 3.003906 14.019531 3.046875 14.019531 C 3.148438 14.019531 3.121094 14.160156 3.121094 14.160156 C 3.171875 14.148438 3.214844 14.097656 3.191406 14.03125 C 3.230469 14.023438 3.265625 14 3.292969 13.96875 C 3.265625 13.941406 3.230469 13.921875 3.191406 13.914062 C 3.214844 13.832031 3.183594 13.792969 3.113281 13.777344 C 3.125 13.808594 3.125 13.835938 3.121094 13.863281 C 3.011719 13.832031 2.839844 13.882812 2.839844 14.074219 C 2.839844 14.265625 2.972656 14.425781 3.222656 14.386719 C 3.160156 14.417969 3.132812 14.472656 3.125 14.539062 C 3.171875 14.523438 3.222656 14.519531 3.222656 14.519531 C 3.191406 14.570312 3.152344 14.613281 3.152344 14.714844 C 3.199219 14.695312 3.242188 14.65625 3.300781 14.679688 C 3.210938 14.863281 3.324219 15.113281 3.613281 15.171875 C 3.507812 15.050781 3.457031 14.914062 3.457031 14.78125 C 3.457031 14.347656 3.578125 14.273438 3.578125 13.972656 C 3.578125 13.84375 3.511719 13.707031 3.382812 13.617188 L 3.382812 13.621094 C 3.46875 13.597656 3.523438 13.558594 3.554688 13.5 C 3.359375 13.445312 3.078125 13.445312 2.925781 13.503906 C 2.75 13.527344 2.628906 13.660156 2.59375 13.726562 C 2.558594 13.792969 2.488281 14.039062 2.59375 14.261719 C 2.710938 14.503906 3.253906 15.65625 3.421875 16.019531 C 3.460938 16.097656 3.480469 16.175781 3.480469 16.265625 C 3.480469 16.488281 3.277344 16.566406 3.164062 16.566406 C 3.023438 16.566406 2.882812 16.460938 2.882812 16.328125 C 2.882812 16.246094 2.929688 16.195312 2.992188 16.195312 C 3.148438 16.195312 3.140625 16.328125 3.109375 16.414062 C 3.207031 16.367188 3.261719 16.289062 3.246094 16.207031 C 3.300781 16.199219 3.355469 16.175781 3.402344 16.121094 C 3.363281 16.074219 3.316406 16.039062 3.246094 16.035156 C 3.277344 15.90625 3.191406 15.851562 3.109375 15.824219 C 3.136719 15.917969 3.152344 16.023438 2.992188 16.023438 C 2.878906 16.023438 2.785156 16.042969 2.730469 16.121094 C 2.726562 16.019531 2.71875 15.621094 2.71875 15.621094 C 2.710938 15.472656 2.917969 15.476562 3.050781 15.519531 C 3 15.347656 2.898438 15.257812 2.664062 15.28125 C 2.71875 15.253906 2.78125 15.203125 2.78125 15.097656 C 2.78125 14.957031 2.667969 14.804688 2.59375 14.757812 Z M 2.59375 5.609375 C 2.59375 5.609375 2.769531 5.460938 2.832031 5.535156 C 2.925781 5.65625 2.53125 6.253906 2.53125 6.464844 C 2.53125 6.8125 2.765625 6.90625 3.050781 6.957031 C 3.242188 6.988281 3.554688 6.941406 3.554688 6.941406 C 3.492188 6.863281 3.457031 6.839844 3.355469 6.835938 C 3.464844 6.777344 3.578125 6.652344 3.578125 6.460938 C 3.578125 6.160156 3.457031 6.039062 3.457031 5.703125 C 3.457031 5.515625 3.609375 5.277344 3.609375 5.277344 C 3.339844 5.304688 3.203125 5.554688 3.28125 5.753906 C 3.238281 5.761719 3.199219 5.75 3.164062 5.71875 C 3.144531 5.777344 3.179688 5.839844 3.21875 5.894531 C 3.183594 5.914062 3.160156 5.902344 3.105469 5.890625 C 3.113281 5.949219 3.144531 6.007812 3.230469 6.066406 C 2.988281 6.003906 2.835938 6.171875 2.835938 6.351562 C 2.835938 6.484375 2.929688 6.578125 3.023438 6.578125 C 3.054688 6.578125 3.097656 6.566406 3.121094 6.550781 C 3.140625 6.585938 3.128906 6.636719 3.113281 6.671875 C 3.179688 6.65625 3.222656 6.613281 3.191406 6.53125 C 3.242188 6.527344 3.285156 6.507812 3.3125 6.476562 C 3.28125 6.441406 3.238281 6.417969 3.191406 6.421875 C 3.226562 6.34375 3.1875 6.300781 3.125 6.265625 C 3.125 6.265625 3.164062 6.421875 3.066406 6.421875 C 3.019531 6.421875 2.980469 6.40625 2.980469 6.339844 C 2.980469 6.285156 3.027344 6.203125 3.144531 6.210938 C 3.261719 6.214844 3.355469 6.289062 3.355469 6.472656 C 3.355469 6.644531 3.214844 6.726562 3.035156 6.734375 C 2.875 6.738281 2.75 6.648438 2.75 6.480469 C 2.75 6.257812 3.074219 5.746094 3.074219 5.546875 C 3.074219 5.398438 2.941406 5.3125 2.808594 5.3125 C 2.636719 5.3125 2.492188 5.484375 2.492188 5.484375 Z M 2.59375 5.609375 "/>
<path fill-rule="nonzero" fill="rgb(100%, 79.998779%, 30.195618%)" fill-opacity="1" d="M 2.59375 5.609375 C 2.59375 5.609375 2.414062 5.460938 2.355469 5.535156 C 2.257812 5.65625 2.652344 6.253906 2.652344 6.464844 C 2.652344 6.8125 2.421875 6.90625 2.136719 6.957031 C 1.945312 6.988281 1.632812 6.941406 1.632812 6.941406 C 1.691406 6.863281 1.730469 6.839844 1.828125 6.835938 C 1.71875 6.777344 1.605469 6.652344 1.605469 6.460938 C 1.605469 6.160156 1.730469 6.039062 1.730469 5.703125 C 1.730469 5.515625 1.574219 5.277344 1.574219 5.277344 C 1.847656 5.304688 1.980469 5.554688 1.902344 5.753906 C 1.949219 5.761719 1.984375 5.75 2.019531 5.71875 C 2.039062 5.777344 2.007812 5.839844 1.964844 5.894531 C 2 5.914062 2.023438 5.902344 2.078125 5.890625 C 2.074219 5.949219 2.039062 6.007812 1.957031 6.066406 C 2.199219 6.003906 2.347656 6.171875 2.347656 6.351562 C 2.347656 6.484375 2.253906 6.578125 2.160156 6.578125 C 2.132812 6.578125 2.089844 6.566406 2.0625 6.550781 C 2.046875 6.585938 2.054688 6.636719 2.074219 6.671875 C 2.007812 6.65625 1.964844 6.613281 1.996094 6.53125 C 1.941406 6.527344 1.902344 6.507812 1.875 6.476562 C 1.902344 6.441406 1.945312 6.417969 1.996094 6.421875 C 1.957031 6.34375 2 6.300781 2.058594 6.265625 C 2.058594 6.265625 2.019531 6.421875 2.121094 6.421875 C 2.164062 6.421875 2.207031 6.40625 2.207031 6.339844 C 2.207031 6.285156 2.15625 6.203125 2.039062 6.210938 C 1.921875 6.214844 1.828125 6.289062 1.828125 6.472656 C 1.828125 6.644531 1.96875 6.726562 2.148438 6.734375 C 2.3125 6.738281 2.433594 6.648438 2.433594 6.480469 C 2.433594 6.257812 2.109375 5.746094 2.109375 5.546875 C 2.109375 5.398438 2.246094 5.3125 2.375 5.3125 C 2.546875 5.3125 2.691406 5.484375 2.691406 5.484375 Z M 2.554688 9.660156 C 2.554688 10.035156 2.890625 10.226562 3.15625 10.226562 C 3.511719 10.226562 3.699219 10.011719 3.699219 9.734375 C 3.699219 9.578125 3.671875 9.476562 3.597656 9.328125 L 2.785156 7.632812 C 2.753906 7.574219 2.746094 7.507812 2.746094 7.410156 C 2.746094 7.257812 2.894531 7.132812 3.046875 7.128906 C 3.1875 7.125 3.34375 7.261719 3.34375 7.414062 C 3.34375 7.601562 3.246094 7.683594 3.144531 7.683594 C 3.023438 7.683594 2.976562 7.632812 2.976562 7.546875 C 2.976562 7.488281 3.003906 7.460938 3.046875 7.460938 C 3.152344 7.460938 3.121094 7.601562 3.121094 7.601562 C 3.171875 7.589844 3.214844 7.539062 3.191406 7.472656 C 3.230469 7.464844 3.265625 7.445312 3.292969 7.410156 C 3.265625 7.382812 3.230469 7.363281 3.191406 7.355469 C 3.214844 7.273438 3.183594 7.234375 3.113281 7.21875 C 3.125 7.25 3.125 7.277344 3.121094 7.304688 C 3.007812 7.273438 2.839844 7.324219 2.839844 7.515625 C 2.839844 7.707031 2.972656 7.871094 3.222656 7.828125 C 3.160156 7.859375 3.132812 7.917969 3.125 7.980469 C 3.171875 7.964844 3.222656 7.960938 3.222656 7.960938 C 3.191406 8.011719 3.152344 8.054688 3.152344 8.15625 C 3.199219 8.136719 3.242188 8.097656 3.300781 8.121094 C 3.207031 8.304688 3.324219 8.558594 3.613281 8.617188 C 3.507812 8.492188 3.457031 8.355469 3.457031 8.222656 C 3.457031 7.789062 3.578125 7.714844 3.578125 7.414062 C 3.578125 7.289062 3.511719 7.152344 3.382812 7.058594 L 3.382812 7.0625 C 3.46875 7.039062 3.523438 7 3.554688 6.941406 C 3.359375 6.886719 3.074219 6.890625 2.925781 6.949219 C 2.75 6.96875 2.628906 7.101562 2.59375 7.171875 C 2.558594 7.238281 2.488281 7.484375 2.59375 7.703125 C 2.707031 7.945312 3.253906 9.101562 3.421875 9.460938 C 3.457031 9.539062 3.480469 9.621094 3.480469 9.710938 C 3.480469 9.933594 3.277344 10.007812 3.160156 10.007812 C 3.023438 10.007812 2.882812 9.902344 2.882812 9.773438 C 2.882812 9.6875 2.925781 9.636719 2.992188 9.636719 C 3.148438 9.636719 3.140625 9.769531 3.105469 9.855469 C 3.203125 9.8125 3.261719 9.734375 3.246094 9.652344 C 3.300781 9.644531 3.351562 9.617188 3.402344 9.5625 C 3.363281 9.515625 3.316406 9.476562 3.246094 9.476562 C 3.277344 9.347656 3.191406 9.292969 3.105469 9.265625 C 3.132812 9.359375 3.152344 9.46875 2.992188 9.46875 C 2.875 9.46875 2.785156 9.488281 2.730469 9.5625 C 2.726562 9.460938 2.71875 9.0625 2.71875 9.0625 C 2.710938 8.914062 2.917969 8.917969 3.046875 8.960938 C 3 8.792969 2.898438 8.699219 2.664062 8.722656 C 2.71875 8.699219 2.78125 8.644531 2.78125 8.539062 C 2.78125 8.398438 2.667969 8.242188 2.59375 8.199219 Z M 2.554688 9.660156 "/>
</svg>
