<?xml version="1.0" encoding="UTF-8"?>
<svg xmlns="http://www.w3.org/2000/svg" xmlns:xlink="http://www.w3.org/1999/xlink" width="27pt" height="27pt" viewBox="0 0 27 27">
<path fill-rule="nonzero" fill="rgb(86.665344%, 18.03894%, 26.66626%)" fill-opacity="1" d="M 24 3.75 L 18 3.75 L 18 23.25 L 24 23.25 C 25.65625 23.25 27 21.90625 27 20.25 L 27 6.75 C 27 5.09375 25.65625 3.75 24 3.75 Z M 24 3.75 "/>
<path fill-rule="nonzero" fill="rgb(14.901733%, 37.254333%, 70.979309%)" fill-opacity="1" d="M 3 3.75 C 1.34375 3.75 0 5.09375 0 6.75 L 0 20.25 C 0 21.90625 1.34375 23.25 3 23.25 L 9 23.25 L 9 3.75 Z M 3 3.75 "/>
<path fill-rule="nonzero" fill="rgb(100%, 79.998779%, 30.195618%)" fill-opacity="1" d="M 9 3.75 L 18 3.75 L 18 23.25 L 9 23.25 Z M 9 3.75 "/>
<path fill-rule="nonzero" fill="rgb(86.665344%, 18.03894%, 26.66626%)" fill-opacity="1" d="M 12 11.25 L 15 11.25 L 15 13.5 L 12 13.5 Z M 12 11.25 "/>
<path fill-rule="nonzero" fill="rgb(13.33313%, 39.99939%, 59.999084%)" fill-opacity="1" d="M 12 13.5 L 12 15 L 13.5 15.75 L 15 15 L 15 13.5 Z M 12 13.5 "/>
<path fill-rule="nonzero" fill="rgb(62.744141%, 44.7052%, 29.019165%)" fill-opacity="1" d="M 12 8.25 L 12 9 L 12.75 9 L 12.75 10.5 L 14.25 10.5 L 14.25 8.25 Z M 14.25 15.75 L 13.5 16.21875 L 12.75 15.75 L 12 18 L 13.5 18.75 L 15 18 Z M 11.25 9.75 L 10.5 9 L 9.75 9.75 L 9.75 17.25 L 11.25 15.75 L 11.25 10.5 L 12 10.5 Z M 16.5 9 L 15 10.5 L 15.75 10.5 L 15.75 15.75 L 17.25 17.25 L 17.25 9.75 Z M 16.5 9 "/>
<path fill-rule="nonzero" fill="rgb(100%, 79.998779%, 30.195618%)" fill-opacity="1" d="M 12.175781 13.195312 L 12.574219 13.195312 L 12.574219 13.5 L 12.175781 13.5 Z M 14.425781 13.195312 L 14.824219 13.195312 L 14.824219 13.5 L 14.425781 13.5 Z M 14.425781 13.195312 "/>
<path fill-rule="nonzero" fill="rgb(46.665955%, 69.802856%, 33.332825%)" fill-opacity="1" d="M 11.726562 17.058594 C 11.648438 17.105469 11.53125 17.050781 11.464844 16.9375 L 9.792969 14.039062 C 9.726562 13.925781 9.738281 13.796875 9.820312 13.75 L 9.921875 13.691406 C 10 13.644531 10.117188 13.699219 10.183594 13.8125 L 11.855469 16.710938 C 11.921875 16.824219 11.910156 16.953125 11.828125 17 Z M 11.726562 17.058594 "/>
<path fill-rule="nonzero" fill="rgb(100%, 79.998779%, 30.195618%)" fill-opacity="1" d="M 17.113281 13.792969 C 17.191406 13.839844 17.207031 13.96875 17.140625 14.078125 L 15.5 16.925781 C 15.433594 17.035156 15.320312 17.089844 15.238281 17.042969 L 15.136719 16.984375 C 15.058594 16.9375 15.042969 16.8125 15.105469 16.699219 L 16.75 13.851562 C 16.816406 13.742188 16.929688 13.6875 17.011719 13.734375 Z M 17.113281 13.792969 "/>
<path fill-rule="nonzero" fill="rgb(86.665344%, 18.03894%, 26.66626%)" fill-opacity="1" d="M 12 15.75 L 11.25 16.5 L 11.25 17.25 L 12 16.5 Z M 15 15.75 L 15 16.5 L 15.75 17.25 L 15.75 16.5 Z M 15 15.75 "/>
<path fill-rule="nonzero" fill="rgb(100%, 79.998779%, 30.195618%)" fill-opacity="1" d="M 13.5 12.75 L 12.75 12 L 12.75 14.21875 L 13.5 15 L 14.25 14.21875 L 14.25 12 Z M 13.5 12.75 "/>
</svg>
