<?xml version="1.0" encoding="UTF-8"?>
<svg xmlns="http://www.w3.org/2000/svg" xmlns:xlink="http://www.w3.org/1999/xlink" width="27pt" height="27pt" viewBox="0 0 27 27">
<path fill-rule="nonzero" fill="rgb(100%, 79.998779%, 30.195618%)" fill-opacity="1" d="M 27 20.25 C 27 21.90625 25.65625 23.25 24 23.25 L 3 23.25 C 1.34375 23.25 0 21.90625 0 20.25 L 0 6.75 C 0 5.09375 1.34375 3.75 3 3.75 L 24 3.75 C 25.65625 3.75 27 5.09375 27 6.75 Z M 27 20.25 "/>
<path fill-rule="nonzero" fill="rgb(86.665344%, 18.03894%, 26.66626%)" fill-opacity="1" d="M 26.25 20.25 C 26.25 21.492188 25.242188 22.5 24 22.5 L 3 22.5 C 1.757812 22.5 0.75 21.492188 0.75 20.25 L 0.75 6.75 C 0.75 5.507812 1.757812 4.5 3 4.5 L 24 4.5 C 25.242188 4.5 26.25 5.507812 26.25 6.75 Z M 26.25 20.25 "/>
<path fill-rule="nonzero" fill="rgb(100%, 79.998779%, 30.195618%)" fill-opacity="1" d="M 17.164062 13.050781 C 17.617188 11.242188 16.148438 9.644531 16.148438 9.644531 L 15.761719 11.519531 L 14.972656 12.5625 L 15.300781 13.148438 L 14.972656 13.328125 L 14.195312 12.25 L 14.484375 11.597656 L 15.484375 11.082031 L 14.375 10.714844 L 13.703125 11.496094 L 13.5 12.363281 L 13.242188 11.496094 L 12.515625 10.714844 L 11.476562 10.953125 L 12.347656 11.535156 L 12.699219 12.25 L 11.984375 13.363281 L 11.59375 13.144531 L 11.921875 12.5625 L 11.128906 11.519531 L 10.746094 9.644531 C 10.746094 9.644531 9.277344 11.242188 9.730469 13.050781 C 10.183594 14.859375 12.128906 15.109375 12.128906 15.109375 L 10.890625 15.949219 L 10.167969 16.007812 L 10.042969 16.804688 L 10.699219 17.109375 L 11.277344 16.476562 L 12.714844 15.949219 L 11.894531 17.144531 L 13.5 18 L 15.050781 17.144531 L 14.25 16.011719 L 14.25 15.964844 L 15.628906 16.476562 L 16.199219 17.109375 L 16.855469 16.804688 L 16.730469 16.007812 L 16.003906 15.949219 L 14.761719 15.113281 C 14.761719 15.109375 16.710938 14.859375 17.164062 13.050781 Z M 17.164062 13.050781 "/>
<path fill-rule="nonzero" fill="rgb(36.077881%, 56.861877%, 23.136902%)" fill-opacity="1" d="M 13.5 14.625 L 13.5 15.597656 C 13.5 15.597656 13.363281 15.394531 12.9375 15.269531 C 12.375 15.105469 12.28125 14.625 12.28125 14.625 Z M 13.5 14.625 L 13.5 15.597656 C 13.5 15.597656 13.636719 15.394531 14.0625 15.269531 C 14.625 15.105469 14.71875 14.625 14.71875 14.625 Z M 13.5 14.625 "/>
<path fill-rule="nonzero" fill="rgb(13.33313%, 39.99939%, 59.999084%)" fill-opacity="1" d="M 12.550781 12.597656 C 12.550781 12.597656 13.101562 12.820312 13.5 12.621094 L 13.5 14.53125 L 12.28125 14.53125 C 12.28125 14.53125 12.234375 14.121094 12.398438 13.582031 C 12.5 13.246094 12.304688 12.972656 12.304688 12.972656 Z M 14.449219 12.597656 C 14.449219 12.597656 13.902344 12.820312 13.5 12.621094 L 13.5 14.53125 L 14.71875 14.53125 C 14.71875 14.53125 14.765625 14.121094 14.601562 13.582031 C 14.5 13.246094 14.695312 12.972656 14.695312 12.972656 Z M 17.308594 15.878906 C 17.308594 16.210938 17.042969 16.476562 16.710938 16.476562 C 16.378906 16.476562 16.113281 16.210938 16.113281 15.878906 C 16.113281 15.546875 16.378906 15.28125 16.710938 15.28125 C 17.042969 15.28125 17.308594 15.546875 17.308594 15.878906 Z M 17.308594 15.878906 "/>
<path fill-rule="nonzero" fill="rgb(100%, 79.998779%, 30.195618%)" fill-opacity="1" d="M 14.273438 10.515625 C 14.273438 10.683594 13.945312 10.816406 13.539062 10.816406 C 13.136719 10.816406 12.808594 10.683594 12.808594 10.515625 C 12.808594 10.351562 13.136719 10.21875 13.539062 10.21875 C 13.945312 10.21875 14.273438 10.351562 14.273438 10.515625 Z M 14.273438 10.515625 "/>
<path fill-rule="nonzero" fill="rgb(100%, 79.998779%, 30.195618%)" fill-opacity="1" d="M 13.523438 9.1875 C 12.890625 9.1875 12.375 9.484375 12.375 9.851562 C 12.375 10.214844 12.890625 10.511719 13.523438 10.511719 C 14.15625 10.511719 14.671875 10.214844 14.671875 9.851562 C 14.671875 9.484375 14.15625 9.1875 13.523438 9.1875 Z M 12.714844 10.128906 C 12.574219 10.066406 12.574219 9.902344 12.597656 9.785156 C 12.621094 9.667969 12.820312 9.550781 12.820312 9.550781 C 12.820312 9.550781 12.683594 9.835938 12.800781 9.957031 C 12.914062 10.078125 12.855469 10.1875 12.714844 10.128906 Z M 13.199219 10.117188 C 13.148438 10.101562 13.140625 10.046875 13.109375 9.949219 C 13.078125 9.855469 13.042969 9.785156 13.066406 9.667969 C 13.089844 9.550781 13.382812 9.453125 13.382812 9.453125 C 13.382812 9.453125 13.300781 9.691406 13.324219 9.808594 C 13.347656 9.925781 13.441406 10.050781 13.441406 10.050781 C 13.441406 10.050781 13.25 10.132812 13.199219 10.117188 Z M 13.925781 9.949219 C 13.890625 10.046875 13.886719 10.101562 13.835938 10.117188 C 13.785156 10.132812 13.59375 10.050781 13.59375 10.050781 C 13.59375 10.050781 13.6875 9.925781 13.710938 9.808594 C 13.734375 9.691406 13.652344 9.453125 13.652344 9.453125 C 13.652344 9.453125 13.945312 9.550781 13.96875 9.667969 C 13.992188 9.785156 13.957031 9.855469 13.925781 9.949219 Z M 14.320312 10.128906 C 14.179688 10.1875 14.121094 10.078125 14.234375 9.957031 C 14.351562 9.835938 14.214844 9.550781 14.214844 9.550781 C 14.214844 9.550781 14.414062 9.667969 14.4375 9.785156 C 14.460938 9.902344 14.460938 10.066406 14.320312 10.128906 Z M 17.304688 15.945312 C 17.285156 16.023438 17.203125 16.074219 17.121094 16.054688 L 16.292969 15.839844 C 16.210938 15.816406 16.164062 15.734375 16.183594 15.652344 C 16.203125 15.570312 16.289062 15.523438 16.367188 15.542969 L 17.195312 15.757812 C 17.277344 15.777344 17.328125 15.859375 17.304688 15.945312 Z M 17.304688 15.945312 "/>
<path fill-rule="nonzero" fill="rgb(100%, 79.998779%, 30.195618%)" fill-opacity="1" d="M 16.871094 15.847656 C 16.851562 15.921875 16.78125 15.964844 16.707031 15.945312 C 16.632812 15.925781 16.59375 15.851562 16.609375 15.78125 L 16.796875 14.933594 C 16.8125 14.859375 16.886719 14.816406 16.960938 14.835938 C 17.035156 14.855469 17.074219 14.929688 17.054688 15 Z M 11.125 17.90625 C 11.082031 17.921875 11 17.828125 10.949219 17.699219 L 9.492188 13.992188 C 9.4375 13.859375 9.433594 13.738281 9.476562 13.71875 L 9.550781 13.691406 C 9.597656 13.671875 9.789062 13.722656 9.839844 13.855469 L 11.296875 17.558594 C 11.351562 17.691406 11.246094 17.859375 11.199219 17.878906 Z M 12.886719 13.6875 L 14.109375 13.6875 L 14.109375 14.53125 L 12.886719 14.53125 Z M 12.886719 13.6875 "/>
</svg>
