<?xml version="1.0" encoding="UTF-8"?>
<svg xmlns="http://www.w3.org/2000/svg" xmlns:xlink="http://www.w3.org/1999/xlink" width="27pt" height="27pt" viewBox="0 0 27 27">
<path fill-rule="nonzero" fill="rgb(0%, 40.783691%, 27.842712%)" fill-opacity="1" d="M 3 3.75 C 1.34375 3.75 0 5.09375 0 6.75 L 0 20.25 C 0 21.90625 1.34375 23.25 3 23.25 L 8.25 23.25 L 8.25 3.75 Z M 3 3.75 "/>
<path fill-rule="nonzero" fill="rgb(80.783081%, 6.666565%, 14.901733%)" fill-opacity="1" d="M 24 3.75 L 18.75 3.75 L 18.75 23.25 L 24 23.25 C 25.65625 23.25 27 21.90625 27 20.25 L 27 6.75 C 27 5.09375 25.65625 3.75 24 3.75 Z M 24 3.75 "/>
<path fill-rule="nonzero" fill="rgb(93.331909%, 93.331909%, 93.331909%)" fill-opacity="1" d="M 8.25 3.75 L 18.75 3.75 L 18.75 23.25 L 8.25 23.25 Z M 8.25 3.75 "/>
<path fill-rule="nonzero" fill="rgb(65.097046%, 82.743835%, 53.33252%)" fill-opacity="1" d="M 17.25 13.5 C 17.25 15.570312 15.570312 17.25 13.5 17.25 C 11.429688 17.25 9.75 15.570312 9.75 13.5 L 9 13.5 C 9 15.984375 11.015625 18 13.5 18 C 15.984375 18 18 15.984375 18 13.5 Z M 17.25 13.5 "/>
<path fill-rule="nonzero" fill="rgb(36.077881%, 56.861877%, 23.136902%)" fill-opacity="1" d="M 10.15625 15.203125 C 10.089844 15.066406 9.949219 14.992188 9.804688 15 C 9.753906 15 9.703125 15.011719 9.652344 15.039062 C 9.46875 15.132812 9.394531 15.359375 9.488281 15.542969 C 9.554688 15.675781 9.628906 15.804688 9.710938 15.929688 L 9.714844 15.933594 L 9.714844 15.9375 L 9.71875 15.945312 L 9.726562 15.953125 L 9.726562 15.960938 L 9.734375 15.96875 L 9.734375 15.972656 L 9.738281 15.976562 L 9.738281 15.980469 L 9.742188 15.984375 L 9.742188 15.988281 L 9.75 15.996094 L 9.75 16 L 9.753906 16.007812 L 9.757812 16.011719 C 9.796875 16.070312 9.835938 16.125 9.878906 16.183594 C 9.957031 16.285156 10.078125 16.335938 10.195312 16.332031 C 10.265625 16.328125 10.339844 16.304688 10.402344 16.257812 C 10.570312 16.136719 10.601562 15.898438 10.480469 15.734375 C 10.359375 15.566406 10.25 15.386719 10.15625 15.203125 Z M 9.785156 14.015625 C 9.769531 13.898438 9.757812 13.777344 9.753906 13.65625 C 9.75 13.566406 9.75 13.480469 9.75 13.390625 C 9.757812 13.183594 9.59375 13.011719 9.386719 13.003906 L 9.359375 13.003906 C 9.164062 13.015625 9.007812 13.171875 9 13.371094 C 9 13.449219 9 13.523438 9 13.601562 L 9 13.722656 L 9.003906 13.726562 L 9.003906 13.765625 C 9.011719 13.882812 9.023438 14.003906 9.039062 14.121094 C 9.066406 14.316406 9.234375 14.453125 9.425781 14.445312 C 9.4375 14.445312 9.449219 14.441406 9.460938 14.441406 C 9.671875 14.410156 9.8125 14.222656 9.785156 14.015625 Z M 13.753906 17.242188 L 13.75 17.242188 L 13.65625 17.246094 C 13.480469 17.253906 13.300781 17.25 13.125 17.230469 C 13.105469 17.230469 13.089844 17.230469 13.070312 17.230469 C 12.886719 17.238281 12.734375 17.378906 12.714844 17.566406 C 12.695312 17.773438 12.84375 17.957031 13.050781 17.976562 L 13.144531 17.984375 L 13.148438 17.988281 L 13.148438 17.984375 L 13.152344 17.988281 L 13.191406 17.988281 L 13.195312 17.992188 L 13.207031 17.992188 C 13.320312 17.996094 13.433594 18 13.550781 18 L 13.621094 18 L 13.625 17.996094 L 13.628906 18 L 13.628906 17.996094 L 13.632812 18 L 13.636719 17.996094 L 13.707031 17.996094 C 13.738281 17.992188 13.769531 17.992188 13.800781 17.988281 C 14.003906 17.972656 14.152344 17.796875 14.140625 17.59375 C 14.136719 17.390625 13.960938 17.234375 13.753906 17.242188 Z M 11.925781 16.902344 C 11.738281 16.816406 11.554688 16.714844 11.382812 16.597656 C 11.3125 16.546875 11.234375 16.527344 11.15625 16.53125 C 11.042969 16.535156 10.929688 16.589844 10.859375 16.695312 C 10.746094 16.863281 10.789062 17.097656 10.957031 17.214844 L 10.960938 17.214844 L 10.96875 17.222656 L 10.972656 17.222656 L 10.976562 17.226562 C 11.175781 17.363281 11.386719 17.484375 11.609375 17.585938 C 11.664062 17.613281 11.722656 17.621094 11.78125 17.621094 C 11.917969 17.613281 12.046875 17.535156 12.105469 17.402344 C 12.195312 17.214844 12.113281 16.992188 11.925781 16.902344 Z M 15.699219 16.605469 C 15.632812 16.609375 15.570312 16.628906 15.511719 16.664062 C 15.335938 16.777344 15.152344 16.875 14.960938 16.957031 C 14.769531 17.035156 14.679688 17.253906 14.761719 17.445312 C 14.824219 17.59375 14.972656 17.679688 15.121094 17.675781 C 15.164062 17.675781 15.207031 17.664062 15.25 17.648438 L 15.351562 17.601562 L 15.359375 17.597656 L 15.367188 17.597656 L 15.371094 17.59375 L 15.375 17.59375 L 15.378906 17.589844 L 15.382812 17.589844 L 15.386719 17.585938 L 15.394531 17.585938 L 15.394531 17.582031 C 15.398438 17.582031 15.398438 17.582031 15.398438 17.582031 L 15.402344 17.578125 L 15.410156 17.578125 L 15.414062 17.574219 L 15.417969 17.574219 L 15.425781 17.566406 L 15.433594 17.566406 L 15.441406 17.558594 L 15.449219 17.558594 L 15.453125 17.554688 L 15.460938 17.554688 L 15.464844 17.550781 L 15.476562 17.542969 L 15.480469 17.542969 L 15.492188 17.535156 L 15.496094 17.535156 L 15.5 17.53125 L 15.503906 17.53125 L 15.511719 17.527344 L 15.511719 17.523438 L 15.519531 17.523438 L 15.535156 17.515625 L 15.539062 17.511719 L 15.550781 17.507812 L 15.554688 17.503906 C 15.558594 17.503906 15.558594 17.503906 15.5625 17.503906 C 15.5625 17.5 15.566406 17.5 15.566406 17.5 L 15.570312 17.496094 L 15.585938 17.488281 L 15.589844 17.488281 L 15.59375 17.484375 L 15.597656 17.484375 L 15.605469 17.480469 L 15.613281 17.472656 L 15.621094 17.472656 L 15.621094 17.46875 L 15.625 17.46875 L 15.628906 17.464844 L 15.632812 17.464844 L 15.636719 17.460938 L 15.640625 17.460938 L 15.644531 17.457031 L 15.648438 17.457031 L 15.652344 17.453125 C 15.648438 17.453125 15.652344 17.453125 15.652344 17.453125 L 15.65625 17.453125 L 15.65625 17.449219 L 15.664062 17.449219 L 15.667969 17.445312 C 15.667969 17.445312 15.667969 17.445312 15.671875 17.441406 L 15.675781 17.441406 L 15.679688 17.4375 L 15.683594 17.4375 L 15.691406 17.429688 L 15.699219 17.429688 L 15.707031 17.421875 L 15.710938 17.421875 L 15.710938 17.417969 C 15.714844 17.421875 15.714844 17.417969 15.714844 17.417969 L 15.71875 17.417969 L 15.722656 17.414062 L 15.726562 17.414062 L 15.726562 17.410156 L 15.734375 17.410156 C 15.734375 17.40625 15.738281 17.40625 15.738281 17.40625 L 15.746094 17.398438 L 15.753906 17.398438 L 15.753906 17.394531 L 15.769531 17.386719 C 15.773438 17.386719 15.777344 17.382812 15.785156 17.378906 C 15.832031 17.351562 15.878906 17.320312 15.925781 17.292969 C 16.101562 17.179688 16.152344 16.949219 16.039062 16.773438 C 15.953125 16.664062 15.828125 16.601562 15.699219 16.605469 Z M 17.625 13.140625 L 17.609375 13.144531 C 17.410156 13.152344 17.25 13.316406 17.25 13.515625 C 17.25 13.722656 17.230469 13.933594 17.195312 14.136719 C 17.160156 14.339844 17.296875 14.535156 17.5 14.570312 C 17.527344 14.574219 17.554688 14.578125 17.582031 14.578125 C 17.753906 14.570312 17.90625 14.441406 17.933594 14.265625 L 17.933594 14.261719 L 17.9375 14.257812 L 17.9375 14.242188 C 17.941406 14.242188 17.941406 14.238281 17.941406 14.238281 L 17.941406 14.234375 C 17.957031 14.136719 17.96875 14.039062 17.980469 13.941406 L 17.976562 13.941406 L 17.980469 13.9375 L 17.980469 13.914062 L 17.984375 13.914062 L 17.980469 13.910156 L 17.980469 13.90625 C 17.984375 13.90625 17.984375 13.90625 17.984375 13.90625 L 17.984375 13.886719 C 17.992188 13.765625 18 13.640625 18 13.515625 C 18 13.3125 17.832031 13.144531 17.625 13.140625 Z M 17.292969 15.164062 C 17.230469 15.128906 17.164062 15.113281 17.097656 15.117188 C 16.96875 15.121094 16.851562 15.191406 16.785156 15.3125 C 16.683594 15.492188 16.566406 15.667969 16.4375 15.832031 C 16.308594 15.992188 16.335938 16.226562 16.496094 16.355469 C 16.570312 16.414062 16.660156 16.441406 16.746094 16.4375 C 16.851562 16.433594 16.953125 16.386719 17.023438 16.296875 C 17.109375 16.1875 17.195312 16.074219 17.273438 15.957031 C 17.273438 15.949219 17.277344 15.945312 17.28125 15.941406 L 17.285156 15.933594 L 17.285156 15.929688 C 17.289062 15.929688 17.289062 15.925781 17.289062 15.925781 L 17.292969 15.921875 C 17.296875 15.917969 17.296875 15.917969 17.296875 15.914062 L 17.300781 15.910156 C 17.300781 15.910156 17.300781 15.90625 17.300781 15.90625 L 17.304688 15.90625 L 17.304688 15.898438 L 17.308594 15.898438 L 17.308594 15.894531 L 17.3125 15.894531 L 17.3125 15.890625 L 17.316406 15.886719 L 17.316406 15.882812 L 17.320312 15.878906 C 17.320312 15.878906 17.320312 15.875 17.320312 15.875 L 17.324219 15.871094 C 17.324219 15.871094 17.324219 15.871094 17.328125 15.867188 L 17.328125 15.863281 L 17.335938 15.855469 L 17.335938 15.851562 L 17.339844 15.847656 C 17.339844 15.847656 17.339844 15.847656 17.339844 15.84375 C 17.339844 15.84375 17.339844 15.84375 17.34375 15.84375 L 17.34375 15.835938 L 17.347656 15.835938 L 17.347656 15.832031 C 17.351562 15.832031 17.351562 15.832031 17.351562 15.832031 C 17.351562 15.828125 17.351562 15.828125 17.351562 15.828125 L 17.351562 15.824219 L 17.355469 15.820312 L 17.355469 15.816406 L 17.359375 15.816406 L 17.359375 15.8125 L 17.367188 15.804688 L 17.367188 15.800781 C 17.367188 15.800781 17.367188 15.800781 17.367188 15.796875 L 17.371094 15.796875 L 17.371094 15.792969 L 17.375 15.789062 L 17.375 15.785156 L 17.378906 15.78125 L 17.378906 15.777344 L 17.382812 15.777344 L 17.382812 15.773438 L 17.386719 15.769531 C 17.386719 15.769531 17.386719 15.769531 17.386719 15.765625 C 17.386719 15.765625 17.386719 15.765625 17.390625 15.765625 L 17.390625 15.761719 L 17.394531 15.757812 L 17.394531 15.753906 L 17.398438 15.75 L 17.398438 15.746094 L 17.402344 15.746094 L 17.402344 15.742188 C 17.402344 15.742188 17.402344 15.738281 17.402344 15.738281 L 17.410156 15.730469 L 17.410156 15.726562 L 17.414062 15.722656 L 17.414062 15.71875 L 17.421875 15.710938 L 17.421875 15.703125 L 17.425781 15.703125 L 17.445312 15.667969 C 17.539062 15.492188 17.476562 15.265625 17.292969 15.164062 Z M 17.292969 15.164062 "/>
<path fill-rule="nonzero" fill="rgb(33.332825%, 67.449951%, 93.331909%)" fill-opacity="1" d="M 15.75 15.75 C 15.75 16.164062 14.742188 16.5 13.5 16.5 C 12.257812 16.5 11.25 16.164062 11.25 15.75 C 11.25 15.335938 12.257812 15 13.5 15 C 14.742188 15 15.75 15.335938 15.75 15.75 Z M 15.75 15.75 "/>
<path fill-rule="nonzero" fill="rgb(100%, 79.998779%, 30.195618%)" fill-opacity="1" d="M 15 15.75 C 15 16.164062 14.496094 16.5 13.875 16.5 C 13.253906 16.5 12.75 16.164062 12.75 15.75 C 12.75 15.335938 13.253906 15 13.875 15 C 14.496094 15 15 15.335938 15 15.75 Z M 15 15.75 "/>
<path fill-rule="nonzero" fill="rgb(36.077881%, 56.861877%, 23.136902%)" fill-opacity="1" d="M 14.335938 15.957031 C 14.277344 15.957031 14.214844 15.941406 14.160156 15.910156 C 13.976562 15.8125 13.910156 15.582031 14.007812 15.402344 C 14.128906 15.179688 14.253906 14.980469 14.382812 14.804688 C 14.28125 14.808594 14.171875 14.8125 14.0625 14.8125 C 13.855469 14.8125 13.664062 14.644531 13.664062 14.4375 C 13.664062 14.230469 13.8125 14.0625 14.019531 14.0625 L 14.082031 14.0625 C 14.304688 14.0625 14.53125 14.046875 14.734375 14.03125 C 14.855469 14.015625 14.96875 14.066406 15.042969 14.148438 C 15.054688 14.136719 15.0625 14.128906 15.074219 14.125 C 15.148438 14.074219 15.21875 14.035156 15.285156 14.003906 C 15.328125 13.96875 15.382812 13.941406 15.441406 13.933594 L 15.46875 13.925781 C 15.609375 13.882812 15.710938 13.875 15.75 13.875 C 15.871094 13.875 15.980469 13.929688 16.050781 14.027344 C 16.121094 14.125 16.144531 14.246094 16.109375 14.359375 C 16.046875 14.558594 15.910156 14.605469 15.667969 14.652344 C 15.625 14.671875 15.5625 14.699219 15.488281 14.75 C 15.347656 14.839844 15.164062 14.828125 15.039062 14.722656 C 15.144531 14.855469 15.148438 15.046875 15.039062 15.183594 C 14.910156 15.347656 14.785156 15.539062 14.667969 15.757812 C 14.597656 15.886719 14.46875 15.957031 14.335938 15.957031 Z M 13.273438 14.765625 C 13.257812 14.765625 13.238281 14.761719 13.222656 14.761719 C 12.941406 14.722656 12.675781 14.667969 12.429688 14.59375 C 12.234375 14.535156 12.121094 14.328125 12.179688 14.128906 L 12.183594 14.113281 L 12.175781 14.128906 C 12.074219 14.3125 11.84375 14.375 11.664062 14.273438 C 11.410156 14.132812 11.179688 13.960938 10.984375 13.765625 C 10.835938 13.617188 10.835938 13.378906 10.984375 13.234375 C 11.128906 13.085938 11.367188 13.085938 11.511719 13.234375 C 11.660156 13.382812 11.835938 13.511719 12.027344 13.621094 C 12.191406 13.710938 12.257812 13.902344 12.199219 14.066406 C 12.28125 13.90625 12.464844 13.824219 12.644531 13.875 C 12.851562 13.9375 13.078125 13.984375 13.320312 14.015625 C 13.523438 14.042969 13.667969 14.230469 13.640625 14.4375 C 13.621094 14.625 13.457031 14.765625 13.273438 14.765625 Z M 11.433594 13.007812 C 11.113281 13.007812 10.699219 12.886719 10.449219 12.589844 C 10.066406 12.136719 9.839844 11.554688 9.875 11.109375 C 9.882812 10.992188 9.769531 10.894531 9.652344 10.867188 C 9.589844 10.847656 9.472656 10.835938 9.421875 10.953125 C 9.375 11.046875 9.265625 11.089844 9.171875 11.046875 C 9.078125 11 9.035156 10.890625 9.078125 10.796875 C 9.195312 10.542969 9.460938 10.429688 9.75 10.503906 C 10.015625 10.570312 10.273438 10.8125 10.25 11.140625 C 10.222656 11.484375 10.417969 11.972656 10.734375 12.347656 C 10.902344 12.546875 11.195312 12.625 11.390625 12.632812 C 11.554688 12.640625 11.636719 12.605469 11.652344 12.589844 C 11.609375 12.488281 11.054688 12.195312 10.816406 12.070312 C 10.617188 11.964844 10.554688 11.820312 10.542969 11.71875 C 10.492188 11.375 10.839844 11.03125 11.179688 10.699219 C 11.300781 10.582031 11.414062 10.46875 11.472656 10.386719 C 11.542969 10.296875 11.53125 10.234375 11.519531 10.195312 C 11.46875 10.054688 11.242188 9.917969 10.972656 9.855469 C 10.722656 9.800781 10.554688 9.679688 10.472656 9.496094 C 10.363281 9.257812 10.421875 8.941406 10.648438 8.535156 C 10.699219 8.441406 10.8125 8.410156 10.902344 8.460938 C 10.992188 8.511719 11.027344 8.625 10.976562 8.714844 C 10.761719 9.101562 10.78125 9.273438 10.8125 9.34375 C 10.847656 9.414062 10.925781 9.460938 11.054688 9.488281 C 11.371094 9.558594 11.753906 9.75 11.871094 10.066406 C 11.9375 10.246094 11.902344 10.441406 11.773438 10.613281 C 11.695312 10.714844 11.574219 10.835938 11.445312 10.964844 C 11.25 11.15625 10.890625 11.511719 10.914062 11.664062 C 10.917969 11.695312 10.957031 11.722656 10.992188 11.742188 C 11.554688 12.035156 11.929688 12.25 12.007812 12.511719 C 12.035156 12.605469 12.023438 12.695312 11.976562 12.78125 C 11.902344 12.90625 11.75 12.984375 11.535156 13.003906 C 11.503906 13.007812 11.46875 13.007812 11.433594 13.007812 Z M 11.433594 13.007812 "/>
<path fill-rule="nonzero" fill="rgb(100%, 79.998779%, 30.195618%)" fill-opacity="1" d="M 15 13.5 C 15 13.914062 14.832031 14.25 14.625 14.25 C 14.417969 14.25 14.25 13.914062 14.25 13.5 C 14.25 13.085938 14.417969 12.75 14.625 12.75 C 14.832031 12.75 15 13.085938 15 13.5 Z M 15 13.5 "/>
<path fill-rule="nonzero" fill="rgb(100%, 79.998779%, 30.195618%)" fill-opacity="1" d="M 12.96875 12.890625 C 12.96875 13.105469 12.710938 13.28125 12.390625 13.28125 C 12.070312 13.28125 11.8125 13.105469 11.8125 12.890625 C 11.8125 12.675781 12.070312 12.5 12.390625 12.5 C 12.710938 12.5 12.96875 12.675781 12.96875 12.890625 Z M 12.078125 9.421875 C 12.117188 9.578125 11.910156 9.765625 11.613281 9.835938 C 11.320312 9.90625 11.050781 9.832031 11.015625 9.671875 C 10.976562 9.515625 11.183594 9.328125 11.476562 9.257812 C 11.773438 9.1875 12.042969 9.261719 12.078125 9.421875 Z M 12.078125 9.421875 "/>
<path fill-rule="nonzero" fill="rgb(75.68512%, 41.175842%, 30.979919%)" fill-opacity="1" d="M 16.898438 13.464844 C 16.96875 13.519531 17.082031 12.917969 17.066406 12.734375 C 17.066406 12.71875 17.042969 12.324219 17.128906 12.039062 C 17.179688 11.945312 17.183594 11.226562 17.101562 11.039062 C 17.164062 11.035156 17.242188 11.015625 17.25 10.9375 C 16.960938 11.042969 16.890625 10.324219 16.609375 9.910156 C 16.339844 9.496094 16.003906 9.253906 15.652344 9.003906 C 15.675781 8.933594 15.71875 8.867188 15.773438 8.800781 C 15.339844 9.015625 14.667969 8.234375 13.675781 8.292969 C 13.453125 8.3125 13.347656 8.328125 13.289062 8.464844 C 13.105469 8.480469 12.917969 8.519531 12.917969 8.765625 C 12.917969 8.824219 12.96875 8.929688 13.089844 8.929688 C 13.25 8.976562 13.382812 8.941406 13.492188 9.167969 L 13.523438 9.402344 C 13.523438 9.402344 13.378906 9.214844 13.296875 9.1875 L 13.347656 9.085938 C 13.273438 9.042969 13.140625 9.078125 13.140625 9.078125 C 13.140625 9.078125 12.851562 8.945312 12.617188 8.980469 L 12.574219 8.792969 C 12.535156 8.90625 12.441406 8.902344 12.429688 9.011719 C 12.402344 8.933594 12.371094 8.835938 12.347656 8.757812 C 12.265625 8.867188 12.289062 8.988281 12.257812 9.105469 C 12.226562 9.132812 12.164062 9.132812 12.148438 9.058594 C 12.140625 8.964844 12.128906 8.957031 12.128906 8.847656 C 12.070312 8.953125 12 9.003906 11.976562 9.179688 L 11.914062 8.984375 C 11.914062 9.214844 11.71875 9.351562 11.53125 9.515625 C 11.476562 9.609375 11.539062 9.613281 11.542969 9.664062 L 11.640625 9.710938 L 11.820312 9.699219 C 11.847656 9.734375 11.824219 9.738281 11.902344 9.761719 C 12.109375 9.820312 12.367188 9.570312 12.570312 9.960938 C 12.476562 10.039062 12.382812 10.222656 12.414062 10.257812 C 12.449219 10.257812 12.335938 10.308594 12.488281 10.261719 C 12.332031 10.414062 12.226562 10.617188 12.226562 10.628906 C 12.207031 10.671875 12.289062 10.621094 12.273438 10.699219 L 12.308594 10.695312 C 11.949219 11.085938 12.296875 11.503906 12.257812 11.726562 C 12.320312 11.824219 12.328125 11.726562 12.402344 11.714844 C 12.464844 11.992188 12.644531 12.160156 12.757812 12.375 L 12.523438 12.378906 C 12.527344 12.480469 12.621094 12.582031 12.695312 12.671875 L 12.539062 12.722656 C 12.425781 12.777344 12.355469 12.839844 12.273438 12.925781 C 12.222656 13.050781 12.523438 13.082031 12.671875 13.105469 L 12.664062 13.257812 C 12.890625 13.277344 13.15625 13.210938 13.15625 13.199219 L 13.210938 13.152344 L 13.339844 13.226562 C 13.382812 13.226562 13.449219 13.054688 13.417969 12.921875 C 13.5 13.019531 13.578125 13.179688 13.660156 13.277344 L 13.738281 13.265625 C 13.808594 13.378906 13.90625 13.492188 13.976562 13.601562 L 14.054688 13.632812 C 14.101562 13.617188 14.140625 13.609375 14.164062 13.519531 L 14.203125 13.585938 L 14.324219 13.5 L 14.414062 13.480469 L 14.476562 13.585938 C 14.515625 13.574219 14.554688 13.492188 14.554688 13.402344 C 14.59375 13.480469 14.605469 13.472656 14.632812 13.492188 L 14.691406 13.371094 L 15.003906 13.664062 L 15.238281 13.675781 C 15.324219 13.734375 15.554688 13.769531 15.589844 13.675781 C 15.78125 13.757812 16.003906 13.667969 15.992188 13.578125 C 16.167969 13.644531 16.433594 13.597656 16.433594 13.585938 C 16.464844 13.585938 16.546875 13.503906 16.472656 13.441406 C 15.894531 13.042969 15.042969 12.378906 14.714844 12.21875 C 14.714844 12.101562 14.625 11.671875 14.527344 11.558594 L 14.605469 11.425781 C 14.832031 11.636719 14.910156 11.617188 15.03125 11.648438 C 15.160156 11.75 15.203125 11.902344 15.328125 12.042969 L 15.445312 12.066406 C 15.367188 11.863281 15.265625 11.671875 15.027344 11.410156 C 15.152344 11.472656 15.355469 11.636719 15.492188 11.753906 C 15.582031 11.90625 15.609375 12.027344 15.691406 12.214844 C 15.75 12.253906 15.8125 12.394531 15.804688 12.277344 C 15.789062 12.058594 15.636719 11.710938 15.636719 11.6875 C 15.878906 11.882812 15.878906 12.183594 15.953125 12.367188 C 16.015625 12.460938 16.046875 12.585938 16.074219 12.554688 L 16 11.988281 L 15.957031 11.78125 C 16.140625 11.882812 16.203125 12.28125 16.289062 12.757812 C 16.289062 12.835938 16.320312 12.917969 16.316406 12.964844 C 16.355469 13.015625 16.398438 13.148438 16.398438 13.070312 C 16.398438 13.070312 16.398438 12.292969 16.34375 12.117188 C 16.332031 12.019531 16.367188 11.867188 16.367188 11.867188 C 16.433594 12.1875 16.503906 12.535156 16.570312 12.855469 L 16.570312 13.09375 L 16.667969 13.191406 C 16.6875 13 16.710938 12.804688 16.730469 12.609375 L 16.65625 11.917969 L 16.65625 11.71875 C 16.652344 11.648438 16.71875 11.664062 16.761719 11.742188 C 16.769531 11.914062 16.769531 12.046875 16.777344 12.214844 C 16.804688 12.40625 16.828125 12.550781 16.839844 12.796875 C 16.847656 12.996094 16.859375 13.472656 16.898438 13.464844 Z M 16.898438 13.464844 "/>
</svg>
