<?xml version="1.0" encoding="UTF-8"?>
<svg xmlns="http://www.w3.org/2000/svg" xmlns:xlink="http://www.w3.org/1999/xlink" width="27pt" height="27pt" viewBox="0 0 27 27">
<path fill-rule="nonzero" fill="rgb(0%, 14.117432%, 49.01886%)" fill-opacity="1" d="M 24 3.75 L 3 3.75 C 2.847656 3.75 2.695312 3.761719 2.546875 3.785156 L 2.542969 5.097656 L 0.496094 5.097656 C 0.183594 5.570312 0 6.140625 0 6.75 L 0 20.25 C 0 21.90625 1.34375 23.25 3 23.25 L 24 23.25 C 25.65625 23.25 27 21.90625 27 20.25 L 27 6.75 C 27 5.09375 25.65625 3.75 24 3.75 Z M 24 3.75 "/>
<path fill-rule="nonzero" fill="rgb(93.331909%, 92.939758%, 92.939758%)" fill-opacity="1" d="M 21.894531 7.125 L 20.949219 7.125 L 20.804688 6.691406 L 20.625 6.160156 L 20.445312 6.691406 L 20.300781 7.125 L 19.355469 7.125 L 19.753906 7.457031 L 20.109375 7.75 L 19.960938 8.191406 L 19.761719 8.777344 L 20.253906 8.398438 L 20.625 8.109375 L 20.996094 8.398438 L 21.488281 8.777344 L 21.289062 8.191406 L 21.140625 7.75 L 21.496094 7.457031 Z M 21.894531 7.125 "/>
<path fill-rule="nonzero" fill="rgb(81.175232%, 10.588074%, 16.862488%)" fill-opacity="1" d="M 20.625 6.75 L 20.4375 7.3125 L 19.875 7.3125 L 20.328125 7.6875 L 20.136719 8.25 L 20.625 7.875 L 21.113281 8.25 L 20.921875 7.6875 L 21.375 7.3125 L 20.8125 7.3125 Z M 20.625 6.75 "/>
<path fill-rule="nonzero" fill="rgb(93.331909%, 92.939758%, 92.939758%)" fill-opacity="1" d="M 21.894531 19.3125 L 20.949219 19.3125 L 20.804688 18.878906 L 20.625 18.347656 L 20.445312 18.878906 L 20.300781 19.3125 L 19.355469 19.3125 L 19.753906 19.644531 L 20.109375 19.9375 L 19.960938 20.378906 L 19.761719 20.964844 L 20.253906 20.585938 L 20.625 20.296875 L 20.996094 20.585938 L 21.488281 20.964844 L 21.289062 20.378906 L 21.140625 19.9375 L 21.496094 19.644531 Z M 21.894531 19.3125 "/>
<path fill-rule="nonzero" fill="rgb(81.175232%, 10.588074%, 16.862488%)" fill-opacity="1" d="M 20.625 18.9375 L 20.4375 19.5 L 19.875 19.5 L 20.328125 19.875 L 20.136719 20.4375 L 20.625 20.0625 L 21.113281 20.4375 L 20.921875 19.875 L 21.375 19.5 L 20.8125 19.5 Z M 20.625 18.9375 "/>
<path fill-rule="nonzero" fill="rgb(93.331909%, 92.939758%, 92.939758%)" fill-opacity="1" d="M 24.894531 10.125 L 23.949219 10.125 L 23.804688 9.691406 L 23.625 9.160156 L 23.445312 9.691406 L 23.300781 10.125 L 22.355469 10.125 L 22.753906 10.457031 L 23.109375 10.75 L 22.960938 11.191406 L 22.761719 11.777344 L 23.253906 11.398438 L 23.625 11.109375 L 23.996094 11.398438 L 24.488281 11.777344 L 24.289062 11.191406 L 24.140625 10.75 L 24.496094 10.457031 Z M 24.894531 10.125 "/>
<path fill-rule="nonzero" fill="rgb(81.175232%, 10.588074%, 16.862488%)" fill-opacity="1" d="M 23.625 9.75 L 23.4375 10.3125 L 22.875 10.3125 L 23.328125 10.6875 L 23.136719 11.25 L 23.625 10.875 L 24.113281 11.25 L 23.921875 10.6875 L 24.375 10.3125 L 23.8125 10.3125 Z M 23.625 9.75 "/>
<path fill-rule="nonzero" fill="rgb(93.331909%, 92.939758%, 92.939758%)" fill-opacity="1" d="M 18.894531 11.625 L 17.949219 11.625 L 17.804688 11.191406 L 17.625 10.660156 L 17.445312 11.191406 L 17.300781 11.625 L 16.355469 11.625 L 16.753906 11.957031 L 17.109375 12.25 L 16.960938 12.691406 L 16.761719 13.277344 L 17.253906 12.898438 L 17.625 12.609375 L 17.996094 12.898438 L 18.488281 13.277344 L 18.289062 12.691406 L 18.140625 12.25 L 18.496094 11.957031 Z M 18.894531 11.625 "/>
<path fill-rule="nonzero" fill="rgb(81.175232%, 10.588074%, 16.862488%)" fill-opacity="1" d="M 17.625 11.25 L 17.4375 11.8125 L 16.875 11.8125 L 17.328125 12.1875 L 17.136719 12.75 L 17.625 12.375 L 18.113281 12.75 L 17.921875 12.1875 L 18.375 11.8125 L 17.8125 11.8125 Z M 17.625 11.25 "/>
<path fill-rule="nonzero" fill="rgb(0%, 14.117432%, 49.01886%)" fill-opacity="1" d="M 14.25 13.5 L 14.25 3.75 L 3 3.75 C 2.761719 3.75 2.546875 3.785156 2.546875 3.785156 L 2.542969 5.097656 L 0.496094 5.097656 C 0.496094 5.097656 0.464844 5.140625 0.402344 5.25 C 0.144531 5.691406 0 6.203125 0 6.75 L 0 13.5 Z M 14.25 13.5 "/>
<path fill-rule="nonzero" fill="rgb(93.331909%, 93.331909%, 93.331909%)" fill-opacity="1" d="M 14.25 3.75 L 12.5 3.75 L 9 6.203125 L 9 3.75 L 5.25 3.75 L 5.25 5.675781 L 2.546875 3.785156 C 2.085938 3.855469 1.65625 4.027344 1.292969 4.28125 L 4.820312 6.75 L 3.515625 6.75 L 0.726562 4.792969 C 0.644531 4.890625 0.566406 4.988281 0.496094 5.097656 L 2.859375 6.75 L 0 6.75 L 0 10.5 L 2.914062 10.5 L 0 12.574219 L 0 13.5 L 2.5 13.5 L 5.25 11.574219 L 5.25 13.5 L 9 13.5 L 9 11.046875 L 12.5 13.5 L 14.25 13.5 L 14.25 11.976562 L 12.140625 10.5 L 14.25 10.5 L 14.25 6.75 L 12.140625 6.75 L 14.25 5.273438 Z M 14.25 3.75 "/>
<path fill-rule="nonzero" fill="rgb(81.175232%, 10.588074%, 16.862488%)" fill-opacity="1" d="M 8.25 3.75 L 6 3.75 L 6 7.5 L 0 7.5 L 0 9.75 L 6 9.75 L 6 13.5 L 8.25 13.5 L 8.25 9.75 L 14.25 9.75 L 14.25 7.5 L 8.25 7.5 Z M 8.25 3.75 "/>
<path fill-rule="nonzero" fill="rgb(81.175232%, 10.588074%, 16.862488%)" fill-opacity="1" d="M 14.25 3.75 L 13.152344 3.75 L 9 6.660156 L 9 6.75 L 10.179688 6.75 L 14.25 3.898438 Z M 1.292969 4.28125 C 1.082031 4.429688 0.890625 4.601562 0.726562 4.792969 L 3.515625 6.75 L 4.820312 6.75 Z M 4.828125 10.5 L 0.550781 13.5 L 1.847656 13.5 L 5.25 11.117188 L 5.25 10.5 Z M 14.25 13.351562 L 14.25 12.4375 L 11.484375 10.5 L 10.175781 10.5 Z M 14.25 13.351562 "/>
</svg>
