<?xml version="1.0" encoding="UTF-8"?>
<svg xmlns="http://www.w3.org/2000/svg" xmlns:xlink="http://www.w3.org/1999/xlink" width="27pt" height="27pt" viewBox="0 0 27 27">
<path fill-rule="nonzero" fill="rgb(0%, 39.99939%, 0%)" fill-opacity="1" d="M 27 20.25 C 27 21.90625 25.65625 23.25 24 23.25 L 3 23.25 C 1.34375 23.25 0 21.90625 0 20.25 L 0 6.75 C 0 5.09375 1.34375 3.75 3 3.75 L 24 3.75 C 25.65625 3.75 27 5.09375 27 6.75 Z M 27 20.25 "/>
<path fill-rule="nonzero" fill="rgb(83.528137%, 16.862488%, 11.764526%)" fill-opacity="1" d="M 24 3.75 L 11.25 3.75 L 11.25 23.25 L 24 23.25 C 25.65625 23.25 27 21.90625 27 20.25 L 27 6.75 C 27 5.09375 25.65625 3.75 24 3.75 Z M 24 3.75 "/>
<path fill-rule="nonzero" fill="rgb(100%, 79.998779%, 30.195618%)" fill-opacity="1" d="M 11.25 7.5 C 7.9375 7.5 5.25 10.1875 5.25 13.5 C 5.25 16.8125 7.9375 19.5 11.25 19.5 C 14.5625 19.5 17.25 16.8125 17.25 13.5 C 17.25 10.1875 14.5625 7.5 11.25 7.5 Z M 6.664062 10.945312 L 7.867188 12.148438 L 6.023438 13.070312 C 6.085938 12.304688 6.308594 11.582031 6.664062 10.945312 Z M 6.023438 13.929688 L 9.320312 15.585938 L 7.292969 16.9375 L 7.304688 16.953125 C 6.582031 16.132812 6.117188 15.085938 6.023438 13.929688 Z M 10.5 18.691406 C 9.796875 18.589844 9.140625 18.351562 8.554688 18 L 10.5 18 Z M 10.5 17.25 L 8.175781 17.25 L 10.5 15.699219 Z M 10.5 14.800781 L 10.042969 15.101562 L 6.839844 13.5 L 8.425781 12.707031 L 10.5 14.78125 Z M 10.5 13.71875 L 7.84375 11.0625 L 10.5 11.503906 Z M 10.5 10.726562 L 7.175781 10.191406 C 7.988281 9.191406 9.164062 8.5 10.5 8.308594 Z M 15.835938 10.945312 C 16.191406 11.582031 16.414062 12.304688 16.476562 13.070312 L 14.632812 12.148438 Z M 12 8.308594 C 13.335938 8.503906 14.511719 9.191406 15.324219 10.191406 L 12 10.726562 Z M 12 11.503906 L 14.65625 11.0625 L 12 13.71875 Z M 12 14.78125 L 14.074219 12.707031 L 15.660156 13.5 L 12.457031 15.101562 L 12 14.800781 Z M 12 18.691406 L 12 18 L 13.945312 18 C 13.359375 18.351562 12.703125 18.589844 12 18.691406 Z M 12 17.25 L 12 15.699219 L 14.324219 17.25 Z M 15.199219 16.953125 L 15.207031 16.9375 L 13.179688 15.585938 L 16.480469 13.929688 C 16.382812 15.085938 15.917969 16.132812 15.199219 16.953125 Z M 15.199219 16.953125 "/>
<path fill-rule="nonzero" fill="rgb(83.528137%, 16.862488%, 11.764526%)" fill-opacity="1" d="M 8.25 9.75 L 8.25 15 C 8.25 16.65625 9.59375 18 11.25 18 C 12.90625 18 14.25 16.65625 14.25 15 L 14.25 9.75 Z M 8.25 9.75 "/>
<path fill-rule="nonzero" fill="rgb(100%, 100%, 100%)" fill-opacity="1" d="M 9 10.5 L 9 15 C 9 16.242188 10.007812 17.25 11.25 17.25 C 12.492188 17.25 13.5 16.242188 13.5 15 L 13.5 10.5 Z M 9 10.5 "/>
<path fill-rule="nonzero" fill="rgb(50.979614%, 60.391235%, 80.39093%)" fill-opacity="1" d="M 9.75 12.75 L 12.75 12.75 L 12.75 14.25 L 9.75 14.25 Z M 9.75 12.75 "/>
<path fill-rule="nonzero" fill="rgb(50.979614%, 60.391235%, 80.39093%)" fill-opacity="1" d="M 10.5 12 L 12 12 L 12 15 L 10.5 15 Z M 10.5 12 "/>
<path fill-rule="nonzero" fill="rgb(0%, 19.999695%, 59.999084%)" fill-opacity="1" d="M 9 12.75 L 9.75 12.75 L 9.75 14.25 L 9 14.25 Z M 10.5 12.75 L 12 12.75 L 12 14.25 L 10.5 14.25 Z M 12.75 12.75 L 13.5 12.75 L 13.5 14.25 L 12.75 14.25 Z M 10.5 15 L 12 15 L 12 16.5 L 10.5 16.5 Z M 10.5 10.5 L 12 10.5 L 12 12 L 10.5 12 Z M 10.5 10.5 "/>
</svg>
