<?xml version="1.0" encoding="UTF-8"?>
<svg xmlns="http://www.w3.org/2000/svg" xmlns:xlink="http://www.w3.org/1999/xlink" width="27pt" height="27pt" viewBox="0 0 27 27">
<path fill-rule="nonzero" fill="rgb(4.705811%, 25.097656%, 46.273804%)" fill-opacity="1" d="M 0 9.75 L 27 9.75 L 27 17.25 L 0 17.25 Z M 0 9.75 "/>
<path fill-rule="nonzero" fill="rgb(93.331909%, 93.331909%, 93.331909%)" fill-opacity="1" d="M 0 20.25 C 0 21.90625 1.34375 23.25 3 23.25 L 24 23.25 C 25.65625 23.25 27 21.90625 27 20.25 L 27 17.25 L 0 17.25 Z M 0 20.25 "/>
<path fill-rule="nonzero" fill="rgb(77.645874%, 21.176147%, 23.529053%)" fill-opacity="1" d="M 27 6.75 C 27 5.09375 25.65625 3.75 24 3.75 L 3 3.75 C 1.34375 3.75 0 5.09375 0 6.75 L 0 9.75 L 27 9.75 Z M 5.25 9.75 L 5.25 16.875 C 5.25 19.152344 7.097656 21 9.375 21 C 11.652344 21 13.5 19.152344 13.5 16.875 L 13.5 9.75 Z M 5.25 9.75 "/>
<path fill-rule="nonzero" fill="rgb(92.939758%, 72.547913%, 18.03894%)" fill-opacity="1" d="M 9.375 5.296875 C 6.421875 5.296875 5.496094 6.550781 5.742188 7.019531 C 5.988281 7.488281 6.726562 8.695312 6.726562 8.695312 C 6.726562 8.695312 6.492188 8.789062 6.726562 9.257812 C 6.960938 9.726562 7.875 9.410156 9.375 9.410156 C 10.875 9.410156 11.789062 9.726562 12.023438 9.257812 C 12.257812 8.789062 12.023438 8.695312 12.023438 8.695312 C 12.023438 8.695312 12.761719 7.488281 13.007812 7.019531 C 13.253906 6.550781 12.328125 5.296875 9.375 5.296875 Z M 6.796875 7.523438 C 6.585938 7.589844 6.796875 8.238281 6.722656 7.957031 C 6.660156 7.726562 6.421875 7.628906 6.421875 7.757812 C 6.421875 7.886719 6.328125 7.757812 6.351562 7.523438 C 6.375 7.289062 6.304688 7.148438 6.164062 6.949219 C 6.023438 6.75 6.023438 6.574219 6.199219 6.457031 C 6.375 6.339844 6.761719 6.246094 6.761719 6.246094 C 6.761719 6.246094 6.914062 6.914062 6.996094 7.066406 C 7.078125 7.21875 7.230469 7.320312 7.230469 7.320312 C 7.230469 7.320312 7.160156 7.429688 7.230469 7.488281 C 7.300781 7.546875 7.382812 7.6875 7.382812 7.6875 C 7.382812 7.6875 7.125 7.476562 7.078125 7.523438 C 7.03125 7.570312 7.136719 7.628906 7.125 7.710938 C 7.113281 7.792969 6.984375 7.464844 6.796875 7.523438 Z M 9.1875 7.535156 C 9.128906 7.59375 9.082031 7.488281 8.964844 7.40625 C 8.847656 7.324219 8.777344 7.371094 8.800781 7.464844 C 8.824219 7.558594 8.660156 7.546875 8.660156 7.6875 C 8.660156 7.828125 8.507812 7.769531 8.507812 7.769531 C 8.507812 7.769531 8.695312 7.277344 8.378906 7.289062 C 8.199219 7.296875 8.261719 7.664062 8.378906 7.792969 C 8.328125 7.714844 8.179688 7.710938 8.054688 7.617188 C 7.933594 7.523438 8.074219 7.371094 7.980469 7.40625 C 7.886719 7.441406 7.828125 7.59375 7.734375 7.628906 C 7.640625 7.664062 7.6875 7.523438 7.734375 7.40625 C 7.78125 7.289062 7.679688 7.230469 7.679688 7.230469 C 7.679688 7.230469 7.6875 7.148438 7.757812 7.101562 C 7.828125 7.054688 7.851562 6.972656 7.757812 6.878906 C 7.664062 6.785156 7.324219 6.257812 7.429688 6.082031 C 7.535156 5.90625 7.886719 5.707031 8.871094 5.730469 C 9.046875 6.539062 8.777344 6.9375 8.777344 6.9375 C 8.777344 6.9375 8.976562 7.066406 9.035156 7.136719 C 8.894531 7.195312 9 7.253906 9.09375 7.335938 C 9.1875 7.417969 9.246094 7.476562 9.1875 7.535156 Z M 11.015625 7.40625 C 11.0625 7.523438 11.109375 7.664062 11.015625 7.628906 C 10.921875 7.59375 10.863281 7.441406 10.769531 7.40625 C 10.675781 7.371094 10.816406 7.523438 10.695312 7.617188 C 10.570312 7.710938 10.421875 7.714844 10.371094 7.792969 C 10.488281 7.664062 10.550781 7.296875 10.371094 7.289062 C 10.054688 7.277344 10.242188 7.769531 10.242188 7.769531 C 10.242188 7.769531 10.089844 7.828125 10.089844 7.6875 C 10.089844 7.546875 9.925781 7.558594 9.949219 7.464844 C 9.972656 7.371094 9.902344 7.324219 9.785156 7.40625 C 9.667969 7.488281 9.621094 7.59375 9.5625 7.535156 C 9.503906 7.476562 9.5625 7.417969 9.65625 7.335938 C 9.75 7.253906 9.855469 7.195312 9.714844 7.136719 C 9.773438 7.066406 9.972656 6.9375 9.972656 6.9375 C 9.972656 6.9375 9.703125 6.539062 9.878906 5.730469 C 10.863281 5.707031 11.214844 5.90625 11.320312 6.082031 C 11.425781 6.257812 11.085938 6.785156 10.992188 6.878906 C 10.898438 6.972656 10.921875 7.054688 10.992188 7.101562 C 11.0625 7.148438 11.070312 7.230469 11.070312 7.230469 C 11.070312 7.230469 10.96875 7.289062 11.015625 7.40625 Z M 12.585938 6.949219 C 12.445312 7.148438 12.375 7.289062 12.398438 7.523438 C 12.421875 7.757812 12.328125 7.886719 12.328125 7.757812 C 12.328125 7.628906 12.089844 7.726562 12.027344 7.957031 C 11.953125 8.238281 12.164062 7.589844 11.953125 7.523438 C 11.765625 7.464844 11.519531 8.027344 11.578125 7.96875 C 11.636719 7.910156 11.71875 7.570312 11.671875 7.523438 C 11.625 7.476562 11.367188 7.6875 11.367188 7.6875 C 11.367188 7.6875 11.449219 7.546875 11.519531 7.488281 C 11.589844 7.429688 11.519531 7.320312 11.519531 7.320312 C 11.519531 7.320312 11.671875 7.21875 11.753906 7.066406 C 11.835938 6.914062 11.988281 6.246094 11.988281 6.246094 C 11.988281 6.246094 12.375 6.339844 12.550781 6.457031 C 12.726562 6.574219 12.726562 6.75 12.585938 6.949219 Z M 12.585938 6.949219 "/>
<path fill-rule="nonzero" fill="rgb(100%, 67.449951%, 19.999695%)" fill-opacity="1" d="M 9.457031 5.429688 C 9.457031 5.503906 9.394531 5.566406 9.320312 5.566406 C 9.246094 5.566406 9.1875 5.503906 9.1875 5.429688 L 9.1875 4.246094 C 9.1875 4.171875 9.246094 4.113281 9.320312 4.113281 C 9.394531 4.113281 9.457031 4.171875 9.457031 4.246094 Z M 9.457031 5.429688 "/>
<path fill-rule="nonzero" fill="rgb(92.939758%, 72.547913%, 18.03894%)" fill-opacity="1" d="M 9.726562 4.566406 C 9.726562 4.632812 9.671875 4.6875 9.605469 4.6875 L 9.019531 4.6875 C 8.949219 4.6875 8.894531 4.632812 8.894531 4.566406 C 8.894531 4.496094 8.949219 4.441406 9.019531 4.441406 L 9.605469 4.441406 C 9.671875 4.441406 9.726562 4.496094 9.726562 4.566406 Z M 9.726562 4.566406 "/>
<path fill-rule="nonzero" fill="rgb(4.705811%, 25.097656%, 46.273804%)" fill-opacity="1" d="M 9.761719 5.296875 C 9.761719 5.546875 9.558594 5.746094 9.308594 5.746094 C 9.0625 5.746094 8.859375 5.546875 8.859375 5.296875 C 8.859375 5.046875 9.0625 4.84375 9.308594 4.84375 C 9.558594 4.847656 9.761719 5.046875 9.761719 5.296875 Z M 7.203125 9.207031 C 7.203125 9.316406 7.078125 9.40625 6.917969 9.40625 C 6.761719 9.40625 6.636719 9.316406 6.636719 9.207031 C 6.636719 9.097656 6.761719 9.007812 6.917969 9.007812 C 7.078125 9.007812 7.203125 9.097656 7.203125 9.207031 Z M 7.203125 9.207031 "/>
<path fill-rule="nonzero" fill="rgb(77.645874%, 21.176147%, 23.529053%)" fill-opacity="1" d="M 8.34375 9.140625 C 8.34375 9.25 8.21875 9.339844 8.058594 9.339844 C 7.902344 9.339844 7.777344 9.25 7.777344 9.140625 C 7.777344 9.027344 7.902344 8.941406 8.058594 8.941406 C 8.214844 8.941406 8.34375 9.027344 8.34375 9.140625 Z M 10.875 9.140625 C 10.875 9.25 10.75 9.339844 10.589844 9.339844 C 10.433594 9.339844 10.308594 9.25 10.308594 9.140625 C 10.308594 9.027344 10.433594 8.941406 10.589844 8.941406 C 10.746094 8.941406 10.875 9.027344 10.875 9.140625 Z M 10.875 9.140625 "/>
<path fill-rule="nonzero" fill="rgb(4.705811%, 25.097656%, 46.273804%)" fill-opacity="1" d="M 12.046875 9.207031 C 12.046875 9.316406 11.917969 9.40625 11.761719 9.40625 C 11.605469 9.40625 11.480469 9.316406 11.480469 9.207031 C 11.480469 9.097656 11.605469 9.007812 11.761719 9.007812 C 11.917969 9.007812 12.046875 9.097656 12.046875 9.207031 Z M 9.605469 9.125 C 9.605469 9.234375 9.480469 9.324219 9.324219 9.324219 C 9.164062 9.324219 9.039062 9.234375 9.039062 9.125 C 9.039062 9.015625 9.164062 8.925781 9.324219 8.925781 C 9.480469 8.925781 9.605469 9.015625 9.605469 9.125 Z M 9.605469 9.125 "/>
<path fill-rule="nonzero" fill="rgb(92.939758%, 72.547913%, 18.03894%)" fill-opacity="1" d="M 7.714844 16.921875 C 7.457031 17.503906 7.429688 17.789062 7.128906 17.769531 C 6.824219 17.75 6.609375 17.699219 6.609375 17.820312 C 6.609375 17.941406 7.09375 17.890625 7.09375 17.890625 C 7.09375 17.890625 6.636719 18.085938 6.726562 18.3125 C 6.816406 18.535156 7.210938 18.027344 7.210938 18.027344 C 7.210938 18.027344 7.289062 18.046875 7.441406 17.921875 C 7.59375 17.800781 7.996094 17.207031 7.996094 17.207031 Z M 11.023438 16.921875 C 11.28125 17.503906 11.308594 17.789062 11.609375 17.769531 C 11.914062 17.75 12.128906 17.699219 12.128906 17.820312 C 12.128906 17.941406 11.648438 17.890625 11.648438 17.890625 C 11.648438 17.890625 12.101562 18.085938 12.011719 18.3125 C 11.925781 18.535156 11.53125 18.027344 11.53125 18.027344 C 11.53125 18.027344 11.449219 18.046875 11.296875 17.921875 C 11.144531 17.800781 10.742188 17.207031 10.742188 17.207031 Z M 11.023438 16.921875 "/>
<path fill-rule="nonzero" fill="rgb(100%, 100%, 100%)" fill-opacity="1" d="M 12.835938 11.765625 C 12.703125 10.859375 11.851562 11.140625 11.488281 11.765625 C 11.125 12.390625 10.8125 12.765625 10.476562 12.328125 C 10.144531 11.890625 9.921875 11.421875 10.40625 10.828125 L 10.890625 10.234375 C 10.820312 9.875 10.53125 9.953125 10.117188 10.125 C 9.699219 10.296875 9.4375 10.21875 9.480469 10.40625 C 9.519531 10.59375 9.671875 10.609375 9.671875 10.609375 C 9.671875 10.609375 9.410156 10.863281 9.34375 11.746094 C 9.273438 10.863281 9.011719 10.609375 9.011719 10.609375 C 9.011719 10.609375 9.164062 10.59375 9.203125 10.40625 C 9.246094 10.21875 8.984375 10.296875 8.566406 10.125 C 8.152344 9.953125 7.863281 9.875 7.792969 10.234375 L 8.277344 10.828125 C 8.761719 11.421875 8.539062 11.890625 8.207031 12.328125 C 7.871094 12.765625 7.558594 12.4375 7.195312 11.8125 C 6.832031 11.1875 5.980469 10.90625 5.847656 11.8125 C 5.714844 12.71875 5.871094 14.296875 5.871094 14.296875 C 5.871094 14.296875 5.785156 15.15625 5.953125 15.890625 C 6.117188 16.625 6.214844 17.28125 5.953125 17.84375 C 6.242188 17.765625 6.421875 17.390625 6.421875 17.390625 C 6.421875 17.390625 6.328125 17.84375 6.507812 17.796875 C 6.6875 17.75 6.726562 17.40625 6.867188 17.28125 C 7.003906 17.15625 7.117188 16.875 7.117188 16.875 C 7.117188 16.875 7.40625 16.765625 7.117188 17.25 C 7.351562 17.265625 7.503906 17.109375 7.503906 17.109375 L 7.585938 17.546875 L 7.722656 17.3125 L 7.792969 17.734375 L 8.042969 17.328125 L 8.207031 17.515625 C 8.207031 17.515625 8.238281 16.71875 8.457031 16.875 C 8.679688 17.03125 8.691406 17.546875 8.539062 17.859375 C 8.390625 18.171875 8.539062 18.296875 8.539062 18.296875 C 8.539062 18.296875 8.320312 18.625 8.207031 18.8125 C 8.09375 19 8.265625 19.21875 8.265625 19.21875 C 8.265625 19.21875 7.835938 19.859375 7.957031 20.109375 C 8.070312 20.351562 8.785156 20.503906 9.308594 20.515625 L 9.375 20.515625 C 9.898438 20.503906 10.613281 20.351562 10.730469 20.109375 C 10.847656 19.859375 10.417969 19.21875 10.417969 19.21875 C 10.417969 19.21875 10.589844 19 10.476562 18.8125 C 10.363281 18.625 10.140625 18.296875 10.140625 18.296875 C 10.140625 18.296875 10.292969 18.171875 10.140625 17.859375 C 9.992188 17.546875 10.003906 17.03125 10.226562 16.875 C 10.445312 16.71875 10.476562 17.515625 10.476562 17.515625 L 10.640625 17.328125 L 10.890625 17.734375 L 10.957031 17.3125 L 11.097656 17.546875 L 11.179688 17.109375 C 11.179688 17.109375 11.332031 17.265625 11.566406 17.25 C 11.277344 16.765625 11.566406 16.875 11.566406 16.875 C 11.566406 16.875 11.679688 17.15625 11.816406 17.28125 C 11.953125 17.40625 11.996094 17.75 12.175781 17.796875 C 12.355469 17.84375 12.257812 17.390625 12.257812 17.390625 C 12.257812 17.390625 12.441406 17.765625 12.730469 17.84375 C 12.46875 17.28125 12.5625 16.625 12.730469 15.890625 C 12.894531 15.15625 12.8125 14.296875 12.8125 14.296875 C 12.8125 14.296875 12.96875 12.671875 12.835938 11.765625 Z M 12.835938 11.765625 "/>
<path fill-rule="nonzero" fill="rgb(92.939758%, 72.547913%, 18.03894%)" fill-opacity="1" d="M 8.917969 10.734375 C 8.589844 10.417969 7.765625 10.007812 7.492188 10.066406 C 7.21875 10.125 7 10.3125 7.203125 10.605469 C 7.40625 10.898438 7.492188 10.886719 7.492188 10.886719 C 7.492188 10.886719 7.816406 10.59375 7.957031 10.757812 C 8.097656 10.921875 7.980469 10.980469 7.722656 11.003906 C 7.464844 11.027344 7.203125 10.851562 7.203125 10.851562 C 7.203125 10.851562 7.289062 11.15625 7.644531 11.191406 C 7.886719 11.425781 8.191406 11.25 8.34375 11.25 C 8.496094 11.25 9.210938 11.015625 8.917969 10.734375 Z M 9.765625 10.734375 C 10.097656 10.417969 10.921875 10.007812 11.191406 10.066406 C 11.464844 10.125 11.683594 10.3125 11.480469 10.605469 C 11.277344 10.898438 11.191406 10.886719 11.191406 10.886719 C 11.191406 10.886719 10.867188 10.59375 10.726562 10.757812 C 10.585938 10.921875 10.703125 10.980469 10.960938 11.003906 C 11.21875 11.027344 11.480469 10.851562 11.480469 10.851562 C 11.480469 10.851562 11.394531 11.15625 11.039062 11.191406 C 10.796875 11.425781 10.492188 11.25 10.339844 11.25 C 10.1875 11.25 9.472656 11.015625 9.765625 10.734375 Z M 7.476562 18.898438 C 7.578125 18.664062 7.507812 18.628906 7.425781 18.546875 C 7.339844 18.464844 7.300781 18.347656 7.300781 18.347656 C 7.300781 18.347656 7.257812 18.464844 7.175781 18.546875 C 7.09375 18.628906 7.019531 18.660156 7.125 18.898438 C 6.875 18.75 6.832031 19.023438 6.945312 19.1875 C 6.980469 19.039062 7.175781 19.074219 7.175781 19.253906 C 7.175781 19.433594 7.011719 19.351562 7.03125 19.425781 C 7.054688 19.5 7.203125 19.652344 7.300781 19.652344 C 7.398438 19.652344 7.546875 19.5 7.566406 19.425781 C 7.585938 19.351562 7.425781 19.433594 7.425781 19.253906 C 7.425781 19.074219 7.621094 19.039062 7.652344 19.1875 C 7.769531 19.023438 7.726562 18.75 7.476562 18.898438 Z M 11.554688 18.898438 C 11.65625 18.664062 11.585938 18.628906 11.503906 18.546875 C 11.417969 18.464844 11.378906 18.347656 11.378906 18.347656 C 11.378906 18.347656 11.335938 18.464844 11.253906 18.546875 C 11.171875 18.628906 11.097656 18.660156 11.203125 18.898438 C 10.953125 18.75 10.910156 19.023438 11.023438 19.1875 C 11.058594 19.039062 11.253906 19.074219 11.253906 19.253906 C 11.253906 19.433594 11.089844 19.351562 11.109375 19.425781 C 11.128906 19.5 11.28125 19.652344 11.378906 19.652344 C 11.476562 19.652344 11.625 19.5 11.644531 19.425781 C 11.664062 19.351562 11.503906 19.433594 11.503906 19.253906 C 11.503906 19.074219 11.699219 19.039062 11.730469 19.1875 C 11.847656 19.023438 11.804688 18.75 11.554688 18.898438 Z M 11.554688 18.898438 "/>
<path fill-rule="nonzero" fill="rgb(77.645874%, 21.176147%, 23.529053%)" fill-opacity="1" d="M 7.683594 12.65625 L 7.683594 15.550781 C 7.683594 16.476562 8.433594 17.226562 9.359375 17.226562 C 10.285156 17.226562 11.035156 16.476562 11.035156 15.550781 L 11.035156 12.65625 Z M 7.683594 12.65625 "/>
<path fill-rule="nonzero" fill="rgb(93.331909%, 93.331909%, 93.331909%)" fill-opacity="1" d="M 11.035156 14.378906 L 9.71875 14.378906 L 9.71875 12.65625 L 9 12.65625 L 9 14.378906 L 7.683594 14.378906 L 7.683594 15.101562 L 9 15.101562 L 9 17.183594 C 9.113281 17.210938 9.234375 17.226562 9.359375 17.226562 C 9.484375 17.226562 9.605469 17.210938 9.722656 17.183594 L 9.722656 15.101562 L 11.035156 15.101562 Z M 11.035156 14.378906 "/>
</svg>
