<?xml version="1.0" encoding="UTF-8"?>
<svg xmlns="http://www.w3.org/2000/svg" xmlns:xlink="http://www.w3.org/1999/xlink" width="27pt" height="27pt" viewBox="0 0 27 27">
<path fill-rule="nonzero" fill="rgb(0%, 41.567993%, 65.489197%)" fill-opacity="1" d="M 11.625 23.25 L 24 23.25 C 25.65625 23.25 27 21.90625 27 19.875 L 27 15.375 L 11.625 15.375 Z M 24 3.75 L 11.625 3.75 L 11.625 11.625 L 27 11.625 L 27 6.75 C 27 5.09375 25.65625 3.75 24 3.75 Z M 7.875 3.75 L 3 3.75 C 1.34375 3.75 0 5.089844 0 6.746094 L 0 11.625 L 7.875 11.625 Z M 0 15.375 L 0 19.878906 C 0 21.910156 1.34375 23.25 3 23.25 L 7.875 23.25 L 7.875 15.375 Z M 0 15.375 "/>
<path fill-rule="nonzero" fill="rgb(99.606323%, 79.998779%, 0%)" fill-opacity="1" d="M 11.625 3.75 L 7.875 3.75 L 7.875 11.625 L 0 11.625 L 0 15.375 L 7.875 15.375 L 7.875 23.25 L 11.625 23.25 L 11.625 15.375 L 27 15.375 L 27 11.625 L 11.625 11.625 Z M 11.625 3.75 "/>
</svg>
