<?xml version="1.0" encoding="UTF-8"?>
<svg xmlns="http://www.w3.org/2000/svg" xmlns:xlink="http://www.w3.org/1999/xlink" width="27pt" height="27pt" viewBox="0 0 27 27">
<path fill-rule="nonzero" fill="rgb(93.331909%, 93.331909%, 93.331909%)" fill-opacity="1" d="M 27 20.25 C 27 21.90625 25.65625 23.25 24 23.25 L 3 23.25 C 1.34375 23.25 0 21.90625 0 20.25 L 0 6.75 C 0 5.09375 1.34375 3.75 3 3.75 L 24 3.75 C 25.65625 3.75 27 5.09375 27 6.75 Z M 27 20.25 "/>
<path fill-rule="nonzero" fill="rgb(92.939758%, 16.078186%, 22.3526%)" fill-opacity="1" d="M 27 13.5 L 27 6.75 C 27 5.09375 25.65625 3.75 24 3.75 L 3 3.75 C 1.34375 3.75 0 5.09375 0 6.75 L 0 13.5 Z M 27 13.5 "/>
<path fill-rule="nonzero" fill="rgb(100%, 100%, 100%)" fill-opacity="1" d="M 4.5 8.625 C 4.5 6.6875 5.71875 5.0625 7.359375 4.621094 C 7.042969 4.546875 6.714844 4.5 6.375 4.5 C 4.097656 4.5 2.25 6.347656 2.25 8.625 C 2.25 10.902344 4.097656 12.75 6.375 12.75 C 6.714844 12.75 7.042969 12.703125 7.359375 12.628906 C 5.71875 12.1875 4.5 10.5625 4.5 8.625 Z M 4.5 8.625 "/>
<path fill-rule="nonzero" fill="rgb(93.331909%, 93.331909%, 93.331909%)" fill-opacity="1" d="M 9 5.25 L 9.167969 5.769531 L 9.714844 5.769531 L 9.273438 6.089844 L 9.441406 6.605469 L 9 6.285156 L 8.558594 6.605469 L 8.726562 6.089844 L 8.285156 5.769531 L 8.832031 5.769531 Z M 7.5 10.5 L 7.667969 11.019531 L 8.214844 11.019531 L 7.773438 11.339844 L 7.941406 11.855469 L 7.5 11.535156 L 7.058594 11.855469 L 7.226562 11.339844 L 6.785156 11.019531 L 7.332031 11.019531 Z M 10.5 10.5 L 10.667969 11.019531 L 11.214844 11.019531 L 10.773438 11.339844 L 10.941406 11.855469 L 10.5 11.535156 L 10.058594 11.855469 L 10.226562 11.339844 L 9.785156 11.019531 L 10.332031 11.019531 Z M 6.75 7.5 L 6.917969 8.019531 L 7.464844 8.019531 L 7.023438 8.339844 L 7.191406 8.855469 L 6.75 8.535156 L 6.308594 8.855469 L 6.476562 8.339844 L 6.035156 8.019531 L 6.582031 8.019531 Z M 11.25 7.5 L 11.417969 8.019531 L 11.964844 8.019531 L 11.523438 8.339844 L 11.691406 8.855469 L 11.25 8.535156 L 10.808594 8.855469 L 10.976562 8.339844 L 10.535156 8.019531 L 11.082031 8.019531 Z M 11.25 7.5 "/>
</svg>
