<?xml version="1.0" encoding="UTF-8"?>
<svg xmlns="http://www.w3.org/2000/svg" xmlns:xlink="http://www.w3.org/1999/xlink" width="27pt" height="27pt" viewBox="0 0 27 27">
<path fill-rule="nonzero" fill="rgb(92.939758%, 10.980225%, 13.725281%)" fill-opacity="1" d="M 27 20.25 L 27 17.25 L 0 17.25 L 0 20.25 C 0 21.90625 1.34375 23.25 3 23.25 L 24 23.25 C 25.65625 23.25 27 21.90625 27 20.25 Z M 27 20.25 "/>
<path fill-rule="nonzero" fill="rgb(93.331909%, 93.331909%, 93.331909%)" fill-opacity="1" d="M 27 17.25 L 0 17.25 L 0 6.75 C 0 5.09375 1.34375 3.75 3 3.75 L 24 3.75 C 25.65625 3.75 27 5.09375 27 6.75 Z M 27 17.25 "/>
<path fill-rule="nonzero" fill="rgb(0%, 36.470032%, 64.312744%)" fill-opacity="1" d="M 0 9.75 L 27 9.75 L 27 17.25 L 0 17.25 Z M 0 9.75 "/>
<path fill-rule="nonzero" fill="rgb(92.939758%, 10.980225%, 13.725281%)" fill-opacity="1" d="M 8.34375 5.9375 C 6.65625 5.9375 5.46875 6.5625 5.46875 6.5625 C 5.46875 6.5625 5.578125 8.0625 5.71875 10.375 C 5.859375 12.6875 8.34375 13.5 8.34375 13.5 C 8.34375 13.5 10.828125 12.6875 10.96875 10.375 C 11.109375 8.0625 11.21875 6.5625 11.21875 6.5625 C 11.21875 6.5625 10.03125 5.9375 8.34375 5.9375 Z M 8.34375 5.9375 "/>
<path fill-rule="nonzero" fill="rgb(0%, 29.019165%, 46.665955%)" fill-opacity="1" d="M 10.945312 6.441406 C 10.503906 6.257812 9.558594 5.9375 8.34375 5.9375 C 7.128906 5.9375 6.183594 6.257812 5.742188 6.441406 C 5.75 6.597656 5.847656 8.316406 5.96875 10.3125 C 6.09375 12.40625 8.34375 13.140625 8.34375 13.140625 C 8.34375 13.140625 10.589844 12.40625 10.71875 10.3125 C 10.839844 8.316406 10.9375 6.597656 10.945312 6.441406 Z M 10.945312 6.441406 "/>
<path fill-rule="nonzero" fill="rgb(100%, 100%, 100%)" fill-opacity="1" d="M 9.078125 11.941406 C 8.8125 11.941406 8.6875 12.097656 8.296875 12.097656 C 7.90625 12.097656 7.84375 11.941406 7.578125 11.941406 C 7.378906 11.941406 7.253906 12.03125 7.097656 12.074219 C 7.707031 12.53125 8.34375 12.71875 8.34375 12.71875 C 8.878906 12.628906 9.296875 12.371094 9.613281 12.074219 C 9.410156 12.03125 9.28125 11.941406 9.078125 11.941406 Z M 7.609375 10.902344 C 7.859375 10.902344 8.078125 11.097656 8.34375 11.097656 C 8.609375 11.097656 8.796875 10.902344 9.078125 10.902344 C 9.320312 10.902344 9.636719 11.21875 10.097656 11.035156 C 10.304688 10.683594 10.40625 10.40625 10.40625 10.40625 L 9.46875 9.0625 L 9 9.632812 L 8.34375 8.375 L 7.71875 9.632812 L 7.265625 9.03125 C 7.265625 9.03125 6.859375 9.515625 6.1875 10.421875 C 6.269531 10.636719 6.375 10.820312 6.492188 10.996094 C 7.023438 11.257812 7.382812 10.902344 7.609375 10.902344 Z M 9.828125 11.46875 C 9.484375 11.46875 9.34375 11.273438 9.078125 11.273438 C 8.8125 11.273438 8.6875 11.46875 8.296875 11.46875 C 7.90625 11.46875 7.84375 11.273438 7.578125 11.273438 C 7.3125 11.273438 7.179688 11.46875 6.9375 11.46875 C 6.851562 11.46875 6.75 11.441406 6.65625 11.40625 C 6.753906 11.53125 6.847656 11.660156 6.949219 11.769531 C 7.238281 11.742188 7.453125 11.5625 7.609375 11.5625 C 7.859375 11.5625 8.078125 11.773438 8.34375 11.773438 C 8.609375 11.773438 8.796875 11.5625 9.078125 11.5625 C 9.25 11.5625 9.464844 11.738281 9.742188 11.765625 C 9.824219 11.660156 9.898438 11.554688 9.964844 11.449219 C 9.917969 11.457031 9.878906 11.46875 9.828125 11.46875 Z M 9.828125 11.46875 "/>
<path fill-rule="nonzero" fill="rgb(100%, 86.665344%, 0%)" fill-opacity="1" d="M 7.738281 6.605469 L 7.902344 6.78125 L 7.667969 6.726562 L 7.597656 6.953125 L 7.53125 6.726562 L 7.296875 6.78125 L 7.460938 6.605469 L 7.296875 6.429688 L 7.53125 6.484375 L 7.597656 6.257812 L 7.667969 6.484375 L 7.902344 6.429688 Z M 9.308594 6.605469 L 9.472656 6.78125 L 9.238281 6.726562 L 9.167969 6.953125 L 9.101562 6.726562 L 8.867188 6.78125 L 9.03125 6.605469 L 8.867188 6.429688 L 9.101562 6.484375 L 9.167969 6.257812 L 9.238281 6.484375 L 9.472656 6.429688 Z M 8.496094 7.652344 L 8.65625 7.828125 L 8.425781 7.773438 L 8.355469 8 L 8.285156 7.773438 L 8.054688 7.828125 L 8.21875 7.652344 L 8.054688 7.476562 L 8.285156 7.53125 L 8.355469 7.304688 L 8.425781 7.53125 L 8.65625 7.476562 Z M 8.496094 7.652344 "/>
</svg>
