<?xml version="1.0" encoding="UTF-8"?>
<svg xmlns="http://www.w3.org/2000/svg" xmlns:xlink="http://www.w3.org/1999/xlink" width="27pt" height="27pt" viewBox="0 0 27 27">
<path fill-rule="nonzero" fill="rgb(93.331909%, 12.548828%, 14.117432%)" fill-opacity="1" d="M 27 20.25 L 27 17.25 L 0 17.25 L 0 20.25 C 0 21.90625 1.34375 23.25 3 23.25 L 24 23.25 C 25.65625 23.25 27 21.90625 27 20.25 Z M 27 20.25 "/>
<path fill-rule="nonzero" fill="rgb(93.331909%, 93.331909%, 93.331909%)" fill-opacity="1" d="M 27 17.25 L 0 17.25 L 0 6.75 C 0 5.09375 1.34375 3.75 3 3.75 L 24 3.75 C 25.65625 3.75 27 5.09375 27 6.75 Z M 27 17.25 "/>
<path fill-rule="nonzero" fill="rgb(3.921509%, 30.587769%, 63.528442%)" fill-opacity="1" d="M 0 9.75 L 27 9.75 L 27 17.25 L 0 17.25 Z M 0 9.75 "/>
<path fill-rule="nonzero" fill="rgb(100%, 100%, 100%)" fill-opacity="1" d="M 8.878906 18.816406 C 8.03125 18.332031 6.148438 17.109375 5.460938 15.453125 C 4.769531 13.78125 4.921875 11.382812 5.101562 8.609375 L 5.144531 7.90625 L 14.117188 7.90625 L 14.164062 8.609375 C 14.34375 11.382812 14.496094 13.78125 13.804688 15.449219 C 13.113281 17.109375 11.234375 18.332031 10.386719 18.816406 L 9.632812 19.246094 Z M 8.878906 18.816406 "/>
<path fill-rule="nonzero" fill="rgb(93.331909%, 12.548828%, 14.117432%)" fill-opacity="1" d="M 13.414062 8.65625 L 5.847656 8.65625 C 5.671875 11.4375 5.53125 13.667969 6.152344 15.164062 C 6.917969 17.007812 9.539062 18.328125 9.628906 18.371094 L 9.628906 18.375 L 9.628906 18.371094 L 9.632812 18.375 L 9.632812 18.371094 C 9.722656 18.328125 12.34375 17.007812 13.109375 15.164062 C 13.730469 13.667969 13.59375 11.4375 13.414062 8.65625 Z M 13.414062 8.65625 "/>
<path fill-rule="nonzero" fill="rgb(100%, 100%, 100%)" fill-opacity="1" d="M 11.898438 12.082031 C 11.898438 12.082031 10.847656 12.179688 9.925781 12.207031 C 9.917969 12.003906 9.914062 11.824219 9.914062 11.695312 C 9.914062 11.554688 9.917969 11.398438 9.925781 11.242188 C 10.65625 11.285156 11.160156 11.425781 11.160156 11.425781 C 11.347656 11.425781 11.496094 11.277344 11.496094 11.089844 L 11.496094 10.636719 C 11.496094 10.449219 11.347656 10.300781 11.160156 10.300781 C 11.160156 10.300781 10.605469 10.394531 9.984375 10.433594 C 10.039062 9.847656 10.101562 9.359375 10.101562 9.359375 C 10.101562 9.171875 9.953125 9.023438 9.765625 9.023438 L 9.3125 9.023438 C 9.128906 9.023438 8.976562 9.171875 8.976562 9.359375 C 8.976562 9.359375 9.046875 9.859375 9.105469 10.441406 C 8.464844 10.40625 7.917969 10.300781 7.917969 10.300781 C 7.734375 10.300781 7.582031 10.449219 7.582031 10.636719 L 7.582031 11.089844 C 7.582031 11.277344 7.734375 11.425781 7.917969 11.425781 C 7.917969 11.425781 8.398438 11.269531 9.171875 11.234375 C 9.179688 11.40625 9.1875 11.574219 9.1875 11.71875 C 9.1875 11.839844 9.183594 12.007812 9.175781 12.207031 C 8.246094 12.179688 7.15625 12.082031 7.15625 12.082031 C 6.972656 12.082031 6.820312 12.234375 6.820312 12.417969 L 6.820312 12.871094 C 6.820312 13.058594 6.972656 13.207031 7.15625 13.207031 C 7.15625 13.207031 8.144531 13.125 9.132812 13.113281 C 9.070312 14.257812 8.976562 15.601562 8.976562 15.601562 C 8.976562 15.789062 9.128906 15.9375 9.3125 15.9375 L 9.765625 15.9375 C 9.953125 15.9375 10.101562 15.789062 10.101562 15.601562 C 10.101562 15.601562 10.019531 14.273438 9.964844 13.117188 C 10.917969 13.136719 11.898438 13.207031 11.898438 13.207031 C 12.085938 13.207031 12.234375 13.058594 12.234375 12.871094 L 12.234375 12.417969 C 12.234375 12.234375 12.085938 12.082031 11.898438 12.082031 Z M 11.898438 12.082031 "/>
<path fill-rule="nonzero" fill="rgb(3.921509%, 30.587769%, 63.528442%)" fill-opacity="1" d="M 12.808594 15.722656 C 12.429688 14.910156 11.378906 14.679688 10.882812 15.675781 C 10.554688 14.480469 9.621094 14.480469 9.621094 14.480469 C 9.621094 14.480469 8.691406 14.480469 8.363281 15.675781 C 7.867188 14.6875 6.832031 14.90625 6.441406 15.703125 C 7.429688 17.261719 9.550781 18.332031 9.628906 18.371094 L 9.628906 18.375 L 9.632812 18.371094 L 9.636719 18.375 L 9.636719 18.371094 C 9.714844 18.332031 11.820312 17.269531 12.808594 15.722656 Z M 12.808594 15.722656 "/>
</svg>
