<?xml version="1.0" encoding="UTF-8"?>
<svg xmlns="http://www.w3.org/2000/svg" xmlns:xlink="http://www.w3.org/1999/xlink" width="27pt" height="27pt" viewBox="0 0 27 27">
<path fill-rule="nonzero" fill="rgb(65.489197%, 7.058716%, 17.64679%)" fill-opacity="1" d="M 0 19.886719 L 0 20.25 C 0 21.90625 1.34375 23.25 3 23.25 L 24 23.25 C 25.65625 23.25 27 21.90625 27 20.25 L 27 19.886719 Z M 0 19.886719 "/>
<path fill-rule="nonzero" fill="rgb(93.331909%, 93.331909%, 93.331909%)" fill-opacity="1" d="M 0 16.636719 L 27 16.636719 L 27 20 L 0 20 Z M 0 16.636719 "/>
<path fill-rule="nonzero" fill="rgb(16.078186%, 14.901733%, 28.234863%)" fill-opacity="1" d="M 0 10.132812 L 27 10.132812 L 27 16.75 L 0 16.75 Z M 0 10.132812 "/>
<path fill-rule="nonzero" fill="rgb(93.331909%, 93.331909%, 93.331909%)" fill-opacity="1" d="M 0 6.886719 L 27 6.886719 L 27 10.25 L 0 10.25 Z M 0 6.886719 "/>
<path fill-rule="nonzero" fill="rgb(65.489197%, 7.058716%, 17.64679%)" fill-opacity="1" d="M 0 7 L 0 6.75 C 0 5.09375 1.34375 3.75 3 3.75 L 24 3.75 C 25.65625 3.75 27 5.09375 27 6.75 L 27 7 Z M 0 7 "/>
</svg>
