<?xml version="1.0" encoding="UTF-8"?>
<svg xmlns="http://www.w3.org/2000/svg" xmlns:xlink="http://www.w3.org/1999/xlink" width="27pt" height="27pt" viewBox="0 0 27 27">
<path fill-rule="nonzero" fill="rgb(89.01825%, 3.529358%, 9.01947%)" fill-opacity="1" d="M 27 20.25 C 27 21.90625 25.65625 23.25 24 23.25 L 3 23.25 C 1.34375 23.25 0 21.90625 0 20.25 L 0 6.75 C 0 5.09375 1.34375 3.75 3 3.75 L 24 3.75 C 25.65625 3.75 27 5.09375 27 6.75 Z M 27 20.25 "/>
<path fill-rule="nonzero" fill="rgb(93.331909%, 93.331909%, 93.331909%)" fill-opacity="1" d="M 12 18 C 9.515625 18 7.5 15.984375 7.5 13.5 C 7.5 11.015625 9.515625 9 12 9 C 12.984375 9 13.890625 9.320312 14.628906 9.851562 C 13.621094 8.710938 12.144531 7.984375 10.5 7.984375 C 7.453125 7.984375 4.984375 10.453125 4.984375 13.5 C 4.984375 16.546875 7.453125 19.015625 10.5 19.015625 C 12.144531 19.015625 13.621094 18.289062 14.628906 17.148438 C 13.890625 17.679688 12.984375 18 12 18 Z M 14.933594 13.671875 L 16.765625 14.09375 L 16.929688 15.964844 L 17.894531 14.355469 L 19.726562 14.773438 L 18.492188 13.359375 L 19.457031 11.75 L 17.730469 12.484375 L 16.496094 11.066406 L 16.664062 12.9375 Z M 14.933594 13.671875 "/>
</svg>
