<?xml version="1.0" encoding="UTF-8"?>
<svg xmlns="http://www.w3.org/2000/svg" xmlns:xlink="http://www.w3.org/1999/xlink" width="27pt" height="27pt" viewBox="0 0 27 27">
<path fill-rule="nonzero" fill="rgb(99.606323%, 0%, 0%)" fill-opacity="1" d="M 24 3.75 L 12.75 3.75 L 12.75 13.5 L 0 13.5 L 0 20.25 C 0 21.90625 1.34375 23.25 3 23.25 L 24 23.25 C 25.65625 23.25 27 21.90625 27 20.25 L 27 6.75 C 27 5.09375 25.65625 3.75 24 3.75 Z M 24 3.75 "/>
<path fill-rule="nonzero" fill="rgb(0%, 0%, 58.430481%)" fill-opacity="1" d="M 12.75 3.75 L 3 3.75 C 1.34375 3.75 0 5.09375 0 6.75 L 0 13.5 L 12.75 13.5 Z M 8.203125 7.207031 L 9.730469 6.796875 L 8.609375 7.910156 C 8.519531 7.652344 8.378906 7.414062 8.203125 7.207031 Z M 8.390625 8.625 C 8.390625 9.632812 7.574219 10.453125 6.5625 10.453125 C 5.550781 10.453125 4.734375 9.632812 4.734375 8.625 C 4.734375 7.617188 5.554688 6.796875 6.5625 6.796875 C 7.570312 6.796875 8.390625 7.617188 8.390625 8.625 Z M 8.390625 5.457031 L 7.980469 6.984375 C 7.773438 6.808594 7.535156 6.667969 7.277344 6.578125 Z M 6.5625 4.96875 L 6.96875 6.496094 C 6.835938 6.46875 6.703125 6.457031 6.5625 6.457031 C 6.421875 6.457031 6.289062 6.46875 6.15625 6.496094 Z M 5.847656 6.578125 C 5.589844 6.667969 5.351562 6.808594 5.144531 6.984375 L 4.734375 5.457031 Z M 4.921875 7.207031 C 4.746094 7.414062 4.605469 7.652344 4.515625 7.910156 L 3.394531 6.796875 Z M 4.433594 8.21875 C 4.40625 8.351562 4.394531 8.484375 4.394531 8.625 C 4.394531 8.765625 4.40625 8.898438 4.433594 9.03125 L 2.90625 8.625 Z M 4.515625 9.335938 C 4.605469 9.597656 4.746094 9.835938 4.921875 10.042969 L 3.394531 10.453125 Z M 4.734375 11.792969 L 5.144531 10.265625 C 5.351562 10.441406 5.589844 10.582031 5.847656 10.671875 Z M 6.5625 12.28125 L 6.15625 10.753906 C 6.289062 10.78125 6.421875 10.792969 6.5625 10.792969 C 6.703125 10.792969 6.835938 10.78125 6.96875 10.753906 Z M 7.277344 10.671875 C 7.535156 10.582031 7.773438 10.441406 7.980469 10.265625 L 8.390625 11.792969 Z M 8.203125 10.042969 C 8.378906 9.835938 8.519531 9.597656 8.609375 9.339844 L 9.730469 10.453125 Z M 8.691406 9.03125 C 8.71875 8.898438 8.730469 8.765625 8.730469 8.625 C 8.730469 8.484375 8.71875 8.351562 8.691406 8.21875 L 10.21875 8.625 Z M 8.691406 9.03125 "/>
<path fill-rule="nonzero" fill="rgb(100%, 100%, 100%)" fill-opacity="1" d="M 6.96875 6.496094 L 6.5625 4.96875 L 6.15625 6.496094 C 6.289062 6.46875 6.421875 6.457031 6.5625 6.457031 C 6.703125 6.457031 6.835938 6.46875 6.96875 6.496094 Z M 4.394531 8.625 C 4.394531 8.484375 4.40625 8.351562 4.433594 8.21875 L 2.90625 8.625 L 4.433594 9.03125 C 4.40625 8.898438 4.394531 8.765625 4.394531 8.625 Z M 6.15625 10.753906 L 6.5625 12.28125 L 6.96875 10.753906 C 6.835938 10.78125 6.703125 10.792969 6.5625 10.792969 C 6.421875 10.792969 6.289062 10.78125 6.15625 10.753906 Z M 8.730469 8.625 C 8.730469 8.765625 8.71875 8.898438 8.691406 9.03125 L 10.21875 8.625 L 8.691406 8.21875 C 8.71875 8.351562 8.730469 8.484375 8.730469 8.625 Z M 8.390625 5.457031 L 7.277344 6.578125 C 7.535156 6.667969 7.773438 6.808594 7.980469 6.984375 Z M 8.203125 10.042969 L 9.730469 10.453125 L 8.609375 9.339844 C 8.519531 9.597656 8.378906 9.835938 8.203125 10.042969 Z M 4.734375 11.792969 L 5.847656 10.671875 C 5.589844 10.582031 5.351562 10.441406 5.144531 10.265625 Z M 4.921875 7.207031 L 3.394531 6.796875 L 4.515625 7.910156 C 4.605469 7.652344 4.746094 7.414062 4.921875 7.207031 Z M 7.277344 10.671875 L 8.390625 11.792969 L 7.980469 10.265625 C 7.773438 10.441406 7.535156 10.582031 7.277344 10.671875 Z M 4.515625 9.335938 L 3.394531 10.453125 L 4.921875 10.042969 C 4.746094 9.835938 4.605469 9.597656 4.515625 9.335938 Z M 5.847656 6.578125 L 4.734375 5.457031 L 5.144531 6.984375 C 5.351562 6.808594 5.589844 6.667969 5.847656 6.578125 Z M 9.730469 6.796875 L 8.203125 7.207031 C 8.378906 7.414062 8.519531 7.652344 8.609375 7.910156 Z M 9.730469 6.796875 "/>
<path fill-rule="nonzero" fill="rgb(100%, 100%, 100%)" fill-opacity="1" d="M 8.390625 8.625 C 8.390625 9.636719 7.574219 10.453125 6.5625 10.453125 C 5.550781 10.453125 4.734375 9.636719 4.734375 8.625 C 4.734375 7.613281 5.550781 6.796875 6.5625 6.796875 C 7.574219 6.796875 8.390625 7.613281 8.390625 8.625 Z M 8.390625 8.625 "/>
</svg>
