<?xml version="1.0" encoding="UTF-8"?>
<svg xmlns="http://www.w3.org/2000/svg" xmlns:xlink="http://www.w3.org/1999/xlink" width="27pt" height="27pt" viewBox="0 0 27 27">
<path fill-rule="nonzero" fill="rgb(69.802856%, 13.725281%, 20.391846%)" fill-opacity="1" d="M 26.582031 5.25 C 26.0625 4.355469 25.109375 3.75 24 3.75 L 13.5 3.75 L 13.5 5.25 Z M 0 18.75 L 27 18.75 L 27 20.25 L 0 20.25 Z M 13.5 12.75 L 27 12.75 L 27 14.25 L 13.5 14.25 Z M 13.5 9.75 L 27 9.75 L 27 11.25 L 13.5 11.25 Z M 0 15.75 L 27 15.75 L 27 17.25 L 0 17.25 Z M 3 23.25 L 24 23.25 C 25.109375 23.25 26.0625 22.644531 26.582031 21.75 L 0.417969 21.75 C 0.9375 22.644531 1.890625 23.25 3 23.25 Z M 13.5 6.75 L 27 6.75 L 27 8.25 L 13.5 8.25 Z M 13.5 6.75 "/>
<path fill-rule="nonzero" fill="rgb(93.331909%, 93.331909%, 93.331909%)" fill-opacity="1" d="M 0.0507812 20.757812 C 0.0625 20.828125 0.078125 20.898438 0.09375 20.96875 C 0.113281 21.042969 0.140625 21.117188 0.164062 21.1875 C 0.230469 21.382812 0.3125 21.570312 0.414062 21.746094 L 0.417969 21.75 L 26.582031 21.75 L 26.585938 21.746094 C 26.6875 21.570312 26.765625 21.382812 26.835938 21.191406 C 26.859375 21.117188 26.882812 21.042969 26.902344 20.964844 C 26.921875 20.898438 26.933594 20.828125 26.949219 20.757812 C 26.980469 20.59375 27 20.425781 27 20.25 L 0 20.25 C 0 20.425781 0.0195312 20.59375 0.0507812 20.757812 Z M 0 17.25 L 27 17.25 L 27 18.75 L 0 18.75 Z M 0 14.25 L 0 15.75 L 27 15.75 L 27 14.25 Z M 13.5 11.25 L 27 11.25 L 27 12.75 L 13.5 12.75 Z M 13.5 8.25 L 27 8.25 L 27 9.75 L 13.5 9.75 Z M 0 6.75 C 0 6.574219 0.0234375 6.40625 0.0507812 6.242188 C 0.0195312 6.40625 0 6.574219 0 6.75 Z M 0.417969 5.25 L 0.414062 5.253906 Z M 0.0976562 6.03125 C 0.113281 5.957031 0.140625 5.882812 0.164062 5.808594 C 0.140625 5.882812 0.117188 5.957031 0.0976562 6.03125 Z M 13.5 6.75 L 27 6.75 C 27 6.574219 26.980469 6.40625 26.949219 6.238281 C 26.933594 6.171875 26.921875 6.101562 26.902344 6.035156 C 26.882812 5.957031 26.859375 5.882812 26.832031 5.808594 C 26.765625 5.613281 26.6875 5.429688 26.585938 5.253906 C 26.585938 5.253906 26.585938 5.25 26.582031 5.25 L 13.5 5.25 Z M 13.5 6.75 "/>
<path fill-rule="nonzero" fill="rgb(23.529053%, 23.136902%, 43.136597%)" fill-opacity="1" d="M 13.5 3.75 L 3 3.75 C 1.34375 3.75 0 5.09375 0 6.75 L 0 14.25 L 13.5 14.25 Z M 13.5 3.75 "/>
<path fill-rule="nonzero" fill="rgb(100%, 100%, 100%)" fill-opacity="1" d="M 1.5 5.792969 L 1.964844 6.132812 L 1.789062 6.675781 L 2.25 6.339844 L 2.714844 6.675781 L 2.535156 6.132812 L 3 5.792969 L 2.425781 5.792969 L 2.25 5.25 L 2.074219 5.792969 Z M 3 7.292969 L 3.464844 7.632812 L 3.289062 8.175781 L 3.75 7.839844 L 4.214844 8.175781 L 4.035156 7.632812 L 4.5 7.292969 L 3.925781 7.292969 L 3.75 6.75 L 3.574219 7.292969 Z M 6 7.292969 L 6.464844 7.632812 L 6.289062 8.175781 L 6.75 7.839844 L 7.214844 8.175781 L 7.035156 7.632812 L 7.5 7.292969 L 6.925781 7.292969 L 6.75 6.75 L 6.574219 7.292969 Z M 9 7.292969 L 9.464844 7.632812 L 9.289062 8.175781 L 9.75 7.839844 L 10.214844 8.175781 L 10.035156 7.632812 L 10.5 7.292969 L 9.925781 7.292969 L 9.75 6.75 L 9.574219 7.292969 Z M 3 10.292969 L 3.464844 10.632812 L 3.289062 11.175781 L 3.75 10.839844 L 4.214844 11.175781 L 4.035156 10.632812 L 4.5 10.292969 L 3.925781 10.292969 L 3.75 9.75 L 3.574219 10.292969 Z M 6 10.292969 L 6.464844 10.632812 L 6.289062 11.175781 L 6.75 10.839844 L 7.214844 11.175781 L 7.035156 10.632812 L 7.5 10.292969 L 6.925781 10.292969 L 6.75 9.75 L 6.574219 10.292969 Z M 9 10.292969 L 9.464844 10.632812 L 9.289062 11.175781 L 9.75 10.839844 L 10.214844 11.175781 L 10.035156 10.632812 L 10.5 10.292969 L 9.925781 10.292969 L 9.75 9.75 L 9.574219 10.292969 Z M 4.5 5.792969 L 4.964844 6.132812 L 4.789062 6.675781 L 5.25 6.339844 L 5.714844 6.675781 L 5.535156 6.132812 L 6 5.792969 L 5.425781 5.792969 L 5.25 5.25 L 5.074219 5.792969 Z M 7.5 5.792969 L 7.964844 6.132812 L 7.789062 6.675781 L 8.25 6.339844 L 8.714844 6.675781 L 8.535156 6.132812 L 9 5.792969 L 8.425781 5.792969 L 8.25 5.25 L 8.074219 5.792969 Z M 10.5 5.792969 L 10.964844 6.132812 L 10.789062 6.675781 L 11.25 6.339844 L 11.714844 6.675781 L 11.535156 6.132812 L 12 5.792969 L 11.425781 5.792969 L 11.25 5.25 L 11.074219 5.792969 Z M 1.5 8.792969 L 1.964844 9.132812 L 1.789062 9.675781 L 2.25 9.339844 L 2.714844 9.675781 L 2.535156 9.132812 L 3 8.792969 L 2.425781 8.792969 L 2.25 8.25 L 2.074219 8.792969 Z M 4.789062 9.675781 L 5.25 9.339844 L 5.714844 9.675781 L 5.535156 9.132812 L 6 8.792969 L 5.425781 8.792969 L 5.25 8.25 L 5.074219 8.792969 L 4.5 8.792969 L 4.964844 9.132812 Z M 7.5 8.792969 L 7.964844 9.132812 L 7.789062 9.675781 L 8.25 9.339844 L 8.714844 9.675781 L 8.535156 9.132812 L 9 8.792969 L 8.425781 8.792969 L 8.25 8.25 L 8.074219 8.792969 Z M 10.5 8.792969 L 10.964844 9.132812 L 10.789062 9.675781 L 11.25 9.339844 L 11.714844 9.675781 L 11.535156 9.132812 L 12 8.792969 L 11.425781 8.792969 L 11.25 8.25 L 11.074219 8.792969 Z M 1.5 11.792969 L 1.964844 12.132812 L 1.789062 12.675781 L 2.25 12.339844 L 2.714844 12.675781 L 2.535156 12.132812 L 3 11.792969 L 2.425781 11.792969 L 2.25 11.25 L 2.074219 11.792969 Z M 4.789062 12.675781 L 5.25 12.339844 L 5.714844 12.675781 L 5.535156 12.132812 L 6 11.792969 L 5.425781 11.792969 L 5.25 11.25 L 5.074219 11.792969 L 4.5 11.792969 L 4.964844 12.132812 Z M 7.5 11.792969 L 7.964844 12.132812 L 7.789062 12.675781 L 8.25 12.339844 L 8.714844 12.675781 L 8.535156 12.132812 L 9 11.792969 L 8.425781 11.792969 L 8.25 11.25 L 8.074219 11.792969 Z M 10.5 11.792969 L 10.964844 12.132812 L 10.789062 12.675781 L 11.25 12.339844 L 11.714844 12.675781 L 11.535156 12.132812 L 12 11.792969 L 11.425781 11.792969 L 11.25 11.25 L 11.074219 11.792969 Z M 10.5 11.792969 "/>
</svg>
