<?xml version="1.0" encoding="UTF-8"?>
<svg xmlns="http://www.w3.org/2000/svg" xmlns:xlink="http://www.w3.org/1999/xlink" width="27pt" height="27pt" viewBox="0 0 27 27">
<path fill-rule="nonzero" fill="rgb(0%, 59.999084%, 70.979309%)" fill-opacity="1" d="M 0 6.75 L 0 9.75 L 27 9.75 L 27 6.75 C 27 5.09375 25.65625 3.75 24 3.75 L 3 3.75 C 1.34375 3.75 0 5.09375 0 6.75 Z M 0 6.75 "/>
<path fill-rule="nonzero" fill="rgb(11.764526%, 70.979309%, 22.744751%)" fill-opacity="1" d="M 27 20.25 L 27 17.25 L 0 17.25 L 0 20.25 C 0 21.90625 1.34375 23.25 3 23.25 L 24 23.25 C 25.65625 23.25 27 21.90625 27 20.25 Z M 27 20.25 "/>
<path fill-rule="nonzero" fill="rgb(80.783081%, 6.666565%, 14.901733%)" fill-opacity="1" d="M 0 9.75 L 27 9.75 L 27 10.875 L 0 10.875 Z M 0 16.125 L 27 16.125 L 27 17.25 L 0 17.25 Z M 0 16.125 "/>
<path fill-rule="nonzero" fill="rgb(93.331909%, 93.331909%, 93.331909%)" fill-opacity="1" d="M 0 13.5 L 0 16.125 L 27 16.125 L 27 10.875 L 0 10.875 Z M 0 13.5 "/>
<path fill-rule="nonzero" fill="rgb(100%, 100%, 100%)" fill-opacity="1" d="M 3.148438 6.871094 C 3.148438 5.710938 3.992188 4.75 5.101562 4.5625 C 4.972656 4.542969 4.84375 4.53125 4.710938 4.53125 C 3.417969 4.53125 2.371094 5.578125 2.371094 6.871094 C 2.371094 8.164062 3.417969 9.210938 4.710938 9.210938 C 4.84375 9.210938 4.972656 9.199219 5.101562 9.175781 C 3.992188 8.992188 3.148438 8.03125 3.148438 6.871094 Z M 6.664062 8.597656 L 6.558594 8.273438 L 6.453125 8.597656 L 6.113281 8.597656 L 6.386719 8.796875 L 6.28125 9.121094 L 6.558594 8.921875 L 6.832031 9.121094 L 6.726562 8.796875 L 7.003906 8.597656 Z M 8.6875 8.597656 L 8.582031 8.273438 L 8.480469 8.597656 L 8.140625 8.597656 L 8.414062 8.796875 L 8.308594 9.121094 L 8.582031 8.921875 L 8.859375 9.121094 L 8.753906 8.796875 L 9.027344 8.597656 Z M 8.582031 6.402344 L 8.480469 6.726562 L 8.140625 6.726562 L 8.414062 6.925781 L 8.308594 7.25 L 8.582031 7.046875 L 8.859375 7.25 L 8.753906 6.925781 L 9.027344 6.726562 L 8.6875 6.726562 Z M 10.714844 8.597656 L 10.609375 8.273438 L 10.507812 8.597656 L 10.167969 8.597656 L 10.441406 8.796875 L 10.335938 9.121094 L 10.609375 8.921875 L 10.886719 9.121094 L 10.78125 8.796875 L 11.054688 8.597656 Z M 10.609375 6.402344 L 10.507812 6.726562 L 10.167969 6.726562 L 10.441406 6.925781 L 10.335938 7.25 L 10.609375 7.046875 L 10.886719 7.25 L 10.78125 6.925781 L 11.054688 6.726562 L 10.714844 6.726562 Z M 10.609375 4.53125 L 10.507812 4.851562 L 10.167969 4.851562 L 10.441406 5.054688 L 10.335938 5.375 L 10.609375 5.175781 L 10.886719 5.375 L 10.78125 5.054688 L 11.054688 4.851562 L 10.714844 4.851562 Z M 12.742188 8.597656 L 12.636719 8.273438 L 12.535156 8.597656 L 12.191406 8.597656 L 12.46875 8.796875 L 12.363281 9.121094 L 12.636719 8.921875 L 12.914062 9.121094 L 12.808594 8.796875 L 13.082031 8.597656 Z M 12.636719 6.402344 L 12.535156 6.726562 L 12.191406 6.726562 L 12.46875 6.925781 L 12.363281 7.25 L 12.636719 7.046875 L 12.914062 7.25 L 12.808594 6.925781 L 13.082031 6.726562 L 12.742188 6.726562 Z M 12.636719 4.53125 L 12.535156 4.851562 L 12.191406 4.851562 L 12.46875 5.054688 L 12.363281 5.375 L 12.636719 5.175781 L 12.914062 5.375 L 12.808594 5.054688 L 13.082031 4.851562 L 12.742188 4.851562 Z M 14.769531 8.597656 L 14.664062 8.273438 L 14.558594 8.597656 L 14.21875 8.597656 L 14.496094 8.796875 L 14.390625 9.121094 L 14.664062 8.921875 L 14.941406 9.121094 L 14.835938 8.796875 L 15.109375 8.597656 Z M 14.664062 6.402344 L 14.558594 6.726562 L 14.21875 6.726562 L 14.496094 6.925781 L 14.390625 7.25 L 14.664062 7.046875 L 14.941406 7.25 L 14.835938 6.925781 L 15.109375 6.726562 L 14.769531 6.726562 Z M 14.664062 4.53125 L 14.558594 4.851562 L 14.21875 4.851562 L 14.496094 5.054688 L 14.390625 5.375 L 14.664062 5.175781 L 14.941406 5.375 L 14.835938 5.054688 L 15.109375 4.851562 L 14.769531 4.851562 Z M 14.664062 4.53125 "/>
</svg>
