<?xml version="1.0" encoding="UTF-8"?>
<svg xmlns="http://www.w3.org/2000/svg" xmlns:xlink="http://www.w3.org/1999/xlink" width="27pt" height="27pt" viewBox="0 0 27 27">
<path fill-rule="nonzero" fill="rgb(85.488892%, 14.509583%, 11.372375%)" fill-opacity="1" d="M 24 3.75 L 3 3.75 C 1.34375 3.75 0 5.09375 0 6.75 L 0 20.25 C 0 21.90625 1.34375 23.25 3 23.25 L 24 23.25 C 25.65625 23.25 27 21.90625 27 20.25 L 27 6.75 C 27 5.09375 25.65625 3.75 24 3.75 Z M 24 3.75 "/>
<path fill-rule="nonzero" fill="rgb(100%, 100%, 0%)" fill-opacity="1" d="M 14.816406 12.027344 L 13.5 7.980469 L 12.183594 12.027344 L 7.929688 12.027344 L 11.371094 14.527344 L 10.058594 18.574219 L 13.5 16.074219 L 16.941406 18.574219 L 15.628906 14.527344 L 19.070312 12.027344 Z M 14.816406 12.027344 "/>
</svg>
