<?xml version="1.0" encoding="UTF-8"?>
<svg xmlns="http://www.w3.org/2000/svg" xmlns:xlink="http://www.w3.org/1999/xlink" width="27pt" height="27pt" viewBox="0 0 27 27">
<path fill-rule="nonzero" fill="rgb(87.057495%, 21.960449%, 18.823242%)" fill-opacity="1" d="M 24 3.75 L 4.875 3.75 L 14.25 10.125 L 27 10.125 L 27 6.75 C 27 5.09375 25.65625 3.75 24 3.75 Z M 24 3.75 "/>
<path fill-rule="nonzero" fill="rgb(0%, 13.725281%, 58.430481%)" fill-opacity="1" d="M 4.875 23.25 L 24 23.25 C 25.65625 23.25 27 21.90625 27 20.25 L 27 16.875 L 14.25 16.875 Z M 4.875 23.25 "/>
<path fill-rule="nonzero" fill="rgb(7.843018%, 7.843018%, 7.843018%)" fill-opacity="1" d="M 0 8.25 L 0 18.75 L 7.875 13.5 Z M 0 8.25 "/>
<path fill-rule="nonzero" fill="rgb(100%, 71.37146%, 6.666565%)" fill-opacity="1" d="M 0 6.75 L 0 8.25 L 7.875 13.5 L 0 18.75 L 0 20.25 L 10.125 13.5 Z M 0 6.75 "/>
<path fill-rule="nonzero" fill="rgb(0%, 47.842407%, 30.195618%)" fill-opacity="1" d="M 2.65625 3.769531 C 1.160156 3.941406 0 5.210938 0 6.75 L 10.125 13.5 L 0 20.25 C 0 21.789062 1.160156 23.058594 2.65625 23.230469 L 13.875 15.375 L 27 15.375 L 27 11.625 L 13.875 11.625 Z M 2.65625 3.769531 "/>
<path fill-rule="nonzero" fill="rgb(93.331909%, 93.331909%, 93.331909%)" fill-opacity="1" d="M 4.875 3.75 L 3 3.75 C 2.882812 3.75 2.769531 3.757812 2.65625 3.769531 L 13.875 11.625 L 27 11.625 L 27 10.125 L 14.25 10.125 Z M 2.65625 23.230469 C 2.769531 23.242188 2.882812 23.25 3 23.25 L 4.875 23.25 L 14.25 16.875 L 27 16.875 L 27 15.375 L 13.875 15.375 Z M 2.65625 23.230469 "/>
</svg>
